<svg width="148" height="26" viewBox="0 0 148 26" fill="none" xmlns="http://www.w3.org/2000/svg">
<path d="M8.20394 20.5457C6.74762 20.5457 5.44502 20.2545 4.29614 19.6719C3.16345 19.0894 2.27348 18.2884 1.62622 17.269C0.978971 16.2334 0.655344 15.0522 0.655344 13.7253C0.655344 12.3984 0.978971 11.2253 1.62622 10.2058C2.27348 9.18642 3.16345 8.39353 4.29614 7.82719C5.44502 7.24466 6.74762 6.9534 8.20394 6.9534C9.69262 6.9534 10.979 7.26893 12.0632 7.9C13.1473 8.53108 13.9159 9.42105 14.369 10.5699L10.801 12.3903C10.4936 11.7754 10.1133 11.3304 9.66026 11.0554C9.20718 10.7641 8.71365 10.6185 8.17967 10.6185C7.64568 10.6185 7.16024 10.7398 6.72335 10.9825C6.28645 11.2253 5.93855 11.5813 5.67965 12.0505C5.43693 12.5036 5.31557 13.0618 5.31557 13.7253C5.31557 14.4049 5.43693 14.9793 5.67965 15.4486C5.93855 15.9179 6.28645 16.2738 6.72335 16.5166C7.16024 16.7593 7.64568 16.8806 8.17967 16.8806C8.71365 16.8806 9.20718 16.7431 9.66026 16.468C10.1133 16.1768 10.4936 15.7237 10.801 15.1088L14.369 16.9292C13.9159 18.0781 13.1473 18.968 12.0632 19.5991C10.979 20.2302 9.69262 20.5457 8.20394 20.5457ZM18.1257 25.2545C17.4299 25.2545 16.726 25.1412 16.014 24.9147C15.3182 24.7043 14.7519 24.4211 14.315 24.0652L15.9169 20.837C16.192 21.0797 16.5076 21.2658 16.8635 21.3952C17.2357 21.5409 17.5998 21.6137 17.9558 21.6137C18.4574 21.6137 18.8538 21.5004 19.1451 21.2739C19.4364 21.0473 19.6872 20.6914 19.8975 20.2059L20.5043 18.6768L20.8684 18.2156L25.3345 7.17184H29.7277L24.0481 20.8613C23.595 21.9939 23.0691 22.8758 22.4704 23.5069C21.8879 24.1542 21.2325 24.6072 20.5043 24.8661C19.7924 25.125 18.9995 25.2545 18.1257 25.2545ZM19.9218 20.8855L14.1208 7.17184H18.8538L23.1257 17.803L19.9218 20.8855ZM39.1966 20.5457C38.0154 20.5457 37.0283 20.303 36.2355 19.8176C35.4587 19.3321 34.8762 18.5878 34.4879 17.5845C34.0995 16.5813 33.9053 15.2949 33.9053 13.7253C33.9053 12.1881 34.1076 10.9178 34.5121 9.91458C34.9329 8.91134 35.5397 8.167 36.3325 7.68156C37.1254 7.19612 38.0801 6.9534 39.1966 6.9534C40.3941 6.9534 41.4782 7.22848 42.4491 7.77864C43.4361 8.32881 44.2128 9.1136 44.7792 10.133C45.3617 11.1363 45.653 12.3337 45.653 13.7253C45.653 15.1331 45.3617 16.3467 44.7792 17.3661C44.2128 18.3693 43.4361 19.1541 42.4491 19.7205C41.4782 20.2706 40.3941 20.5457 39.1966 20.5457ZM30.9199 20.3273V2.31744H35.5316V9.3806L35.2888 13.7253L35.3131 18.07V20.3273H30.9199ZM38.2258 16.8806C38.7436 16.8806 39.2047 16.7593 39.6093 16.5166C40.03 16.2738 40.3617 15.9179 40.6044 15.4486C40.8633 14.9632 40.9928 14.3887 40.9928 13.7253C40.9928 13.0618 40.8633 12.5036 40.6044 12.0505C40.3617 11.5813 40.03 11.2253 39.6093 10.9825C39.2047 10.7398 38.7436 10.6185 38.2258 10.6185C37.708 10.6185 37.2387 10.7398 36.818 10.9825C36.4134 11.2253 36.0817 11.5813 35.8228 12.0505C35.5801 12.5036 35.4587 13.0618 35.4587 13.7253C35.4587 14.3887 35.5801 14.9632 35.8228 15.4486C36.0817 15.9179 36.4134 16.2738 36.818 16.5166C37.2387 16.7593 37.708 16.8806 38.2258 16.8806ZM54.6898 20.5457C53.1364 20.5457 51.7771 20.2545 50.6121 19.6719C49.4632 19.0732 48.5651 18.2641 47.9179 17.2447C47.2868 16.2091 46.9713 15.036 46.9713 13.7253C46.9713 12.4146 47.2787 11.2495 47.8936 10.2301C48.5247 9.19451 49.3904 8.39353 50.4907 7.82719C51.591 7.24466 52.8289 6.9534 54.2043 6.9534C55.4988 6.9534 56.6801 7.22039 57.748 7.75437C58.816 8.27217 59.6655 9.04079 60.2966 10.0602C60.9277 11.0796 61.2432 12.3175 61.2432 13.7738C61.2432 13.9356 61.2351 14.1217 61.2189 14.3321C61.2027 14.5424 61.1866 14.7366 61.1704 14.9146H50.7577V12.4874H58.7189L56.9713 13.167C56.9875 12.5683 56.8742 12.0505 56.6315 11.6136C56.405 11.1767 56.0814 10.8369 55.6606 10.5942C55.2561 10.3515 54.7788 10.2301 54.2286 10.2301C53.6784 10.2301 53.193 10.3515 52.7723 10.5942C52.3677 10.8369 52.0522 11.1848 51.8257 11.6379C51.5991 12.0748 51.4859 12.5926 51.4859 13.1913V13.8952C51.4859 14.5424 51.6153 15.1007 51.8742 15.57C52.1493 16.0392 52.5376 16.4033 53.0393 16.6622C53.5409 16.9049 54.1396 17.0263 54.8354 17.0263C55.4826 17.0263 56.0328 16.9373 56.4859 16.7593C56.9551 16.5651 57.4163 16.2738 57.8694 15.8855L60.2966 18.4098C59.6655 19.1056 58.8888 19.6396 57.9665 20.0117C57.0441 20.3677 55.9519 20.5457 54.6898 20.5457ZM63.3695 20.3273V7.17184H67.7627V11.0068L67.1074 9.91458C67.4957 8.92752 68.1268 8.19127 69.0006 7.70583C69.8744 7.20421 70.9342 6.9534 72.1802 6.9534V11.1039C71.9698 11.0715 71.7838 11.0554 71.6219 11.0554C71.4763 11.0392 71.3145 11.0311 71.1365 11.0311C70.198 11.0311 69.4375 11.29 68.8549 11.8078C68.2724 12.3094 67.9811 13.1347 67.9811 14.2835V20.3273H63.3695ZM75.8354 20.5457C75.0587 20.5457 74.4034 20.2868 73.8694 19.769C73.3354 19.2512 73.0684 18.5959 73.0684 17.803C73.0684 16.9777 73.3354 16.3224 73.8694 15.8369C74.4034 15.3353 75.0587 15.0845 75.8354 15.0845C76.6121 15.0845 77.2675 15.3353 77.8014 15.8369C78.3354 16.3224 78.6024 16.9777 78.6024 17.803C78.6024 18.5959 78.3354 19.2512 77.8014 19.769C77.2675 20.2868 76.6121 20.5457 75.8354 20.5457ZM80.7676 20.3273V7.17184H85.1608V11.0068L84.5055 9.91458C84.8938 8.92752 85.5249 8.19127 86.3987 7.70583C87.2725 7.20421 88.3323 6.9534 89.5783 6.9534V11.1039C89.3679 11.0715 89.1819 11.0554 89.02 11.0554C88.8744 11.0392 88.7126 11.0311 88.5346 11.0311C87.5961 11.0311 86.8356 11.29 86.253 11.8078C85.6705 12.3094 85.3792 13.1347 85.3792 14.2835V20.3273H80.7676ZM100.049 6.9534C101.069 6.9534 101.991 7.16375 102.816 7.58447C103.642 7.989 104.289 8.62007 104.758 9.47768C105.244 10.3353 105.486 11.4437 105.486 12.8029V20.3273H100.875V13.5554C100.875 12.6169 100.68 11.9372 100.292 11.5165C99.9199 11.0796 99.3941 10.8612 98.7144 10.8612C98.229 10.8612 97.784 10.9745 97.3795 11.201C96.9749 11.4114 96.6594 11.7431 96.4329 12.1961C96.2063 12.6492 96.0931 13.2398 96.0931 13.968V20.3273H91.4814V2.31744H96.0931V10.9097L95.0251 9.81749C95.5267 8.86279 96.2144 8.15081 97.0882 7.68156C97.962 7.19612 98.9491 6.9534 100.049 6.9534ZM108.382 20.3273V7.17184H112.993V20.3273H108.382ZM110.688 5.71552C109.846 5.71552 109.167 5.48089 108.649 5.01163C108.131 4.54238 107.872 3.95985 107.872 3.26405C107.872 2.56825 108.131 1.98572 108.649 1.51647C109.167 1.04721 109.846 0.812578 110.688 0.812578C111.529 0.812578 112.209 1.03912 112.726 1.49219C113.244 1.92909 113.503 2.49544 113.503 3.19123C113.503 3.91939 113.244 4.52619 112.726 5.01163C112.225 5.48089 111.545 5.71552 110.688 5.71552ZM124.558 6.9534C125.578 6.9534 126.5 7.16375 127.325 7.58447C128.151 7.989 128.798 8.62007 129.267 9.47768C129.753 10.3353 129.995 11.4437 129.995 12.8029V20.3273H125.384V13.5554C125.384 12.6169 125.19 11.9372 124.801 11.5165C124.429 11.0796 123.903 10.8612 123.223 10.8612C122.738 10.8612 122.293 10.9745 121.889 11.201C121.484 11.4114 121.168 11.7431 120.942 12.1961C120.715 12.6492 120.602 13.2398 120.602 13.968V20.3273H115.99V7.17184H120.384V10.9097L119.534 9.81749C120.036 8.86279 120.723 8.15081 121.597 7.68156C122.471 7.19612 123.458 6.9534 124.558 6.9534ZM139.659 20.5457C138.219 20.5457 136.94 20.2545 135.824 19.6719C134.707 19.0894 133.825 18.2884 133.178 17.269C132.547 16.2334 132.231 15.0522 132.231 13.7253C132.231 12.3984 132.547 11.2253 133.178 10.2058C133.825 9.18642 134.707 8.39353 135.824 7.82719C136.94 7.24466 138.219 6.9534 139.659 6.9534C141.099 6.9534 142.377 7.24466 143.494 7.82719C144.626 8.39353 145.508 9.18642 146.139 10.2058C146.77 11.2253 147.086 12.3984 147.086 13.7253C147.086 15.0522 146.77 16.2334 146.139 17.269C145.508 18.2884 144.626 19.0894 143.494 19.6719C142.377 20.2545 141.099 20.5457 139.659 20.5457ZM139.659 16.8806C140.193 16.8806 140.662 16.7593 141.066 16.5166C141.487 16.2738 141.819 15.9179 142.062 15.4486C142.304 14.9632 142.426 14.3887 142.426 13.7253C142.426 13.0618 142.304 12.5036 142.062 12.0505C141.819 11.5813 141.487 11.2253 141.066 10.9825C140.662 10.7398 140.193 10.6185 139.659 10.6185C139.141 10.6185 138.672 10.7398 138.251 10.9825C137.846 11.2253 137.515 11.5813 137.256 12.0505C137.013 12.5036 136.892 13.0618 136.892 13.7253C136.892 14.3887 137.013 14.9632 137.256 15.4486C137.515 15.9179 137.846 16.2738 138.251 16.5166C138.672 16.7593 139.141 16.8806 139.659 16.8806Z" fill="url(#paint0_linear_608_94)"/>
<defs>
<linearGradient id="paint0_linear_608_94" x1="74" y1="-3.67273" x2="74" y2="26.3273" gradientUnits="userSpaceOnUse">
<stop offset="0.28125" stop-color="#15BFE3"/>
<stop offset="1" stop-color="#1522EC"/>
</linearGradient>
</defs>
</svg>
