<svg width="265" height="211" viewBox="0 0 265 211" fill="none" xmlns="http://www.w3.org/2000/svg">
<path d="M115.211 71.5889L118.213 70.4973C119.02 70.2039 119.879 70.0816 120.736 70.1382L147.111 71.882C148.064 71.945 148.976 72.2921 149.73 72.8783C150.392 73.3932 151.178 73.7249 152.009 73.8399L157.837 74.6469C158.321 74.7138 158.811 74.7055 159.292 74.6223L163.748 73.8511C164.312 73.7535 164.827 74.1876 164.827 74.7597C164.827 75.2319 165.184 75.6279 165.654 75.6768L174.633 76.6122C175.752 76.7286 176.772 77.3024 177.452 78.1975L177.87 78.7481C178.376 79.4138 179.164 79.8047 180.001 79.8047C181.93 79.8047 183.225 81.7849 182.452 83.5526L181.867 84.8884C181.667 85.3471 181.563 85.8423 181.563 86.343V89.9078C181.563 91.7499 181.847 93.5809 182.406 95.3363C182.964 97.0916 183.249 98.9226 183.249 100.765V103.054C183.249 103.759 183.413 104.453 183.728 105.083C183.963 105.555 184.032 106.092 183.923 106.607L183.598 108.135C183.395 109.097 182.546 109.784 181.563 109.784H172.991C168.802 109.784 164.662 110.688 160.854 112.433L161.817 121.824V124.232L141.624 129.008C135.843 130.376 129.805 130.205 124.11 128.515L109.684 124.232L106.554 104.125L102.529 103.639C97.9559 103.086 93.3176 103.468 88.896 104.761L82.9781 106.492C82.8835 106.519 82.7939 106.562 82.7128 106.618C82.103 107.04 81.27 106.604 81.27 105.862V101.914C81.27 101.343 81.5663 100.813 82.0526 100.513C82.539 100.214 82.8352 99.684 82.8352 99.113V94.0794C82.8352 92.297 83.2824 90.5432 84.1359 88.9785L87.3573 83.0725C87.7082 82.4293 87.892 81.7084 87.892 80.9757V79.3482C87.892 77.4101 89.6732 75.9618 91.5705 76.3571L92.0984 76.467C93.0422 76.6637 94.0079 76.2475 94.5132 75.4265C95.1289 74.426 96.4023 74.0545 97.4594 74.567L98.6319 75.1355C99.246 75.4332 99.9301 75.5567 100.61 75.4924L108.48 74.7479H112.511C113.41 74.7479 114.139 74.0188 114.139 73.1194C114.139 72.4346 114.568 71.8229 115.211 71.5889Z" fill="url(#paint0_linear_203_557)"/>
<path d="M19.3844 120.5C105.642 127.342 150.983 122.977 237.188 120.5L264.88 200.325C158.162 213.475 101.992 208.842 0 200.325L19.3844 120.5Z" fill="url(#paint1_linear_203_557)"/>
<path d="M0 200.084C103.934 203.545 161.953 203.52 265 200.084L262.833 208.03C164.178 211.316 102.714 211.805 2.2876 208.512L0 200.084Z" fill="#283045"/>
<path d="M183.769 113.135L182.475 109.898C182.35 109.586 182.152 109.309 181.897 109.09C181.6 108.836 181.237 108.67 180.85 108.612L176.158 107.912C174.313 107.637 172.438 107.641 170.595 107.924L166.704 108.523C165.937 108.641 165.186 108.848 164.467 109.14L163.862 109.386C162.449 109.96 161.236 110.936 160.372 112.192L161.528 126.588C161.638 127.964 162.105 129.287 162.883 130.427C163.294 131.03 163.786 131.574 164.346 132.042L168.68 135.67L179.516 143.255L190.352 149.155L197.214 152.285C197.214 153.203 197.613 154.075 198.306 154.676L198.464 154.813C198.831 155.131 199.259 155.372 199.721 155.522L201.526 156.106C202.547 156.436 203.655 156.372 204.631 155.924L205.492 155.53C205.823 155.378 206.092 155.118 206.255 154.792C206.405 154.493 206.644 154.248 206.94 154.093L207.544 153.775C208.336 153.358 208.952 152.668 209.276 151.833L209.334 151.685C209.52 151.207 209.616 150.697 209.616 150.184V149.857C209.616 149.394 209.514 148.938 209.319 148.519L208.85 147.514C208.8 147.408 208.712 147.326 208.602 147.285C208.266 147.159 208.209 146.708 208.503 146.502L208.908 146.219C208.978 146.17 209.038 146.109 209.086 146.039L209.701 145.141C210.273 144.305 210.579 143.315 210.579 142.303V141.946C210.579 141.305 210.411 140.675 210.093 140.118L209.999 139.953C209.748 139.513 209.387 139.145 208.953 138.885C208.226 138.448 207.721 137.721 207.567 136.887L207.261 135.237C207.226 135.045 207.208 134.849 207.208 134.654C207.208 134.291 207.146 133.93 207.025 133.588L206.692 132.644C206.556 132.257 206.342 131.902 206.065 131.6C205.489 130.971 204.675 130.613 203.822 130.613H203.688C203.308 130.613 202.931 130.549 202.573 130.422L201.7 130.115C201.281 129.967 200.84 129.891 200.396 129.891C199.505 129.891 198.642 130.194 197.947 130.75L197.37 131.211C197.267 131.294 197.173 131.388 197.091 131.493C196.452 132.306 195.246 132.378 194.515 131.647L194.204 131.336L191.074 128.687L187.462 126.279L187.238 126.129C185.798 125.17 184.934 123.554 184.934 121.824V119.18C184.934 117.109 184.539 115.057 183.769 113.135Z" fill="url(#paint2_linear_203_557)"/>
<path d="M114.018 46.5744L114.849 44.0831C115.772 41.3126 115.42 38.2753 113.886 35.79C113.179 34.644 112.714 33.3653 112.52 32.0328L111.931 27.9808C111.879 27.621 111.926 27.2537 112.067 26.9185C112.484 25.9279 113.61 25.4451 114.615 25.8263L115.735 26.251C116.112 26.3941 116.459 26.6066 116.759 26.8774L118.385 28.3487C118.684 28.6193 119.004 28.8664 119.341 29.0879L120.693 29.9763C122.154 30.937 124.013 31.0615 125.589 30.3046C125.901 30.155 126.228 30.0382 126.563 29.9561L129.984 29.12C130.975 28.8777 131.992 28.7552 133.013 28.7552H134.136C135.004 28.7552 135.864 28.9195 136.67 29.2393L140.296 30.6772C141.51 31.1586 142.892 30.6446 143.496 29.4869C143.744 29.0112 144.136 28.626 144.616 28.3861L148.453 26.4676L149.341 26.0236C150.294 25.5469 151.452 25.9752 151.865 26.9576C151.996 27.2672 152.039 27.6065 151.991 27.9389L151.302 32.675C151.17 33.5806 150.825 34.4419 150.296 35.1882C149.148 36.805 148.909 38.8969 149.663 40.7306L151.484 45.1627C151.87 46.1012 152.156 47.0777 152.338 48.076L153.081 52.1667C153.68 55.4612 153.544 58.8473 152.681 62.0827C152.271 63.619 151.701 65.108 150.981 66.5253L149.549 69.34C148.821 70.7733 147.929 72.1175 146.891 73.3461L146.431 73.8912C144.749 75.8825 142.648 77.4775 140.278 78.5621L138.498 79.3768C137.362 79.8968 136.127 80.1659 134.878 80.1659C133.589 80.1659 132.317 79.8798 131.153 79.3284L129.1 78.3559C127.088 77.403 125.262 76.1003 123.705 74.5086L120.761 71.4971L116.543 67.0537C114.883 65.3047 113.657 63.1902 112.964 60.8806C112.234 58.4446 112.118 55.8654 112.628 53.3737L114.018 46.5744Z" fill="url(#paint3_linear_203_557)"/>
<path d="M82.8345 113.956V106.293L82.9655 106.218C86.2127 104.362 89.8152 103.213 93.5371 102.846C95.4663 102.656 97.4106 102.678 99.3351 102.911L103.402 103.403L105.951 100.513L111.044 95.4967C113.019 93.5509 115.225 91.8539 117.612 90.4433L121.964 87.8715L129.188 84.3799C130.733 83.6444 131.717 82.0862 131.717 80.3755V80.0455V79.2396C131.717 78.0448 132.113 76.8838 132.844 75.9384C133.445 75.1596 134.249 74.5601 135.167 74.2048L135.606 74.0346C136.823 73.5635 138.171 73.5563 139.393 74.0146L140.187 74.3122C140.934 74.5923 141.547 75.1443 141.904 75.8577C142.383 76.8172 142.344 77.9545 141.798 78.8781L141.139 79.9935C141.118 80.0281 141.095 80.0606 141.068 80.0906L140.945 80.2292C140.635 80.5779 140.882 81.1291 141.349 81.1291L143.804 80.8563C145.001 80.7233 146.2 81.0993 147.106 81.8926L147.279 82.0435C148.101 82.7631 148.573 83.8027 148.573 84.8954V85.5858C148.573 85.8209 148.509 86.0516 148.388 86.2532C148.074 86.7762 148.167 87.4471 148.611 87.8651L149.183 88.4029C149.639 88.8321 149.897 89.4306 149.897 90.0568V90.9869C149.897 91.5468 149.735 92.0948 149.431 92.5648L148.747 93.6218C148.638 93.79 148.452 93.8915 148.252 93.8915C147.802 93.8915 147.517 94.375 147.736 94.7685L147.771 94.8317C147.823 94.9257 147.85 95.0315 147.85 95.1391V97.7043C147.85 98.2826 147.698 98.8506 147.408 99.351C146.857 100.303 145.866 100.916 144.769 100.984L143.769 101.047C143.053 101.092 142.338 100.935 141.707 100.595L141.314 100.384C141.178 100.31 141.055 100.214 140.953 100.098L140.501 99.5897C140.3 99.3633 139.958 99.3289 139.716 99.5107C139.681 99.537 139.643 99.5592 139.603 99.577L138.049 100.268C137.682 100.431 137.295 100.545 136.898 100.608C135.808 100.78 134.816 101.338 134.103 102.181L125.042 112.89C123 115.303 120.632 117.419 118.007 119.178L109.924 124.593L106.814 126.473C105.049 127.539 103.107 128.278 101.079 128.654L100.268 128.805C97.3073 129.355 94.2489 128.972 91.5146 127.711C89.1428 126.616 87.1095 124.903 85.6282 122.751L85.5214 122.596C83.7714 120.055 82.8345 117.042 82.8345 113.956Z" fill="url(#paint4_linear_203_557)"/>
<path d="M115.945 105.811C111.833 102.544 110.77 100.297 110.647 95.6975V93.364C110.647 91.98 111.6 90.7779 112.947 90.4609V90.4609C114.046 90.2021 115.198 90.5869 115.921 91.4547L115.945 91.4835" stroke="black" stroke-width="0.453656"/>
<path d="M123.65 101.477C119.538 98.2092 118.475 95.9624 118.353 91.3631V89.0296C118.353 87.6456 119.305 86.4435 120.652 86.1265V86.1265C121.752 85.8678 122.903 86.2525 123.626 87.1203L123.65 87.1491" stroke="black" stroke-width="0.453656"/>
<path d="M120.038 103.403C115.926 100.136 114.863 97.8888 114.741 93.2895V90.956C114.741 89.572 115.693 88.3698 117.04 88.0529V88.0529C118.14 87.7941 119.291 88.1789 120.014 89.0467L120.038 89.0755" stroke="black" stroke-width="0.453656"/>
<path d="M185.776 127.844L189.045 126.579C189.351 126.461 189.678 126.407 190.006 126.421L190.905 126.46C191.673 126.493 192.278 127.126 192.278 127.894V127.894C192.278 128.32 192.089 128.724 191.761 128.997L191.556 129.169" stroke="black" stroke-width="0.453656"/>
<path d="M183.369 126.159L186.637 124.893C186.943 124.775 187.27 124.721 187.598 124.735L188.497 124.775C189.265 124.808 189.87 125.44 189.87 126.209V126.209C189.87 126.635 189.681 127.039 189.354 127.311L189.148 127.483" stroke="black" stroke-width="0.453656"/>
<path d="M187.703 129.53L190.972 128.265C191.278 128.146 191.605 128.092 191.932 128.107L192.832 128.146C193.599 128.179 194.205 128.811 194.205 129.58V129.58C194.205 130.006 194.015 130.41 193.688 130.683L193.482 130.854" stroke="black" stroke-width="0.453656"/>
<path d="M134.245 43.5644C138.073 51.2782 139.341 52.3503 141.108 60.6611C136.223 67.1081 134.003 66.6908 127.623 60.6611C129.789 52.6848 130.695 51.6255 134.245 43.5644Z" fill="white"/>
<rect x="120.76" y="45.25" width="5.77919" height="9.15039" rx="2.8896" fill="black"/>
<rect x="140.796" y="45.072" width="5.77919" height="9.15039" rx="2.8896" transform="rotate(-5.59626 140.796 45.072)" fill="black"/>
<path d="M125.104 49.962L127.263 48.5942L127.279 51.3052L125.104 49.962Z" fill="#C4C4C4"/>
<path d="M145.332 49.2925L147.44 47.8466L147.554 50.5552L145.332 49.2925Z" fill="#C4C4C4"/>
<ellipse cx="143.757" cy="45.1296" rx="3.73239" ry="2.5284" fill="#C4C4C4"/>
<path d="M123.659 56.8291L120.524 55.5828L123.659 56.2064L126.78 55.5469L123.659 56.8291Z" fill="black"/>
<path d="M123.74 58.0827L121.964 56.8286L123.738 57.46L125.502 56.8084L123.74 58.0827Z" fill="black"/>
<path d="M144.363 56.1641L141.228 54.9178L144.363 55.5414L147.484 54.882L144.363 56.1641Z" fill="black"/>
<path d="M144.444 57.4177L142.668 56.1637L144.442 56.795L146.206 56.1434L144.444 57.4177Z" fill="black"/>
<g filter="url(#filter0_d_203_557)">
<path d="M89.5542 123.027L167.825 124.083L166.159 171.612L90.5947 168.964L89.5542 123.027Z" fill="url(#paint5_linear_203_557)"/>
<path d="M90.6709 122.102L166.776 123.083L167.825 124.083L89.5542 123.027L90.6709 122.102Z" fill="black"/>
<path d="M105.007 133.684L129.454 144.575L155.127 136.72L150.57 149.285L141.407 157.179L150.004 161.553L128.838 157.925L106.706 159.555L114.707 155.947L107.272 147.288L105.007 133.684Z" fill="black"/>
<path d="M112.26 186.738L93.525 191.489C92.8136 191.67 92.3066 192.298 92.2809 193.032C92.249 193.943 92.9618 194.707 93.873 194.739L99.6833 194.943L114.19 193.524L127.099 193.012L140.695 193.489L159.32 194.142C159.897 194.162 160.473 194.111 161.038 193.991L162.212 193.741C162.478 193.684 162.727 193.568 162.942 193.402L163.118 193.266C163.691 192.821 163.873 192.035 163.555 191.383C163.334 190.932 162.907 190.618 162.41 190.543L153.975 189.256L144.776 186.717C143.91 186.478 143.065 186.169 142.249 185.793C137.499 183.605 134.06 179.303 132.97 174.188L132.875 173.741C132.576 172.342 132.451 170.911 132.501 169.482L132.706 163.644C132.842 159.77 135.167 156.309 138.703 154.719C140.137 154.075 141.403 153.107 142.4 151.891L144.207 149.687C144.423 149.423 144.599 149.129 144.729 148.813L145.346 147.311C145.636 146.604 145.367 145.791 144.713 145.397C144.128 145.045 143.38 145.118 142.874 145.577L140.001 148.185C139.339 148.786 138.565 149.249 137.723 149.549L136 150.162C134.112 150.834 132.114 151.143 130.112 151.073L127.037 150.965C124.098 150.862 121.234 150.005 118.722 148.476L116.338 147.026C116.003 146.822 115.711 146.554 115.478 146.238L114.411 144.789C113.991 144.219 113.184 144.107 112.625 144.54C112.33 144.769 112.152 145.118 112.139 145.491L112.1 146.588C112.065 147.585 112.445 148.551 113.149 149.258L114.956 151.071C115.419 151.536 115.93 151.952 116.48 152.312L119.54 154.316C121.987 155.997 123.539 158.72 123.622 161.688C123.776 167.219 123.544 171.381 122.73 175.995C122.063 179.778 119.636 182.982 116.367 184.999C115.095 185.784 113.71 186.371 112.26 186.738Z" fill="url(#paint6_linear_203_557)"/>
</g>
<g filter="url(#filter1_d_203_557)">
<path d="M41.3696 165.296L60.9733 142.135L88.0848 164.409L88.0848 166.697L70.1452 186.924L67.7372 186.924L41.3696 165.296Z" fill="#929292"/>
<path d="M39.9248 162.406L59.5285 139.246L88.1648 164.409L69.0212 185.479L39.9248 162.406Z" fill="#A8A8A8"/>
<path d="M39.9248 162.406L57.7212 141.381L83.7174 164.224L66.3387 183.352L39.9248 162.406Z" fill="url(#paint7_linear_203_557)"/>
<path d="M22.4667 111.072L26.4399 111.433C43.3909 124.87 52.0282 130.852 71.4695 145.627C67.8201 160.76 68.1195 171.37 69.9042 186.804L67.7371 189.693L22.4667 111.072Z" fill="url(#paint8_linear_203_557)"/>
<path d="M22.6352 110.988L67.9055 146.627C64.1846 161.921 65.48 172.897 67.9055 189.609L17.458 156.018C17.904 136.967 18.9523 127.151 22.6352 110.988Z" fill="url(#paint9_linear_203_557)"/>
<path fill-rule="evenodd" clip-rule="evenodd" d="M40.1439 143.949C40.1665 143.882 40.2345 143.84 40.3036 143.854C40.3364 143.861 40.3659 143.879 40.3852 143.906C40.5965 144.204 40.6661 144.537 40.6433 145.277C40.6399 145.386 40.6303 145.495 40.6114 145.602C41.0211 145.53 41.3907 145.499 41.7389 145.514L42.1872 145.416C42.5592 145.391 42.7032 145.413 42.8567 145.51L43.4594 146.018L43.4578 146.018C43.7193 146.163 43.9877 146.34 44.2723 146.551C44.785 145.843 45.7174 145.941 45.4978 146.87C45.4009 147.337 45.224 147.7 45.0183 147.938C44.7952 148.196 44.5224 148.114 44.3246 147.885L44.2731 148.146C44.6197 149.981 44.6561 151.486 43.9568 154.33L43.9406 154.33C43.8451 154.531 43.5866 154.748 43.0675 155.082C41.1242 156.089 40.0759 155.985 38.2784 154.637L38.6286 153.51C38.4234 153.459 38.2411 153.409 38.0782 153.358C38.0281 153.342 37.9806 153.324 37.9357 153.305C37.1272 153.143 36.9332 153.058 36.8961 152.928C36.7685 152.788 36.7517 152.625 36.775 152.253L37.262 152.349C37.2099 151.563 37.7445 150.513 38.3148 149.716C38.783 149.061 39.1214 148.336 39.4452 147.362C39.4533 147.338 39.464 147.314 39.4771 147.293C39.4697 147.288 39.4672 147.284 39.4699 147.28C39.4982 147.242 39.4994 147.159 39.5013 147.031C39.5041 146.839 39.5084 146.546 39.6082 146.15C39.2591 145.547 39.4365 145.261 39.7052 144.828C39.8473 144.599 40.015 144.329 40.1439 143.949Z" fill="white"/>
<path d="M39.3247 147.251C39.298 147.262 39.4716 147.965 39.7094 147.992C39.9472 148.019 39.9144 148.402 39.9144 148.402C39.6839 148.783 39.3355 148.599 39.2695 148.151C39.1979 147.781 39.2136 147.585 39.3247 147.251Z" fill="white"/>
<path d="M38.0703 146.764C38.3525 147.844 38.6058 148.427 39.6609 149.352C39.7727 149.893 39.7107 150.332 39.5085 150.654C38.9454 151.309 37.0581 151.466 37.0633 149.363C37.1446 148.133 37.4092 147.561 38.0703 146.764Z" fill="white"/>
<path d="M43.0851 150.212L43.0361 150.407C43.0121 150.503 42.9528 150.587 42.8713 150.642C42.8242 150.674 42.7702 150.696 42.7141 150.706C42.6205 150.721 42.5245 150.703 42.4435 150.654L42.4061 150.631C42.3366 150.588 42.2796 150.529 42.2405 150.457C42.2021 150.387 42.1825 150.308 42.1835 150.229L42.1856 150.051C42.1867 149.962 42.1982 149.874 42.2198 149.788L42.313 149.416C42.3268 149.362 42.3482 149.309 42.3768 149.261L42.4335 149.164C42.4846 149.078 42.5709 149.018 42.67 149C42.7639 148.983 42.8607 149.005 42.9374 149.062L42.9598 149.079C43.0401 149.138 43.096 149.225 43.1168 149.323L43.1403 149.433C43.1557 149.506 43.1597 149.58 43.1522 149.653L43.1082 150.08C43.1037 150.125 43.0959 150.169 43.0851 150.212Z" fill="#E5E5E5"/>
<path d="M42.6855 149.916L43.3373 149.775L43.2891 150.2L42.6855 149.916Z" fill="white"/>
</g>
<g filter="url(#filter2_d_203_557)">
<path d="M207.283 135.399C207.37 132.355 209.359 129.632 212.324 128.935C217.143 127.801 221.135 127.768 226.351 129.038C229.098 129.707 231.031 132.129 231.299 134.944C232.083 143.173 232.077 149.213 231.294 157.445C231.028 160.25 229.112 162.665 226.385 163.372C220.794 164.821 216.592 164.774 211.268 162.636C208.849 161.665 207.385 159.248 207.305 156.643C207.065 148.822 207.062 143.073 207.283 135.399Z" fill="url(#paint10_linear_203_557)"/>
<path d="M204.053 151.812C205.143 151.962 206.564 152.095 207.854 152.198C209.539 152.331 210.774 153.999 210.355 155.636C210.062 156.782 209.03 157.583 207.847 157.583H205.369C204.832 157.583 204.298 157.508 203.781 157.361L201.867 156.814C200.303 156.367 198.828 155.652 197.508 154.7L197.144 154.438C195.3 153.109 193.856 151.3 192.966 149.208L192.885 149.017C192.483 148.07 192.216 147.071 192.091 146.05C191.821 143.838 192.231 141.596 193.265 139.622L193.505 139.164C194.047 138.128 194.779 137.204 195.662 136.438C197.142 135.156 198.986 134.371 200.936 134.194L203.788 133.934C204.301 133.888 204.817 133.898 205.328 133.965L207.913 134.305C208.673 134.405 209.33 134.889 209.651 135.585C209.787 135.879 209.857 136.199 209.857 136.523V136.747C209.857 138.546 208.399 140.005 206.599 140.005H205.884H204.86C202.883 140.005 200.976 140.733 199.503 142.051L198.572 143.126C198.154 143.608 197.845 144.175 197.668 144.787C197.174 146.487 197.743 148.317 199.113 149.438L199.139 149.46C199.381 149.657 199.643 149.829 199.92 149.972L202.498 151.303C202.987 151.555 203.508 151.736 204.053 151.812Z" fill="url(#paint11_linear_203_557)"/>
<g filter="url(#filter3_d_203_557)">
<path d="M198.186 140.144C198.385 138.374 199.925 137.063 201.704 137.151L206.84 137.406C208.922 137.509 210.474 139.362 210.211 141.429C209.96 143.391 208.166 144.777 206.205 144.523L201.105 143.864C199.28 143.628 197.981 141.972 198.186 140.144Z" fill="#C4C4C4"/>
</g>
<g filter="url(#filter4_d_203_557)">
<path d="M197.061 148.732C197.527 147.032 199.275 146.023 200.98 146.47L206.275 147.859C208.083 148.333 209.165 150.183 208.69 151.991C208.196 153.878 206.212 154.957 204.359 154.348L199.159 152.639C197.531 152.104 196.608 150.385 197.061 148.732Z" fill="#C4C4C4"/>
</g>
<g filter="url(#filter5_d_203_557)">
<path d="M195.619 144.286C195.865 142.379 197.598 141.024 199.508 141.243L208.8 142.311C210.5 142.506 211.783 143.945 211.783 145.656C211.783 146.059 211.711 146.459 211.569 146.836L211.54 146.914C210.918 148.576 209.232 149.591 207.471 149.364L198.655 148.224C196.729 147.975 195.37 146.212 195.619 144.286Z" fill="#C4C4C4"/>
</g>
<ellipse cx="219.368" cy="131.938" rx="9.27079" ry="2.408" fill="url(#paint12_linear_203_557)"/>
<path fill-rule="evenodd" clip-rule="evenodd" d="M220.797 140.494C220.817 140.401 220.902 140.335 220.997 140.343C221.042 140.347 221.084 140.367 221.114 140.401C221.456 140.784 221.598 141.242 221.676 142.325C221.684 142.431 221.686 142.537 221.68 142.643C222.217 142.486 222.706 142.39 223.174 142.357L223.762 142.158C224.258 142.069 224.455 142.077 224.675 142.185L225.561 142.777L225.56 142.776C225.933 142.931 226.32 143.128 226.734 143.369C227.316 142.342 228.583 142.334 228.428 143.614C228.368 144.256 228.185 144.771 227.944 145.121C227.683 145.501 227.305 145.432 227.005 145.154L226.975 145.513C227.716 147.926 227.991 149.942 227.479 153.867L227.457 153.87C227.359 154.154 227.044 154.485 226.397 155.011C223.938 156.656 222.514 156.674 219.897 155.133L220.198 153.566C219.808 153.514 219.476 153.459 219.19 153.391C218.118 153.296 217.851 153.211 217.783 153.044C217.59 152.876 217.543 152.66 217.519 152.156L217.782 152.178C217.639 151.303 218.146 150.126 218.732 149.276C219.545 148.096 220.004 146.909 220.371 145.184C220.378 145.15 220.389 145.118 220.403 145.087C220.393 145.081 220.389 145.076 220.392 145.071C220.425 145.015 220.414 144.904 220.397 144.732C220.372 144.474 220.334 144.079 220.408 143.532C219.848 142.775 220.043 142.364 220.339 141.742C220.496 141.413 220.681 141.024 220.797 140.494Z" fill="url(#paint13_linear_203_557)"/>
<path d="M220.192 145.054C220.157 145.073 220.496 145.991 220.82 145.991C221.143 145.991 221.157 146.511 221.157 146.511C220.904 147.057 220.409 146.863 220.253 146.271C220.101 145.785 220.092 145.519 220.192 145.054Z" fill="url(#paint14_linear_203_557)"/>
<path d="M218.434 144.588C218.975 145.997 219.403 146.742 220.96 147.826C221.191 148.535 221.174 149.134 220.95 149.597C220.292 150.563 217.78 151.056 217.471 148.23C217.396 146.567 217.665 145.758 218.434 144.588Z" fill="url(#paint15_linear_203_557)"/>
<path d="M225.688 148.466L225.652 148.736C225.634 148.868 225.567 148.99 225.466 149.077C225.407 149.127 225.338 149.164 225.264 149.185C225.141 149.221 225.009 149.21 224.893 149.156L224.839 149.131C224.739 149.084 224.654 149.013 224.59 148.923C224.528 148.834 224.49 148.731 224.479 148.624L224.456 148.386C224.444 148.266 224.446 148.145 224.462 148.026L224.531 147.514C224.542 147.438 224.563 147.365 224.594 147.295L224.655 147.157C224.711 147.033 224.818 146.939 224.948 146.9C225.072 146.863 225.205 146.879 225.317 146.944L225.35 146.963C225.466 147.031 225.554 147.139 225.597 147.267L225.645 147.412C225.677 147.507 225.693 147.606 225.694 147.706L225.699 148.286C225.7 148.346 225.696 148.407 225.688 148.466Z" fill="white"/>
<path d="M225.107 148.129L225.961 147.841L225.96 148.42L225.107 148.129Z" fill="url(#paint16_linear_203_557)"/>
</g>
<g filter="url(#filter6_d_203_557)">
<path d="M86.5193 134.787C87.7535 137.095 87.2354 139.537 83.9516 141.293C80.6679 143.049 77.3599 143.601 76.1257 141.293C74.8915 138.985 75.7315 135.343 79.0152 133.587C82.299 131.831 85.2851 132.479 86.5193 134.787Z" fill="#262626"/>
<path d="M78.9029 135.448L77.8598 135.537C77.1491 135.598 76.5109 135.996 76.1439 136.608C76.0522 136.761 75.9792 136.924 75.9265 137.095L75.7453 137.68C75.5209 138.405 75.4733 139.174 75.6065 139.922L75.6601 140.222C75.7294 140.612 75.8714 140.984 76.0785 141.321C76.496 141.999 77.1552 142.494 77.9233 142.706L78.1094 142.758C78.6367 142.903 79.1899 142.928 79.728 142.83L81.1251 142.576C81.3582 142.534 81.5844 142.46 81.797 142.355L82.7445 141.89C83.1774 141.678 83.4243 141.21 83.3559 140.733C83.3471 140.671 83.3331 140.611 83.3141 140.551L83.028 139.658C82.8417 139.076 82.6123 138.509 82.3416 137.961L81.9054 137.079C81.3211 135.983 80.14 135.342 78.9029 135.448Z" fill="#363636"/>
<ellipse cx="79.7023" cy="135.621" rx="0.481599" ry="0.963199" transform="rotate(32.908 79.7023 135.621)" fill="black"/>
</g>
<g filter="url(#filter7_d_203_557)">
<path d="M196.448 170.181L210.786 196.337L184.669 196.337L173.374 170.181L196.448 170.181Z" fill="#13285F"/>
<path d="M193.964 168.93L200.401 165.65L213.951 191.295C214.133 193.692 213.438 194.804 210.7 196.352L193.964 168.93Z" fill="#10265E"/>
<g filter="url(#filter8_d_203_557)">
<path d="M197.411 168.495L211.749 194.651L185.632 194.651L174.338 168.495L197.411 168.495Z" fill="white"/>
</g>
<g filter="url(#filter9_d_203_557)">
<path d="M197.893 167.532L212.231 193.688L186.114 193.688L174.82 167.532L197.893 167.532Z" fill="white"/>
</g>
<g filter="url(#filter10_d_203_557)">
<path d="M198.615 166.81L212.953 192.966L186.836 192.966L175.542 166.81L198.615 166.81Z" fill="white"/>
</g>
<g filter="url(#filter11_d_203_557)">
<path d="M199.097 165.606L213.435 191.762L187.317 191.762L176.023 165.606L199.097 165.606Z" fill="white"/>
</g>
<path d="M199.579 165.124L213.917 191.28L187.799 191.28L176.505 165.124L199.579 165.124Z" fill="#1E377A"/>
</g>
<path fill-rule="evenodd" clip-rule="evenodd" d="M237.975 37.1334L229.253 25.6228L220.53 37.1334H224.457V80.2981H233.569V37.1334H237.975ZM220.14 46.246H211.028V80.2981H220.14V46.246ZM206.711 59.1954H197.599V80.2981H206.711V59.1954Z" fill="white"/>
<path d="M103.95 2.65845L108.078 1.13513L112.365 14.657C111.692 14.6923 110.952 14.8646 110.006 15.6889L103.95 2.65845Z" fill="white"/>
<circle cx="112.201" cy="17.5081" r="1.7871" transform="rotate(9.62468 112.201 17.5081)" fill="white"/>
<path d="M98.4468 17.3194L100.67 15.0858L107.529 22.5791C107.103 22.8046 106.674 23.1396 106.308 23.9601L98.4468 17.3194Z" fill="white"/>
<circle cx="108.282" cy="24.4807" r="1.27988" transform="rotate(-15.259 108.282 24.4807)" fill="white"/>
<defs>
<filter id="filter0_d_203_557" x="84.564" y="120.741" width="88.2514" height="82.8215" filterUnits="userSpaceOnUse" color-interpolation-filters="sRGB">
<feFlood flood-opacity="0" result="BackgroundImageFix"/>
<feColorMatrix in="SourceAlpha" type="matrix" values="0 0 0 0 0 0 0 0 0 0 0 0 0 0 0 0 0 0 127 0" result="hardAlpha"/>
<feOffset dy="3.62925"/>
<feGaussianBlur stdDeviation="2.49511"/>
<feComposite in2="hardAlpha" operator="out"/>
<feColorMatrix type="matrix" values="0 0 0 0 0 0 0 0 0 0 0 0 0 0 0 0 0 0 0.2 0"/>
<feBlend mode="normal" in2="BackgroundImageFix" result="effect1_dropShadow_203_557"/>
<feBlend mode="normal" in="SourceGraphic" in2="effect1_dropShadow_203_557" result="shape"/>
</filter>
<filter id="filter1_d_203_557" x="10.6532" y="105.998" width="84.3167" height="92.3146" filterUnits="userSpaceOnUse" color-interpolation-filters="sRGB">
<feFlood flood-opacity="0" result="BackgroundImageFix"/>
<feColorMatrix in="SourceAlpha" type="matrix" values="0 0 0 0 0 0 0 0 0 0 0 0 0 0 0 0 0 0 127 0" result="hardAlpha"/>
<feOffset dy="1.81462"/>
<feGaussianBlur stdDeviation="3.40242"/>
<feComposite in2="hardAlpha" operator="out"/>
<feColorMatrix type="matrix" values="0 0 0 0 0 0 0 0 0 0 0 0 0 0 0 0 0 0 0.19 0"/>
<feBlend mode="normal" in2="BackgroundImageFix" result="effect1_dropShadow_203_557"/>
<feBlend mode="normal" in="SourceGraphic" in2="effect1_dropShadow_203_557" result="shape"/>
</filter>
<filter id="filter2_d_203_557" x="183.391" y="128.085" width="57.113" height="53.9727" filterUnits="userSpaceOnUse" color-interpolation-filters="sRGB">
<feFlood flood-opacity="0" result="BackgroundImageFix"/>
<feColorMatrix in="SourceAlpha" type="matrix" values="0 0 0 0 0 0 0 0 0 0 0 0 0 0 0 0 0 0 127 0" result="hardAlpha"/>
<feOffset dy="9.07312"/>
<feGaussianBlur stdDeviation="4.30973"/>
<feComposite in2="hardAlpha" operator="out"/>
<feColorMatrix type="matrix" values="0 0 0 0 0 0 0 0 0 0 0 0 0 0 0 0 0 0 0.1 0"/>
<feBlend mode="normal" in2="BackgroundImageFix" result="effect1_dropShadow_203_557"/>
<feBlend mode="normal" in="SourceGraphic" in2="effect1_dropShadow_203_557" result="shape"/>
</filter>
<filter id="filter3_d_203_557" x="192.721" y="133.518" width="22.9625" height="18.2938" filterUnits="userSpaceOnUse" color-interpolation-filters="sRGB">
<feFlood flood-opacity="0" result="BackgroundImageFix"/>
<feColorMatrix in="SourceAlpha" type="matrix" values="0 0 0 0 0 0 0 0 0 0 0 0 0 0 0 0 0 0 127 0" result="hardAlpha"/>
<feOffset dy="1.81462"/>
<feGaussianBlur stdDeviation="2.72194"/>
<feComposite in2="hardAlpha" operator="out"/>
<feColorMatrix type="matrix" values="0 0 0 0 0 0 0 0 0 0 0 0 0 0 0 0 0 0 0.25 0"/>
<feBlend mode="normal" in2="BackgroundImageFix" result="effect1_dropShadow_203_557"/>
<feBlend mode="normal" in="SourceGraphic" in2="effect1_dropShadow_203_557" result="shape"/>
</filter>
<filter id="filter4_d_203_557" x="191.502" y="142.735" width="22.7437" height="19.0421" filterUnits="userSpaceOnUse" color-interpolation-filters="sRGB">
<feFlood flood-opacity="0" result="BackgroundImageFix"/>
<feColorMatrix in="SourceAlpha" type="matrix" values="0 0 0 0 0 0 0 0 0 0 0 0 0 0 0 0 0 0 127 0" result="hardAlpha"/>
<feOffset dy="1.81462"/>
<feGaussianBlur stdDeviation="2.72194"/>
<feComposite in2="hardAlpha" operator="out"/>
<feColorMatrix type="matrix" values="0 0 0 0 0 0 0 0 0 0 0 0 0 0 0 0 0 0 0.25 0"/>
<feBlend mode="normal" in2="BackgroundImageFix" result="effect1_dropShadow_203_557"/>
<feBlend mode="normal" in="SourceGraphic" in2="effect1_dropShadow_203_557" result="shape"/>
</filter>
<filter id="filter5_d_203_557" x="190.145" y="137.591" width="27.0816" height="19.0635" filterUnits="userSpaceOnUse" color-interpolation-filters="sRGB">
<feFlood flood-opacity="0" result="BackgroundImageFix"/>
<feColorMatrix in="SourceAlpha" type="matrix" values="0 0 0 0 0 0 0 0 0 0 0 0 0 0 0 0 0 0 127 0" result="hardAlpha"/>
<feOffset dy="1.81462"/>
<feGaussianBlur stdDeviation="2.72194"/>
<feComposite in2="hardAlpha" operator="out"/>
<feColorMatrix type="matrix" values="0 0 0 0 0 0 0 0 0 0 0 0 0 0 0 0 0 0 0.25 0"/>
<feBlend mode="normal" in2="BackgroundImageFix" result="effect1_dropShadow_203_557"/>
<feBlend mode="normal" in="SourceGraphic" in2="effect1_dropShadow_203_557" result="shape"/>
</filter>
<filter id="filter6_d_203_557" x="71.9035" y="130.771" width="18.8586" height="17.5615" filterUnits="userSpaceOnUse" color-interpolation-filters="sRGB">
<feFlood flood-opacity="0" result="BackgroundImageFix"/>
<feColorMatrix in="SourceAlpha" type="matrix" values="0 0 0 0 0 0 0 0 0 0 0 0 0 0 0 0 0 0 127 0" result="hardAlpha"/>
<feOffset dy="1.81462"/>
<feGaussianBlur stdDeviation="1.81462"/>
<feComposite in2="hardAlpha" operator="out"/>
<feColorMatrix type="matrix" values="0 0 0 0 0 0 0 0 0 0 0 0 0 0 0 0 0 0 0.25 0"/>
<feBlend mode="normal" in2="BackgroundImageFix" result="effect1_dropShadow_203_557"/>
<feBlend mode="normal" in="SourceGraphic" in2="effect1_dropShadow_203_557" result="shape"/>
</filter>
<filter id="filter7_d_203_557" x="169.745" y="163.309" width="47.862" height="38.4862" filterUnits="userSpaceOnUse" color-interpolation-filters="sRGB">
<feFlood flood-opacity="0" result="BackgroundImageFix"/>
<feColorMatrix in="SourceAlpha" type="matrix" values="0 0 0 0 0 0 0 0 0 0 0 0 0 0 0 0 0 0 127 0" result="hardAlpha"/>
<feOffset dy="1.81462"/>
<feGaussianBlur stdDeviation="1.81462"/>
<feComposite in2="hardAlpha" operator="out"/>
<feColorMatrix type="matrix" values="0 0 0 0 0 0 0 0 0 0 0 0 0 0 0 0 0 0 0.3 0"/>
<feBlend mode="normal" in2="BackgroundImageFix" result="effect1_dropShadow_203_557"/>
<feBlend mode="normal" in="SourceGraphic" in2="effect1_dropShadow_203_557" result="shape"/>
</filter>
<filter id="filter8_d_203_557" x="172.523" y="168.495" width="41.0404" height="29.7854" filterUnits="userSpaceOnUse" color-interpolation-filters="sRGB">
<feFlood flood-opacity="0" result="BackgroundImageFix"/>
<feColorMatrix in="SourceAlpha" type="matrix" values="0 0 0 0 0 0 0 0 0 0 0 0 0 0 0 0 0 0 127 0" result="hardAlpha"/>
<feOffset dy="1.81462"/>
<feGaussianBlur stdDeviation="0.907312"/>
<feComposite in2="hardAlpha" operator="out"/>
<feColorMatrix type="matrix" values="0 0 0 0 0 0 0 0 0 0 0 0 0 0 0 0 0 0 0.25 0"/>
<feBlend mode="normal" in2="BackgroundImageFix" result="effect1_dropShadow_203_557"/>
<feBlend mode="normal" in="SourceGraphic" in2="effect1_dropShadow_203_557" result="shape"/>
</filter>
<filter id="filter9_d_203_557" x="173.005" y="167.532" width="41.0404" height="29.7854" filterUnits="userSpaceOnUse" color-interpolation-filters="sRGB">
<feFlood flood-opacity="0" result="BackgroundImageFix"/>
<feColorMatrix in="SourceAlpha" type="matrix" values="0 0 0 0 0 0 0 0 0 0 0 0 0 0 0 0 0 0 127 0" result="hardAlpha"/>
<feOffset dy="1.81462"/>
<feGaussianBlur stdDeviation="0.907312"/>
<feComposite in2="hardAlpha" operator="out"/>
<feColorMatrix type="matrix" values="0 0 0 0 0 0 0 0 0 0 0 0 0 0 0 0 0 0 0.25 0"/>
<feBlend mode="normal" in2="BackgroundImageFix" result="effect1_dropShadow_203_557"/>
<feBlend mode="normal" in="SourceGraphic" in2="effect1_dropShadow_203_557" result="shape"/>
</filter>
<filter id="filter10_d_203_557" x="173.727" y="166.81" width="41.0404" height="29.7854" filterUnits="userSpaceOnUse" color-interpolation-filters="sRGB">
<feFlood flood-opacity="0" result="BackgroundImageFix"/>
<feColorMatrix in="SourceAlpha" type="matrix" values="0 0 0 0 0 0 0 0 0 0 0 0 0 0 0 0 0 0 127 0" result="hardAlpha"/>
<feOffset dy="1.81462"/>
<feGaussianBlur stdDeviation="0.907312"/>
<feComposite in2="hardAlpha" operator="out"/>
<feColorMatrix type="matrix" values="0 0 0 0 0 0 0 0 0 0 0 0 0 0 0 0 0 0 0.25 0"/>
<feBlend mode="normal" in2="BackgroundImageFix" result="effect1_dropShadow_203_557"/>
<feBlend mode="normal" in="SourceGraphic" in2="effect1_dropShadow_203_557" result="shape"/>
</filter>
<filter id="filter11_d_203_557" x="174.209" y="165.606" width="41.0404" height="29.7854" filterUnits="userSpaceOnUse" color-interpolation-filters="sRGB">
<feFlood flood-opacity="0" result="BackgroundImageFix"/>
<feColorMatrix in="SourceAlpha" type="matrix" values="0 0 0 0 0 0 0 0 0 0 0 0 0 0 0 0 0 0 127 0" result="hardAlpha"/>
<feOffset dy="1.81462"/>
<feGaussianBlur stdDeviation="0.907312"/>
<feComposite in2="hardAlpha" operator="out"/>
<feColorMatrix type="matrix" values="0 0 0 0 0 0 0 0 0 0 0 0 0 0 0 0 0 0 0.25 0"/>
<feBlend mode="normal" in2="BackgroundImageFix" result="effect1_dropShadow_203_557"/>
<feBlend mode="normal" in="SourceGraphic" in2="effect1_dropShadow_203_557" result="shape"/>
</filter>
<linearGradient id="paint0_linear_203_557" x1="132.681" y1="70.0523" x2="132.56" y2="134.707" gradientUnits="userSpaceOnUse">
<stop stop-color="#2B5FE6"/>
<stop offset="1" stop-color="#0F1D3F"/>
</linearGradient>
<linearGradient id="paint1_linear_203_557" x1="132.44" y1="120.5" x2="132.319" y2="217.181" gradientUnits="userSpaceOnUse">
<stop stop-color="#5E6679"/>
<stop offset="1" stop-color="#3E4555"/>
</linearGradient>
<linearGradient id="paint2_linear_203_557" x1="179.034" y1="132.179" x2="171.088" y2="103.764" gradientUnits="userSpaceOnUse">
<stop stop-color="#C4C4C4"/>
<stop offset="1" stop-color="#949494"/>
</linearGradient>
<linearGradient id="paint3_linear_203_557" x1="132.801" y1="62.7079" x2="132.801" y2="80.1659" gradientUnits="userSpaceOnUse">
<stop stop-color="#C4C4C4"/>
<stop offset="1" stop-color="#929292"/>
</linearGradient>
<linearGradient id="paint4_linear_203_557" x1="116.426" y1="95.6975" x2="55.7445" y2="91.0019" gradientUnits="userSpaceOnUse">
<stop stop-color="#C4C4C4"/>
<stop offset="1" stop-color="#777777"/>
</linearGradient>
<linearGradient id="paint5_linear_203_557" x1="127.985" y1="149.637" x2="127.985" y2="198.158" gradientUnits="userSpaceOnUse">
<stop stop-color="#2B2B2B"/>
<stop offset="1" stop-color="#040404"/>
</linearGradient>
<linearGradient id="paint6_linear_203_557" x1="128.948" y1="177.931" x2="128.948" y2="189.368" gradientUnits="userSpaceOnUse">
<stop stop-color="#4B4B4B"/>
<stop offset="1" stop-color="#2E2E2E"/>
</linearGradient>
<linearGradient id="paint7_linear_203_557" x1="67.6648" y1="146.145" x2="49.7253" y2="170.947" gradientUnits="userSpaceOnUse">
<stop stop-color="#949494"/>
<stop offset="1" stop-color="#5C5C5C"/>
</linearGradient>
<linearGradient id="paint8_linear_203_557" x1="66.0995" y1="154.573" x2="65.0159" y2="189.73" gradientUnits="userSpaceOnUse">
<stop stop-color="#C4C4C4"/>
<stop offset="1" stop-color="#888888"/>
</linearGradient>
<linearGradient id="paint9_linear_203_557" x1="42.742" y1="143.496" x2="19.3844" y2="183.349" gradientUnits="userSpaceOnUse">
<stop stop-color="#D5D5D5"/>
<stop offset="1" stop-color="#888888"/>
</linearGradient>
<linearGradient id="paint10_linear_203_557" x1="213.83" y1="140.968" x2="190.352" y2="139.884" gradientUnits="userSpaceOnUse">
<stop stop-color="white"/>
<stop offset="1" stop-color="#828282"/>
</linearGradient>
<linearGradient id="paint11_linear_203_557" x1="197.938" y1="140.727" x2="248.626" y2="139.162" gradientUnits="userSpaceOnUse">
<stop stop-color="white"/>
<stop offset="1" stop-color="#858585"/>
</linearGradient>
<linearGradient id="paint12_linear_203_557" x1="219.368" y1="129.53" x2="219.489" y2="137.837" gradientUnits="userSpaceOnUse">
<stop stop-color="#C4C4C4" stop-opacity="0"/>
<stop offset="1" stop-color="#301700"/>
</linearGradient>
<linearGradient id="paint13_linear_203_557" x1="223.588" y1="140.56" x2="222.276" y2="156.208" gradientUnits="userSpaceOnUse">
<stop stop-color="#3D73FF"/>
<stop offset="1" stop-color="#1E377A"/>
</linearGradient>
<linearGradient id="paint14_linear_203_557" x1="220.718" y1="145.098" x2="220.573" y2="146.818" gradientUnits="userSpaceOnUse">
<stop stop-color="#3D73FF"/>
<stop offset="1" stop-color="#1E377A"/>
</linearGradient>
<linearGradient id="paint15_linear_203_557" x1="219.582" y1="144.684" x2="219.107" y2="150.341" gradientUnits="userSpaceOnUse">
<stop stop-color="#3D73FF"/>
<stop offset="1" stop-color="#1E377A"/>
</linearGradient>
<linearGradient id="paint16_linear_203_557" x1="225.107" y1="148.129" x2="226.245" y2="148.131" gradientUnits="userSpaceOnUse">
<stop stop-color="#3D73FF"/>
<stop offset="1" stop-color="#1E377A"/>
</linearGradient>
</defs>
</svg>
