<svg width="265" height="75" viewBox="0 0 265 75" fill="none" xmlns="http://www.w3.org/2000/svg">
<path fill-rule="evenodd" clip-rule="evenodd" d="M12.465 3.75771C12.5217 3.32957 12.8811 3 13.3129 3C13.5178 3 13.7169 3.07406 13.8656 3.21506C15.7061 4.96075 16.5079 7.19642 17.3396 13.0773L17.3433 13.1055C19.6823 12.2071 21.8368 11.5972 23.9185 11.2759L26.4972 10.1528C28.7053 9.56294 29.5974 9.52407 30.636 9.92791L34.8647 12.2672L34.8583 12.2667C36.6129 12.829 38.4487 13.5797 40.4245 14.5189C40.7594 13.8569 41.1728 13.2237 41.6036 12.5639C42.5317 11.1424 43.5406 9.59719 44.0189 7.37305C44.1773 6.63631 44.7814 5.96887 45.4843 6.24058C47.1274 6.87574 48.3412 9.43629 48.1356 14.9663C48.0831 20.5799 45.8004 24.2427 43.2947 24.6027C42.9198 24.6566 42.5813 24.4879 42.3337 24.2136C46.5654 34.7873 48.5546 43.7954 47.7309 61.6624L47.6351 61.6814C47.2992 63.0044 46.0032 64.6197 43.2772 67.2407C32.7863 75.6064 26.3592 76.2299 13.946 70.2548L14.7133 63.062C12.9311 62.9719 11.4119 62.8496 10.0941 62.6534C5.21026 62.6304 3.97166 62.3458 3.59915 61.6173C2.69122 60.9469 2.38804 60.0218 2.09434 57.8863C1.52379 57.0265 0.967835 56.0206 0.38729 54.8421C0.0324562 54.1218 0.142483 53.2589 0.640887 52.6293C8.0036 43.3289 10.8364 36.8314 12.3191 25.1156C12.3388 24.96 12.3758 24.8079 12.429 24.6622C12.3796 24.6409 12.3598 24.618 12.3715 24.5935C12.4966 24.3306 12.4054 23.8311 12.2647 23.0602C12.0536 21.9029 11.7307 20.1341 11.8603 17.6358C9.04257 14.4234 9.76956 12.4937 10.8713 9.56912C11.454 8.0225 12.1415 6.19764 12.465 3.75771Z" fill="white"/>
<path d="M15.6552 30.5317L13.3159 28.3274L11.9663 26.8428V24.9534L14.3056 27.5626C15.3424 27.8293 15.7902 28.0124 16.15 28.8672L16.375 30.5317H15.6552Z" fill="#1522EC"/>
<path d="M11.4616 24.5935C11.3142 24.6922 13.1934 28.7124 14.6553 28.5909C16.1171 28.4694 16.3749 30.8116 16.3749 30.8116C15.4414 33.3779 13.1278 32.6864 12.1986 30.0714C11.3284 27.9313 11.1897 26.7319 11.4616 24.5935Z" fill="white"/>
<path d="M3.34094 23.1541C6.32157 29.3147 8.53762 32.5207 15.9821 36.8299C17.2968 39.9489 17.4453 42.6605 16.6119 44.8375C14.0041 49.4507 2.83908 52.6326 0.371827 39.979C-0.599246 32.4889 0.311686 28.7319 3.34094 23.1541Z" fill="white"/>
<path d="M37.5947 37.9085L37.5307 39.1633C37.5 39.7673 37.2434 40.3442 36.8191 40.7752C36.5742 41.024 36.2754 41.2198 35.9488 41.3432C35.405 41.5489 34.8053 41.5515 34.2597 41.3508L34.0072 41.2579C33.5395 41.0858 33.125 40.7939 32.8054 40.4114C32.4914 40.0356 32.2796 39.5851 32.1906 39.1035L31.9587 37.8494C31.8824 37.4369 31.8547 37.017 31.876 36.5981L32.0051 34.0653C32.0227 33.7205 32.0896 33.3799 32.2037 33.054L32.4304 32.4069C32.6345 31.8244 33.0822 31.3598 33.6567 31.1344C34.2014 30.9207 34.8101 30.9416 35.3388 31.1922L35.4934 31.2655C36.0474 31.5281 36.4865 31.984 36.728 32.5475L37.0005 33.1836C37.1791 33.6002 37.2913 34.0421 37.3332 34.4933L37.5786 37.138C37.6024 37.3941 37.6078 37.6516 37.5947 37.9085Z" fill="#1522EC"/>
<path d="M34.8381 36.6298L38.5893 35.0025L38.8054 37.6197L34.8381 36.6298Z" fill="white"/>
<path d="M8.59047 49.0398L7.19819 51.9781" stroke="#1522EC" stroke-width="0.935112"/>
<circle cx="6.97278" cy="52.4401" r="0.76477" fill="#1522EC"/>
<circle cx="20.2892" cy="36.3348" r="0.76477" fill="#1522EC"/>
<circle cx="18.3995" cy="48.931" r="0.76477" fill="#1522EC"/>
<circle cx="21.5485" cy="44.1625" r="0.76477" fill="#1522EC"/>
<path d="M12.5063 48.1663L14.6207 50.8205L17.9947 49.066" stroke="#1522EC" stroke-width="0.935112"/>
<path d="M17.0498 40.9685L19.4791 40.3837L20.2888 36.3799" stroke="#1522EC" stroke-width="0.935112"/>
<path d="M17.3647 43.5327L21.2786 44.1625" stroke="#1522EC" stroke-width="0.935112"/>
<path d="M7.37814 48.3463L4.45402 47.4465L3.14941 48.6162L7.37814 48.9311L10.3922 49.4709L13.8562 47.4465L10.3922 48.9311L7.37814 48.3463Z" fill="#1522EC"/>
<path d="M1 56.7648L1.68029 57.9794C1.68029 57.9794 9.52057 57.9241 9.64877 57.9794C9.77697 58.0347 18.3069 57.3451 18.2058 57.2324C19.7982 56.777 20.612 56.5068 21.9187 56C20.5388 56.267 19.7539 56.4077 18.2058 56.5398C18.4084 56.632 10.1626 57.1708 9.77236 57.1247C9.38213 57.0785 1 56.7648 1 56.7648Z" fill="#1522EC"/>
<path d="M11.2109 27.0639L11.0837 25.7531L10.7614 27.0457L11.1439 28.727L11.6235 30.2321L13.2414 31.4229L14.1791 31.6359L13.2559 31.0633L12.3427 30.2611L11.6833 28.7487L11.2109 27.0639Z" fill="#1522EC"/>
<path d="M16.9605 43.3528V39.6189L17.5903 43.7577L15.5659 45.782L16.9605 43.3528Z" fill="#1522EC"/>
<path d="M40.3984 19.1052L41.793 23.289L42.8277 21.0846L43.6375 19.1052L42.8277 18.0256L43.9524 15.8212L44.5822 11.2776L43.4125 13.9318L41.793 15.8212L40.3984 19.1052Z" fill="#1522EC"/>
<path d="M14.7559 14.9664L17.4101 13.077L17.0052 10.6477L16.8702 12.6271L14.7559 14.9664Z" fill="#1522EC"/>
<path d="M22.7186 61.8423L14.711 63.0569L12.9565 64.4515L16.8704 65.4412L22.7186 61.8423Z" fill="#1522EC"/>
<path d="M12.6418 31.4765L13.4066 31.3865L11.5123 29.812L10.7974 32.5999L13.8115 35.0304L12.2369 32.7361L12.6418 31.4765Z" fill="#1522EC"/>
<path d="M34.4151 43.173L31.6709 42.5432L34.4151 43.8028H36.6194L38.8237 42.0483L36.6194 43.173H34.4151Z" fill="#1522EC"/>
<path d="M35.6296 44.6574L34.145 44.3875L35.6296 45.1522L36.7992 44.3875L35.6296 44.6574Z" fill="#1522EC"/>
<path d="M38.8239 15.3713C38.7351 14.6211 39.5886 13.7068 39.5886 13.7068L40.4434 14.4716L39.1837 17.3507C39.1837 17.3507 38.9 16.0147 38.8239 15.3713Z" fill="#1522EC"/>
<path d="M14.3963 35.4802L10.7974 33.3659L11.0223 32.4211L11.7871 33.3659L14.3963 35.4802Z" fill="#1522EC"/>
<path d="M71.3784 33.303C69.3586 33.303 67.552 32.899 65.9585 32.0911C64.3875 31.2831 63.1532 30.1722 62.2555 28.7583C61.3578 27.322 60.9089 25.6837 60.9089 23.8434C60.9089 22.0031 61.3578 20.376 62.2555 18.9621C63.1532 17.5482 64.3875 16.4485 65.9585 15.663C67.552 14.8551 69.3586 14.4511 71.3784 14.4511C73.4432 14.4511 75.2274 14.8888 76.731 15.764C78.2347 16.6393 79.3007 17.8736 79.9291 19.4671L74.9805 21.9919C74.5541 21.139 74.0267 20.5219 73.3983 20.1403C72.7699 19.7364 72.0854 19.5344 71.3448 19.5344C70.6042 19.5344 69.9309 19.7027 69.3249 20.0393C68.719 20.376 68.2365 20.8697 67.8774 21.5206C67.5407 22.149 67.3724 22.9232 67.3724 23.8434C67.3724 24.786 67.5407 25.5827 67.8774 26.2335C68.2365 26.8844 68.719 27.3781 69.3249 27.7147C69.9309 28.0514 70.6042 28.2197 71.3448 28.2197C72.0854 28.2197 72.7699 28.0289 73.3983 27.6474C74.0267 27.2435 74.5541 26.6151 74.9805 25.7622L79.9291 28.287C79.3007 29.8805 78.2347 31.1148 76.731 31.9901C75.2274 32.8653 73.4432 33.303 71.3784 33.303ZM85.1394 39.8338C84.1744 39.8338 83.1981 39.6767 82.2106 39.3625C81.2456 39.0707 80.4601 38.678 79.8541 38.1843L82.076 33.7069C82.4575 34.0436 82.8951 34.3017 83.3889 34.4812C83.9051 34.6832 84.41 34.7842 84.9038 34.7842C85.5995 34.7842 86.1493 34.6271 86.5533 34.3129C86.9573 33.9987 87.3051 33.505 87.5969 32.8317L88.4385 30.7108L88.9434 30.0712L95.1376 14.7541H101.231L93.3534 33.7406C92.725 35.3116 91.9956 36.5347 91.1653 37.41C90.3573 38.3077 89.4484 38.9361 88.4385 39.2952C87.451 39.6543 86.3513 39.8338 85.1394 39.8338ZM87.6305 33.7743L79.5848 14.7541H86.1493L92.0742 29.4989L87.6305 33.7743ZM114.364 33.303C112.725 33.303 111.356 32.9663 110.257 32.2931C109.179 31.6198 108.372 30.5874 107.833 29.196C107.294 27.8045 107.025 26.0203 107.025 23.8434C107.025 21.7113 107.305 19.9496 107.867 18.5581C108.45 17.1667 109.292 16.1343 110.391 15.461C111.491 14.7878 112.815 14.4511 114.364 14.4511C116.024 14.4511 117.528 14.8326 118.875 15.5957C120.244 16.3588 121.321 17.4472 122.106 18.8611C122.914 20.2526 123.318 21.9133 123.318 23.8434C123.318 25.7959 122.914 27.4791 122.106 28.893C121.321 30.2844 120.244 31.3729 118.875 32.1584C117.528 32.9215 116.024 33.303 114.364 33.303ZM102.884 33V8.02129H109.28V17.8175L108.944 23.8434L108.977 29.8692V33H102.884ZM113.017 28.2197C113.735 28.2197 114.375 28.0514 114.936 27.7147C115.52 27.3781 115.98 26.8844 116.316 26.2335C116.675 25.5603 116.855 24.7635 116.855 23.8434C116.855 22.9232 116.675 22.149 116.316 21.5206C115.98 20.8697 115.52 20.376 114.936 20.0393C114.375 19.7027 113.735 19.5344 113.017 19.5344C112.299 19.5344 111.648 19.7027 111.065 20.0393C110.504 20.376 110.044 20.8697 109.684 21.5206C109.348 22.149 109.179 22.9232 109.179 23.8434C109.179 24.7635 109.348 25.5603 109.684 26.2335C110.044 26.8844 110.504 27.3781 111.065 27.7147C111.648 28.0514 112.299 28.2197 113.017 28.2197ZM135.852 33.303C133.697 33.303 131.812 32.899 130.196 32.0911C128.603 31.2607 127.357 30.1386 126.46 28.7247C125.584 27.2883 125.147 25.6612 125.147 23.8434C125.147 22.0255 125.573 20.4097 126.426 18.9958C127.301 17.5594 128.502 16.4485 130.028 15.663C131.554 14.8551 133.271 14.4511 135.179 14.4511C136.974 14.4511 138.612 14.8214 140.094 15.562C141.575 16.2802 142.753 17.3462 143.628 18.7601C144.504 20.174 144.941 21.8909 144.941 23.9107C144.941 24.1351 144.93 24.3932 144.908 24.685C144.885 24.9767 144.863 25.2461 144.84 25.4929H130.398V22.1265H141.44L139.016 23.0691C139.039 22.2387 138.882 21.5206 138.545 20.9146C138.231 20.3087 137.782 19.8374 137.198 19.5007C136.637 19.1641 135.975 18.9958 135.212 18.9958C134.449 18.9958 133.776 19.1641 133.192 19.5007C132.631 19.8374 132.194 20.3199 131.88 20.9483C131.565 21.5542 131.408 22.2724 131.408 23.1028V24.079C131.408 24.9767 131.588 25.751 131.947 26.4019C132.328 27.0527 132.867 27.5576 133.563 27.9167C134.258 28.2534 135.089 28.4217 136.054 28.4217C136.952 28.4217 137.715 28.2983 138.343 28.0514C138.994 27.7821 139.633 27.3781 140.262 26.8395L143.628 30.3405C142.753 31.3056 141.676 32.0462 140.397 32.5624C139.117 33.0561 137.602 33.303 135.852 33.303ZM147.89 33V14.7541H153.983V20.073L153.074 18.5581C153.613 17.1891 154.488 16.168 155.7 15.4947C156.912 14.799 158.382 14.4511 160.11 14.4511V20.2077C159.818 20.1628 159.56 20.1403 159.336 20.1403C159.134 20.1179 158.91 20.1067 158.663 20.1067C157.361 20.1067 156.306 20.4658 155.498 21.1839C154.69 21.8796 154.286 23.0242 154.286 24.6177V33H147.89ZM165.18 33.303C164.103 33.303 163.194 32.9439 162.453 32.2257C161.712 31.5076 161.342 30.5986 161.342 29.4989C161.342 28.3544 161.712 27.4454 162.453 26.7722C163.194 26.0764 164.103 25.7286 165.18 25.7286C166.257 25.7286 167.166 26.0764 167.907 26.7722C168.647 27.4454 169.018 28.3544 169.018 29.4989C169.018 30.5986 168.647 31.5076 167.907 32.2257C167.166 32.9439 166.257 33.303 165.18 33.303ZM172.02 33V14.7541H178.114V20.073L177.205 18.5581C177.743 17.1891 178.619 16.168 179.831 15.4947C181.042 14.799 182.512 14.4511 184.241 14.4511V20.2077C183.949 20.1628 183.691 20.1403 183.466 20.1403C183.264 20.1179 183.04 20.1067 182.793 20.1067C181.491 20.1067 180.436 20.4658 179.629 21.1839C178.821 21.8796 178.417 23.0242 178.417 24.6177V33H172.02ZM198.763 14.4511C200.177 14.4511 201.456 14.7429 202.601 15.3264C203.746 15.8875 204.643 16.7627 205.294 17.9522C205.967 19.1416 206.304 20.679 206.304 22.5642V33H199.908V23.6077C199.908 22.3061 199.639 21.3635 199.1 20.78C198.584 20.174 197.854 19.871 196.912 19.871C196.239 19.871 195.621 20.0281 195.06 20.3423C194.499 20.6341 194.062 21.0942 193.747 21.7226C193.433 22.3509 193.276 23.1701 193.276 24.18V33H186.88V8.02129H193.276V19.9384L191.795 18.4235C192.491 17.0994 193.444 16.1119 194.656 15.461C195.868 14.7878 197.237 14.4511 198.763 14.4511ZM210.32 33V14.7541H216.716V33H210.32ZM213.518 12.7343C212.351 12.7343 211.408 12.4088 210.69 11.758C209.972 11.1072 209.613 10.2992 209.613 9.33419C209.613 8.36915 209.972 7.56122 210.69 6.91038C211.408 6.25954 212.351 5.93412 213.518 5.93412C214.685 5.93412 215.628 6.24832 216.346 6.87672C217.064 7.48267 217.423 8.26816 217.423 9.2332C217.423 10.2431 217.064 11.0847 216.346 11.758C215.65 12.4088 214.707 12.7343 213.518 12.7343ZM232.756 14.4511C234.17 14.4511 235.449 14.7429 236.594 15.3264C237.738 15.8875 238.636 16.7627 239.287 17.9522C239.96 19.1416 240.297 20.679 240.297 22.5642V33H233.901V23.6077C233.901 22.3061 233.631 21.3635 233.093 20.78C232.577 20.174 231.847 19.871 230.905 19.871C230.231 19.871 229.614 20.0281 229.053 20.3423C228.492 20.6341 228.054 21.0942 227.74 21.7226C227.426 22.3509 227.269 23.1701 227.269 24.18V33H220.873V14.7541H226.966V19.9384L225.788 18.4235C226.483 17.0994 227.437 16.1119 228.649 15.461C229.861 14.7878 231.23 14.4511 232.756 14.4511ZM253.699 33.303C251.702 33.303 249.929 32.899 248.38 32.0911C246.832 31.2831 245.609 30.1722 244.711 28.7583C243.836 27.322 243.398 25.6837 243.398 23.8434C243.398 22.0031 243.836 20.376 244.711 18.9621C245.609 17.5482 246.832 16.4485 248.38 15.663C249.929 14.8551 251.702 14.4511 253.699 14.4511C255.697 14.4511 257.47 14.8551 259.018 15.663C260.589 16.4485 261.812 17.5482 262.688 18.9621C263.563 20.376 264.001 22.0031 264.001 23.8434C264.001 25.6837 263.563 27.322 262.688 28.7583C261.812 30.1722 260.589 31.2831 259.018 32.0911C257.47 32.899 255.697 33.303 253.699 33.303ZM253.699 28.2197C254.44 28.2197 255.091 28.0514 255.652 27.7147C256.235 27.3781 256.695 26.8844 257.032 26.2335C257.369 25.5603 257.537 24.7635 257.537 23.8434C257.537 22.9232 257.369 22.149 257.032 21.5206C256.695 20.8697 256.235 20.376 255.652 20.0393C255.091 19.7027 254.44 19.5344 253.699 19.5344C252.981 19.5344 252.33 19.7027 251.747 20.0393C251.186 20.376 250.726 20.8697 250.367 21.5206C250.03 22.149 249.862 22.9232 249.862 23.8434C249.862 24.7635 250.03 25.5603 250.367 26.2335C250.726 26.8844 251.186 27.3781 251.747 27.7147C252.33 28.0514 252.981 28.2197 253.699 28.2197Z" fill="white"/>
<path d="M64.1933 60.8733C64.4978 65.9305 71.848 64.6918 71.9723 63.1302C72.0965 61.5685 72.2015 50.3927 72.2385 45.0001" stroke="url(#paint0_linear_0_1)" stroke-width="5"/>
<path d="M118.193 60.8733C118.498 65.9305 125.848 64.6918 125.972 63.1302C126.096 61.5685 126.201 50.3927 126.238 45.0001" stroke="url(#paint1_linear_0_1)" stroke-width="5"/>
<path d="M91.5 46L83.7053 51.2803C80.0948 53.7261 80.2169 59.0846 83.935 61.3634L91.5 66" stroke="url(#paint2_linear_0_1)" stroke-width="5"/>
<path d="M100 45V55.5M100 66V55.5M100 55.5L110.56 46.9091M100 55.5L112 64.5682" stroke="url(#paint3_linear_0_1)" stroke-width="5"/>
<circle cx="140.246" cy="56.3684" r="3.82105" stroke="url(#paint4_linear_0_1)" stroke-width="0.849123"/>
<path d="M141.599 57.1856L142.425 57.2928C142.334 57.8619 142.103 58.3081 141.73 58.6315C141.359 58.9518 140.904 59.1119 140.363 59.1119C139.685 59.1119 139.139 58.8912 138.726 58.4496C138.315 58.0049 138.11 57.369 138.11 56.5419C138.11 56.007 138.199 55.539 138.376 55.1379C138.553 54.7368 138.822 54.4367 139.183 54.2377C139.547 54.0356 139.942 53.9345 140.368 53.9345C140.905 53.9345 141.345 54.0713 141.688 54.345C142.03 54.6155 142.249 55.0011 142.345 55.5017L141.529 55.6277C141.451 55.2949 141.313 55.0446 141.114 54.8767C140.918 54.7088 140.68 54.6248 140.4 54.6248C139.977 54.6248 139.634 54.7772 139.369 55.0819C139.105 55.3836 138.973 55.8624 138.973 56.5186C138.973 57.184 139.1 57.6675 139.355 57.9692C139.61 58.2708 139.943 58.4216 140.354 58.4216C140.683 58.4216 140.958 58.3206 141.179 58.1184C141.4 57.9163 141.54 57.6054 141.599 57.1856Z" fill="url(#paint5_linear_0_1)"/>
<defs>
<linearGradient id="paint0_linear_0_1" x1="65.6192" y1="50.2733" x2="80.1178" y2="68.4725" gradientUnits="userSpaceOnUse">
<stop offset="0.208333" stop-color="white"/>
<stop offset="1" stop-color="#1523EC"/>
</linearGradient>
<linearGradient id="paint1_linear_0_1" x1="119.619" y1="50.2733" x2="134.118" y2="68.4725" gradientUnits="userSpaceOnUse">
<stop offset="0.208333" stop-color="white"/>
<stop offset="1" stop-color="#1523EC"/>
</linearGradient>
<linearGradient id="paint2_linear_0_1" x1="83.75" y1="46" x2="83.75" y2="78.7059" gradientUnits="userSpaceOnUse">
<stop offset="0.208333" stop-color="white"/>
<stop offset="1" stop-color="#1523EC"/>
</linearGradient>
<linearGradient id="paint3_linear_0_1" x1="107.2" y1="45" x2="107.2" y2="79.3412" gradientUnits="userSpaceOnUse">
<stop offset="0.208333" stop-color="white"/>
<stop offset="1" stop-color="#1523EC"/>
</linearGradient>
<linearGradient id="paint4_linear_0_1" x1="140.246" y1="52.1228" x2="140.246" y2="60.614" gradientUnits="userSpaceOnUse">
<stop offset="0.71875" stop-color="white"/>
<stop offset="1" stop-color="white" stop-opacity="0"/>
</linearGradient>
<linearGradient id="paint5_linear_0_1" x1="140.237" y1="50" x2="140.237" y2="61" gradientUnits="userSpaceOnUse">
<stop offset="0.609375" stop-color="white"/>
<stop offset="1" stop-color="#1522EC"/>
</linearGradient>
</defs>
</svg>
