<svg width="263" height="75" viewBox="0 0 263 75" fill="none" xmlns="http://www.w3.org/2000/svg">
<path fill-rule="evenodd" clip-rule="evenodd" d="M12.4648 0.757706C12.5216 0.329573 12.8809 0 13.3128 0C13.5176 0 13.7167 0.0740631 13.8654 0.215061C15.7059 1.96075 16.5077 4.19642 17.3394 10.0773L17.3432 10.1055C19.6821 9.20708 21.8366 8.59717 23.9183 8.27586L26.4971 7.15285C28.7052 6.56294 29.5972 6.52407 30.6358 6.92791L34.8645 9.26721L34.8581 9.26669C36.6128 9.82902 38.4485 10.5797 40.4243 11.5189C40.7592 10.8569 41.1726 10.2237 41.6034 9.56391C42.5315 8.14239 43.5404 6.59719 44.0187 4.37305C44.1771 3.63631 44.7812 2.96887 45.4841 3.24058C47.1273 3.87574 48.3411 6.43629 48.1354 11.9663C48.083 17.5799 45.8002 21.2427 43.2945 21.6027C42.9197 21.6566 42.5811 21.4879 42.3335 21.2136C46.5652 31.7873 48.5544 40.7954 47.7307 58.6624L47.6349 58.6814C47.299 60.0044 46.003 61.6197 43.277 64.2407C32.7861 72.6064 26.359 73.2299 13.9459 67.2548L14.7131 60.062C12.9309 59.9719 11.4117 59.8496 10.0939 59.6534C5.21008 59.6304 3.97148 59.3458 3.59897 58.6173C2.69104 57.9469 2.38786 57.0218 2.09416 54.8863C1.52361 54.0265 0.967653 53.0206 0.387108 51.8421C0.0322742 51.1218 0.142301 50.2589 0.640705 49.6293C8.00342 40.3289 10.8362 33.8314 12.3189 22.1156C12.3386 21.96 12.3757 21.8079 12.4288 21.6622C12.3794 21.6409 12.3596 21.618 12.3713 21.5935C12.4964 21.3306 12.4053 20.8311 12.2646 20.0602C12.0534 18.9029 11.7306 17.1341 11.8601 14.6358C9.04239 11.4234 9.76937 9.49371 10.8712 6.56912C11.4538 5.0225 12.1413 3.19764 12.4648 0.757706Z" fill="white"/>
<path d="M15.6552 27.5317L13.3159 25.3274L11.9663 23.8428V21.9534L14.3056 24.5626C15.3424 24.8293 15.7902 25.0124 16.15 25.8672L16.375 27.5317H15.6552Z" fill="#1522EC"/>
<path d="M11.4616 21.5935C11.3142 21.6922 13.1934 25.7124 14.6553 25.5909C16.1171 25.4694 16.3749 27.8116 16.3749 27.8116C15.4414 30.3779 13.1278 29.6864 12.1986 27.0714C11.3284 24.9313 11.1897 23.7319 11.4616 21.5935Z" fill="white"/>
<path d="M3.34094 20.1541C6.32157 26.3147 8.53762 29.5207 15.9821 33.8299C17.2968 36.9489 17.4453 39.6605 16.6119 41.8375C14.0041 46.4507 2.83908 49.6326 0.371827 36.979C-0.599246 29.4889 0.311686 25.7319 3.34094 20.1541Z" fill="white"/>
<path d="M37.5947 34.9085L37.5307 36.1633C37.5 36.7673 37.2434 37.3442 36.8191 37.7752C36.5742 38.024 36.2754 38.2198 35.9488 38.3432C35.405 38.5489 34.8053 38.5515 34.2597 38.3508L34.0072 38.2579C33.5395 38.0858 33.125 37.7939 32.8054 37.4114C32.4914 37.0356 32.2796 36.5851 32.1906 36.1035L31.9587 34.8494C31.8824 34.4369 31.8547 34.017 31.876 33.5981L32.0051 31.0653C32.0227 30.7205 32.0896 30.3799 32.2037 30.054L32.4304 29.4069C32.6345 28.8244 33.0822 28.3598 33.6567 28.1344C34.2014 27.9207 34.8101 27.9416 35.3388 28.1922L35.4934 28.2655C36.0474 28.5281 36.4865 28.984 36.728 29.5475L37.0005 30.1836C37.1791 30.6002 37.2913 31.0421 37.3332 31.4933L37.5786 34.138C37.6024 34.3941 37.6078 34.6516 37.5947 34.9085Z" fill="#1522EC"/>
<path d="M34.8381 33.6298L38.5893 32.0025L38.8054 34.6197L34.8381 33.6298Z" fill="white"/>
<path d="M8.59047 46.0398L7.19819 48.9781" stroke="#1522EC" stroke-width="0.935112"/>
<circle cx="6.97278" cy="49.4401" r="0.76477" fill="#1522EC"/>
<circle cx="20.2892" cy="33.3348" r="0.76477" fill="#1522EC"/>
<circle cx="18.3995" cy="45.931" r="0.76477" fill="#1522EC"/>
<circle cx="21.5485" cy="41.1625" r="0.76477" fill="#1522EC"/>
<path d="M12.5063 45.1663L14.6207 47.8205L17.9947 46.066" stroke="#1522EC" stroke-width="0.935112"/>
<path d="M17.0498 37.9685L19.4791 37.3837L20.2888 33.3799" stroke="#1522EC" stroke-width="0.935112"/>
<path d="M17.3647 40.5327L21.2786 41.1625" stroke="#1522EC" stroke-width="0.935112"/>
<path d="M7.37814 45.3463L4.45402 44.4465L3.14941 45.6162L7.37814 45.9311L10.3922 46.4709L13.8562 44.4465L10.3922 45.9311L7.37814 45.3463Z" fill="#1522EC"/>
<path d="M1 53.7648L1.68029 54.9794C1.68029 54.9794 9.52057 54.9241 9.64877 54.9794C9.77697 55.0347 18.3069 54.3451 18.2058 54.2324C19.7982 53.777 20.612 53.5068 21.9187 53C20.5388 53.267 19.7539 53.4077 18.2058 53.5398C18.4084 53.632 10.1626 54.1708 9.77236 54.1247C9.38213 54.0785 1 53.7648 1 53.7648Z" fill="#1522EC"/>
<path d="M11.2109 24.0639L11.0837 22.7531L10.7614 24.0457L11.1439 25.727L11.6235 27.2321L13.2414 28.4229L14.1791 28.6359L13.2559 28.0633L12.3427 27.2611L11.6833 25.7487L11.2109 24.0639Z" fill="#1522EC"/>
<path d="M16.9605 40.3528V36.6189L17.5903 40.7577L15.5659 42.782L16.9605 40.3528Z" fill="#1522EC"/>
<path d="M40.3984 16.1052L41.793 20.289L42.8277 18.0846L43.6375 16.1052L42.8277 15.0256L43.9524 12.8212L44.5822 8.27759L43.4125 10.9318L41.793 12.8212L40.3984 16.1052Z" fill="#1522EC"/>
<path d="M14.7559 11.9664L17.4101 10.077L17.0052 7.64771L16.8702 9.62711L14.7559 11.9664Z" fill="#1522EC"/>
<path d="M22.7186 58.8423L14.711 60.0569L12.9565 61.4515L16.8704 62.4412L22.7186 58.8423Z" fill="#1522EC"/>
<path d="M12.6418 28.4765L13.4066 28.3865L11.5123 26.812L10.7974 29.5999L13.8115 32.0304L12.2369 29.7361L12.6418 28.4765Z" fill="#1522EC"/>
<path d="M34.4151 40.173L31.6709 39.5432L34.4151 40.8028H36.6194L38.8237 39.0483L36.6194 40.173H34.4151Z" fill="#1522EC"/>
<path d="M35.6296 41.6574L34.145 41.3875L35.6296 42.1522L36.7992 41.3875L35.6296 41.6574Z" fill="#1522EC"/>
<path d="M38.8239 12.3713C38.7351 11.6211 39.5886 10.7068 39.5886 10.7068L40.4434 11.4716L39.1837 14.3507C39.1837 14.3507 38.9 13.0147 38.8239 12.3713Z" fill="#1522EC"/>
<path d="M14.3963 32.4802L10.7974 30.3659L11.0223 29.4211L11.7871 30.3659L14.3963 32.4802Z" fill="#1522EC"/>
<path d="M70.3784 68.303C68.3586 68.303 66.552 67.899 64.9585 67.0911C63.3875 66.2831 62.1532 65.1722 61.2555 63.7583C60.3578 62.322 59.9089 60.6837 59.9089 58.8434C59.9089 57.0031 60.3578 55.376 61.2555 53.9621C62.1532 52.5482 63.3875 51.4485 64.9585 50.663C66.552 49.8551 68.3586 49.4511 70.3784 49.4511C72.4432 49.4511 74.2274 49.8888 75.731 50.764C77.2347 51.6393 78.3007 52.8736 78.9291 54.4671L73.9805 56.9919C73.5541 56.139 73.0267 55.5219 72.3983 55.1403C71.7699 54.7364 71.0854 54.5344 70.3448 54.5344C69.6042 54.5344 68.9309 54.7027 68.3249 55.0393C67.719 55.376 67.2365 55.8697 66.8774 56.5206C66.5407 57.149 66.3724 57.9232 66.3724 58.8434C66.3724 59.786 66.5407 60.5827 66.8774 61.2335C67.2365 61.8844 67.719 62.3781 68.3249 62.7147C68.9309 63.0514 69.6042 63.2197 70.3448 63.2197C71.0854 63.2197 71.7699 63.0289 72.3983 62.6474C73.0267 62.2435 73.5541 61.6151 73.9805 60.7622L78.9291 63.287C78.3007 64.8805 77.2347 66.1148 75.731 66.9901C74.2274 67.8653 72.4432 68.303 70.3784 68.303ZM84.1394 74.8338C83.1744 74.8338 82.1981 74.6767 81.2106 74.3625C80.2456 74.0707 79.4601 73.678 78.8541 73.1843L81.076 68.7069C81.4575 69.0436 81.8951 69.3017 82.3889 69.4812C82.9051 69.6832 83.41 69.7842 83.9038 69.7842C84.5995 69.7842 85.1493 69.6271 85.5533 69.3129C85.9573 68.9987 86.3051 68.505 86.5969 67.8317L87.4385 65.7108L87.9434 65.0712L94.1376 49.7541H100.231L92.3534 68.7406C91.725 70.3116 90.9956 71.5347 90.1653 72.41C89.3573 73.3077 88.4484 73.9361 87.4385 74.2952C86.451 74.6543 85.3513 74.8338 84.1394 74.8338ZM86.6305 68.7743L78.5848 49.7541H85.1493L91.0742 64.4989L86.6305 68.7743ZM113.364 68.303C111.725 68.303 110.356 67.9663 109.257 67.2931C108.179 66.6198 107.372 65.5874 106.833 64.196C106.294 62.8045 106.025 61.0203 106.025 58.8434C106.025 56.7113 106.305 54.9496 106.867 53.5581C107.45 52.1667 108.292 51.1343 109.391 50.461C110.491 49.7878 111.815 49.4511 113.364 49.4511C115.024 49.4511 116.528 49.8326 117.875 50.5957C119.244 51.3588 120.321 52.4472 121.106 53.8611C121.914 55.2526 122.318 56.9133 122.318 58.8434C122.318 60.7959 121.914 62.4791 121.106 63.893C120.321 65.2844 119.244 66.3729 117.875 67.1584C116.528 67.9215 115.024 68.303 113.364 68.303ZM101.884 68V43.0213H108.28V52.8175L107.944 58.8434L107.977 64.8692V68H101.884ZM112.017 63.2197C112.735 63.2197 113.375 63.0514 113.936 62.7147C114.52 62.3781 114.98 61.8844 115.316 61.2335C115.675 60.5603 115.855 59.7635 115.855 58.8434C115.855 57.9232 115.675 57.149 115.316 56.5206C114.98 55.8697 114.52 55.376 113.936 55.0393C113.375 54.7027 112.735 54.5344 112.017 54.5344C111.299 54.5344 110.648 54.7027 110.065 55.0393C109.504 55.376 109.044 55.8697 108.684 56.5206C108.348 57.149 108.179 57.9232 108.179 58.8434C108.179 59.7635 108.348 60.5603 108.684 61.2335C109.044 61.8844 109.504 62.3781 110.065 62.7147C110.648 63.0514 111.299 63.2197 112.017 63.2197ZM134.852 68.303C132.697 68.303 130.812 67.899 129.196 67.0911C127.603 66.2607 126.357 65.1386 125.46 63.7247C124.584 62.2883 124.147 60.6612 124.147 58.8434C124.147 57.0255 124.573 55.4097 125.426 53.9958C126.301 52.5594 127.502 51.4485 129.028 50.663C130.554 49.8551 132.271 49.4511 134.179 49.4511C135.974 49.4511 137.612 49.8214 139.094 50.562C140.575 51.2802 141.753 52.3462 142.628 53.7601C143.504 55.174 143.941 56.8909 143.941 58.9107C143.941 59.1351 143.93 59.3932 143.908 59.685C143.885 59.9767 143.863 60.2461 143.84 60.4929H129.398V57.1265H140.44L138.016 58.0691C138.039 57.2387 137.882 56.5206 137.545 55.9146C137.231 55.3087 136.782 54.8374 136.198 54.5007C135.637 54.1641 134.975 53.9958 134.212 53.9958C133.449 53.9958 132.776 54.1641 132.192 54.5007C131.631 54.8374 131.194 55.3199 130.88 55.9483C130.565 56.5542 130.408 57.2724 130.408 58.1028V59.079C130.408 59.9767 130.588 60.751 130.947 61.4019C131.328 62.0527 131.867 62.5576 132.563 62.9167C133.258 63.2534 134.089 63.4217 135.054 63.4217C135.952 63.4217 136.715 63.2983 137.343 63.0514C137.994 62.7821 138.633 62.3781 139.262 61.8395L142.628 65.3405C141.753 66.3056 140.676 67.0462 139.397 67.5624C138.117 68.0561 136.602 68.303 134.852 68.303ZM146.89 68V49.7541H152.983V55.073L152.074 53.5581C152.613 52.1891 153.488 51.168 154.7 50.4947C155.912 49.799 157.382 49.4511 159.11 49.4511V55.2077C158.818 55.1628 158.56 55.1403 158.336 55.1403C158.134 55.1179 157.91 55.1067 157.663 55.1067C156.361 55.1067 155.306 55.4658 154.498 56.1839C153.69 56.8796 153.286 58.0242 153.286 59.6177V68H146.89ZM164.18 68.303C163.103 68.303 162.194 67.9439 161.453 67.2257C160.712 66.5076 160.342 65.5986 160.342 64.4989C160.342 63.3544 160.712 62.4454 161.453 61.7722C162.194 61.0764 163.103 60.7286 164.18 60.7286C165.257 60.7286 166.166 61.0764 166.907 61.7722C167.647 62.4454 168.018 63.3544 168.018 64.4989C168.018 65.5986 167.647 66.5076 166.907 67.2257C166.166 67.9439 165.257 68.303 164.18 68.303ZM171.02 68V49.7541H177.114V55.073L176.205 53.5581C176.743 52.1891 177.619 51.168 178.831 50.4947C180.042 49.799 181.512 49.4511 183.241 49.4511V55.2077C182.949 55.1628 182.691 55.1403 182.466 55.1403C182.264 55.1179 182.04 55.1067 181.793 55.1067C180.491 55.1067 179.436 55.4658 178.629 56.1839C177.821 56.8796 177.417 58.0242 177.417 59.6177V68H171.02ZM197.763 49.4511C199.177 49.4511 200.456 49.7429 201.601 50.3264C202.746 50.8875 203.643 51.7627 204.294 52.9522C204.967 54.1416 205.304 55.679 205.304 57.5642V68H198.908V58.6077C198.908 57.3061 198.639 56.3635 198.1 55.78C197.584 55.174 196.854 54.871 195.912 54.871C195.239 54.871 194.621 55.0281 194.06 55.3423C193.499 55.6341 193.062 56.0942 192.747 56.7226C192.433 57.3509 192.276 58.1701 192.276 59.18V68H185.88V43.0213H192.276V54.9384L190.795 53.4235C191.491 52.0994 192.444 51.1119 193.656 50.461C194.868 49.7878 196.237 49.4511 197.763 49.4511ZM209.32 68V49.7541H215.716V68H209.32ZM212.518 47.7343C211.351 47.7343 210.408 47.4088 209.69 46.758C208.972 46.1072 208.613 45.2992 208.613 44.3342C208.613 43.3692 208.972 42.5612 209.69 41.9104C210.408 41.2595 211.351 40.9341 212.518 40.9341C213.685 40.9341 214.628 41.2483 215.346 41.8767C216.064 42.4827 216.423 43.2682 216.423 44.2332C216.423 45.2431 216.064 46.0847 215.346 46.758C214.65 47.4088 213.707 47.7343 212.518 47.7343ZM231.756 49.4511C233.17 49.4511 234.449 49.7429 235.594 50.3264C236.738 50.8875 237.636 51.7627 238.287 52.9522C238.96 54.1416 239.297 55.679 239.297 57.5642V68H232.901V58.6077C232.901 57.3061 232.631 56.3635 232.093 55.78C231.577 55.174 230.847 54.871 229.905 54.871C229.231 54.871 228.614 55.0281 228.053 55.3423C227.492 55.6341 227.054 56.0942 226.74 56.7226C226.426 57.3509 226.269 58.1701 226.269 59.18V68H219.873V49.7541H225.966V54.9384L224.788 53.4235C225.483 52.0994 226.437 51.1119 227.649 50.461C228.861 49.7878 230.23 49.4511 231.756 49.4511ZM252.699 68.303C250.702 68.303 248.929 67.899 247.38 67.0911C245.832 66.2831 244.609 65.1722 243.711 63.7583C242.836 62.322 242.398 60.6837 242.398 58.8434C242.398 57.0031 242.836 55.376 243.711 53.9621C244.609 52.5482 245.832 51.4485 247.38 50.663C248.929 49.8551 250.702 49.4511 252.699 49.4511C254.697 49.4511 256.47 49.8551 258.018 50.663C259.589 51.4485 260.812 52.5482 261.688 53.9621C262.563 55.376 263.001 57.0031 263.001 58.8434C263.001 60.6837 262.563 62.322 261.688 63.7583C260.812 65.1722 259.589 66.2831 258.018 67.0911C256.47 67.899 254.697 68.303 252.699 68.303ZM252.699 63.2197C253.44 63.2197 254.091 63.0514 254.652 62.7147C255.235 62.3781 255.695 61.8844 256.032 61.2335C256.369 60.5603 256.537 59.7635 256.537 58.8434C256.537 57.9232 256.369 57.149 256.032 56.5206C255.695 55.8697 255.235 55.376 254.652 55.0393C254.091 54.7027 253.44 54.5344 252.699 54.5344C251.981 54.5344 251.33 54.7027 250.747 55.0393C250.186 55.376 249.726 55.8697 249.367 56.5206C249.03 57.149 248.862 57.9232 248.862 58.8434C248.862 59.7635 249.03 60.5603 249.367 61.2335C249.726 61.8844 250.186 62.3781 250.747 62.7147C251.33 63.0514 251.981 63.2197 252.699 63.2197Z" fill="white"/>
</svg>
