<svg width="43" height="48" viewBox="0 0 43 48" fill="none" xmlns="http://www.w3.org/2000/svg">
<path d="M0 0L0.186957 2.18466L3.67681 41.6957L3.80145 43.0689L5.11014 43.4434L20.9391 47.8752L21.4377 48L21.9986 47.8752L37.8275 43.5059L39.1362 43.1313L39.2609 41.7581L42.813 2.18466L43 0.0624187H40.8188L2.18116 0H0ZM4.36232 3.9948L38.6377 4.05722L35.3971 40.0104L21.5 43.8804L7.54058 40.0104L4.36232 3.9948ZM9.16087 9.987L10.4696 24.9051H27.5449L26.9841 31.3342L21.5 32.8322H21.4377L15.9536 31.3342L15.642 27.2146H10.6565L11.342 35.1417L21.4377 37.9506H21.5L31.5957 35.1417L32.9667 19.974H14.9565L14.5203 14.9181H33.4029L33.8391 9.987H9.16087Z" fill="#1522EC"/>
</svg>
