<svg width="37" height="48" viewBox="0 0 37 48" fill="none" xmlns="http://www.w3.org/2000/svg">
<path d="M21.5063 0C24.1006 6.10895 12.2057 9.85221 11.1 14.9442C10.0883 19.6179 18.1459 25.0993 18.1531 25.0993C16.9246 23.1664 16.0285 21.5364 14.8 18.5216C12.7188 13.4296 27.4826 8.83525 21.5063 0ZM29.3688 8.48184C29.3688 8.48184 18.9697 9.13817 18.4422 15.9251C18.2037 18.9471 21.1883 20.5338 21.275 22.7336C21.3473 24.5295 19.4828 26.0225 19.4828 26.0225C19.4828 26.0225 22.8287 25.4167 23.8766 22.6759C25.0328 19.6323 21.6219 17.5551 21.9688 15.1173C22.3012 12.7877 29.3688 8.48184 29.3688 8.48184ZM31.9125 24.1184C30.8213 24.0679 29.5928 24.4718 28.5016 25.2724C30.6551 24.7964 32.4906 26.1451 32.4906 27.6958C32.4906 31.1722 27.5188 34.4467 27.5188 34.4467C27.5188 34.4467 35.2078 33.5884 35.2078 27.8689C35.2078 25.5104 33.7264 24.205 31.9125 24.1184ZM11.5047 24.1761C8.82363 24.2699 3.46875 24.7099 3.46875 26.7726C3.46875 29.6432 15.9418 29.8668 24.8594 28.0997C24.8594 28.0997 27.2875 26.412 27.9234 25.7917C22.0771 27.0034 8.72969 27.1909 8.72969 26.1379C8.72969 25.1715 13.0078 24.1761 13.0078 24.1761C13.0078 24.1761 12.4008 24.1473 11.5047 24.1761ZM10.6953 29.4845C9.22832 29.4845 7.05313 30.6241 7.05313 31.7348C7.05313 33.9706 18.0953 35.6872 26.2469 32.4272L23.4141 30.6962C17.8857 32.4993 7.67461 31.9007 10.6953 29.4845ZM12.0828 34.5044C10.0811 34.5044 8.7875 35.7665 8.7875 36.6969C8.7875 39.5603 20.7475 39.8416 25.4953 36.9277L22.4891 34.966C18.948 36.4878 10.0377 36.7114 12.0828 34.5044ZM5.37656 37.1008C2.11016 37.0359 0 38.5145 0 39.755C0 46.3544 33.4734 46.0371 33.4734 39.2934C33.4734 38.1755 32.151 37.6418 31.6813 37.3893C34.4129 43.8373 4.33594 43.3324 4.33594 39.5242C4.33594 38.6587 6.56172 37.7932 8.61406 38.1971L6.87969 37.2162C6.3666 37.1369 5.84629 37.1081 5.37656 37.1008ZM37 41.5437C31.9125 46.4554 19.0348 48.2152 6.07031 45.1788C19.0348 50.5881 36.935 47.5805 37 41.5437Z" fill="#1522EC"/>
</svg>
