<svg width="48" height="48" viewBox="0 0 48 48" fill="none" xmlns="http://www.w3.org/2000/svg">
<path d="M0 0V48H48V0H0ZM4.36364 4.36364H43.6364V43.6364H4.36364V4.36364ZM33.2599 21.8182C30.1509 21.8182 28.142 23.8083 28.142 26.4418C28.142 29.3021 29.8193 30.6693 32.348 31.7472L33.2216 32.1222C34.8187 32.8269 35.7699 33.2382 35.7699 34.4403C35.7699 35.4549 34.8387 36.1832 33.3878 36.1832C31.6685 36.1832 30.6908 35.2723 29.9446 34.0483L27.0852 35.6847C28.0998 37.7159 30.2135 39.2727 33.4688 39.2727C36.7851 39.2727 39.2727 37.5525 39.2727 34.402C39.2727 31.4587 37.5934 30.1511 34.6065 28.8878L33.7372 28.5128C32.2252 27.8495 31.581 27.4142 31.581 26.3778C31.581 25.5269 32.2236 24.8651 33.2599 24.8651C34.2767 24.8651 34.9163 25.3 35.5185 26.3778L38.2585 24.6179C37.0978 22.5866 35.4985 21.8182 33.2599 21.8182ZM20.4972 22.027V33.946C20.4972 35.6871 19.7505 36.1406 18.6094 36.1406C17.4072 36.1406 16.8898 35.3133 16.3509 34.3381L13.4915 36.0597C14.3206 37.8226 15.955 39.2727 18.7543 39.2727C21.8634 39.2727 24 37.6127 24 33.9844V22.027H20.4972Z" fill="#1522EC"/>
</svg>
