<svg width="178" height="49" viewBox="0 0 178 49" fill="none" xmlns="http://www.w3.org/2000/svg">
<path fill-rule="evenodd" clip-rule="evenodd" d="M153.843 0.512811C153.882 0.223045 154.125 -1.52588e-05 154.417 -1.52588e-05C154.556 -1.52588e-05 154.691 0.0501131 154.791 0.145542C156.037 1.32705 156.58 2.84018 157.142 6.82042L157.145 6.83963C158.728 6.23159 160.186 5.81878 161.595 5.60128L163.34 4.84112C164.835 4.44186 165.439 4.41556 166.142 4.68888L169.004 6.27215L169 6.27184C170.187 6.6524 171.43 7.16044 172.767 7.796C172.993 7.34799 173.273 6.91951 173.565 6.47301C174.193 5.51091 174.876 4.46509 175.199 2.95977C175.306 2.46113 175.715 2.0094 176.191 2.19329C177.303 2.62318 178.125 4.35619 177.986 8.09901C177.95 11.8983 176.405 14.3774 174.709 14.621C174.456 14.6574 174.227 14.5436 174.059 14.3582C176.923 21.5144 178.269 27.6112 177.712 39.7034L177.647 39.7164C177.419 40.6118 176.542 41.705 174.697 43.4789C167.597 49.1409 163.247 49.5629 154.845 45.5189L155.365 40.6507C154.158 40.5898 153.13 40.507 152.238 40.3742C148.933 40.3586 148.095 40.166 147.843 39.673C147.229 39.2193 147.023 38.5934 146.825 37.1488C146.438 36.5666 146.062 35.8855 145.669 35.0874C145.428 34.5999 145.503 34.0159 145.84 33.5898C146.81 32.3651 147.663 31.2122 148.417 30.0912C147.18 29.1854 146.157 27.584 145.658 25.0278C145.001 19.9584 145.618 17.4156 147.668 13.6404C149.12 16.6413 150.304 18.6063 152.731 20.5594C152.974 19.5992 153.183 18.5923 153.367 17.5206C153.05 16.5341 153.017 15.7879 153.16 14.6489C153.176 14.7745 153.366 15.2176 153.646 15.708C153.68 15.4648 153.713 15.2182 153.744 14.9682C153.758 14.8628 153.783 14.7597 153.819 14.661C153.786 14.6467 153.772 14.6313 153.78 14.6147C153.865 14.4368 153.803 14.0987 153.708 13.5769C153.565 12.7938 153.347 11.5967 153.434 9.90604C151.527 7.73166 152.019 6.42557 152.765 4.44605L152.765 4.44605L152.765 4.44604C153.159 3.39927 153.624 2.16418 153.843 0.512811ZM153.164 14.6147C153.158 14.6184 153.157 14.6301 153.16 14.6489L153.164 14.6147Z" fill="url(#paint0_linear_77_86)"/>
<path d="M170.851 23.6265L170.807 24.4757C170.787 24.8845 170.613 25.275 170.326 25.5667C170.16 25.7351 169.958 25.8676 169.737 25.9512C169.369 26.0903 168.963 26.0921 168.594 25.9563L168.423 25.8934C168.106 25.7769 167.826 25.5794 167.609 25.3205C167.397 25.0661 167.253 24.7613 167.193 24.4353L167.036 23.5865C166.985 23.3073 166.966 23.0231 166.98 22.7396L167.068 21.0254C167.08 20.792 167.125 20.5615 167.202 20.3409L167.356 19.9029C167.494 19.5087 167.797 19.1943 168.185 19.0417C168.554 18.8971 168.966 18.9112 169.324 19.0808L169.429 19.1304C169.804 19.3081 170.101 19.6167 170.264 19.9981L170.449 20.4286C170.569 20.7105 170.645 21.0096 170.674 21.3151L170.84 23.105C170.856 23.2783 170.86 23.4526 170.851 23.6265Z" fill="white"/>
<path d="M168.985 22.7612L171.524 21.6598L171.67 23.4311L168.985 22.7612Z" fill="url(#paint1_linear_77_86)"/>
<path d="M151.221 31.1603L150.279 33.149" stroke="white" stroke-width="0.632896"/>
<circle cx="150.127" cy="33.4617" r="0.517606" fill="white"/>
<circle cx="159.139" cy="22.5615" r="0.517606" fill="white"/>
<circle cx="157.86" cy="31.0868" r="0.517606" fill="white"/>
<circle cx="159.992" cy="27.8594" r="0.517606" fill="white"/>
<path d="M153.872 30.5692L155.303 32.3656L157.586 31.1782" stroke="white" stroke-width="0.632896"/>
<path d="M156.947 25.6976L158.591 25.3018L159.139 22.592" stroke="white" stroke-width="0.632896"/>
<path d="M157.16 27.4331L159.809 27.8594" stroke="white" stroke-width="0.632896"/>
<path d="M150.4 30.691L148.421 30.082L147.538 30.8737L150.4 31.0868L152.44 31.4522L154.785 30.082L152.44 31.0868L150.4 30.691Z" fill="white"/>
<path d="M156.971 36.3238L157.432 37.1458C157.432 37.1458 162.738 37.1084 162.825 37.1458C162.912 37.1832 168.685 36.7165 168.616 36.6403C169.694 36.332 170.245 36.1491 171.129 35.8062C170.195 35.9869 169.664 36.0821 168.616 36.1715C168.753 36.2339 163.173 36.5986 162.908 36.5673C162.644 36.5361 156.971 36.3238 156.971 36.3238Z" fill="white"/>
<path d="M152.995 16.2867L152.909 15.3995L152.691 16.2744L152.949 17.4123L153.274 18.431L154.369 19.2369L155.004 19.3811L154.379 18.9935L153.761 18.4506L153.314 17.427L152.995 16.2867Z" fill="white"/>
<path d="M156.886 27.3113V24.7842L157.312 27.5853L155.942 28.9555L156.886 27.3113Z" fill="white"/>
<path d="M172.749 10.9002L173.692 13.7318L174.393 12.2398L174.941 10.9002L174.393 10.1694L175.154 8.6775L175.58 5.60231L174.789 7.39871L173.692 8.6775L172.749 10.9002Z" fill="white"/>
<path d="M155.394 8.09899L157.19 6.8202L156.916 5.17604L156.825 6.51573L155.394 8.09899Z" fill="white"/>
<path d="M160.783 39.8252L155.363 40.6473L154.176 41.5911L156.825 42.261L160.783 39.8252Z" fill="white"/>
<path d="M153.963 19.2732L154.48 19.2123L153.198 18.1466L152.714 20.0335L154.754 21.6785L153.689 20.1257L153.963 19.2732Z" fill="white"/>
<path d="M168.7 27.1895L166.842 26.7633L168.7 27.6158H170.192L171.683 26.4283L170.192 27.1895H168.7Z" fill="white"/>
<path d="M169.521 28.1943L168.517 28.0116L169.521 28.5292L170.313 28.0116L169.521 28.1943Z" fill="white"/>
<path d="M171.683 8.37303C171.623 7.86528 172.201 7.24648 172.201 7.24648L172.779 7.76408L171.927 9.71272C171.927 9.71272 171.735 8.80849 171.683 8.37303Z" fill="white"/>
<path d="M155.15 21.983L152.714 20.552L152.867 19.9126L153.384 20.552L155.15 21.983Z" fill="white"/>
<path d="M7.70108 35.6541C6.33402 35.6541 5.11127 35.3807 4.03281 34.8339C2.95436 34.287 2.11134 33.5276 1.50376 32.5554C0.91137 31.5833 0.615175 30.4821 0.615175 29.2517C0.615175 28.0214 0.91137 26.9277 1.50376 25.9708C2.11134 24.9987 2.95436 24.2468 4.03281 23.7151C5.11127 23.1683 6.33402 22.8949 7.70108 22.8949C9.09851 22.8949 10.3061 23.1987 11.3238 23.8063C12.3415 24.3987 13.063 25.2265 13.4883 26.2898L10.139 27.9986C9.57698 26.8898 8.75675 26.3353 7.67829 26.3353C6.90363 26.3353 6.25807 26.5936 5.74163 27.11C5.24038 27.6264 4.98975 28.3403 4.98975 29.2517C4.98975 30.1783 5.24038 30.9074 5.74163 31.439C6.25807 31.9555 6.90363 32.2137 7.67829 32.2137C8.75675 32.2137 9.57698 31.6593 10.139 30.5504L13.4883 32.2592C13.063 33.3225 12.3415 34.1579 11.3238 34.7655C10.3061 35.3579 9.09851 35.6541 7.70108 35.6541ZM27.9055 23.1L22.574 35.9503C21.9513 37.4692 21.1918 38.5325 20.2956 39.1401C19.3994 39.7629 18.3058 40.0742 17.0147 40.0742C16.3615 40.0742 15.7008 39.9679 15.0324 39.7553C14.3793 39.5578 13.8477 39.292 13.4375 38.9578L14.9413 35.9275C15.1843 36.1553 15.4729 36.33 15.8071 36.4515C16.1565 36.5882 16.5058 36.6566 16.8552 36.6566C17.2653 36.6566 17.5995 36.5731 17.8577 36.406C18.1311 36.2389 18.3589 35.9731 18.5412 35.6085L13.2553 23.1H17.6982L20.7285 30.6416L23.7816 23.1H27.9055ZM36.7941 22.8949C37.9181 22.8949 38.9358 23.1531 39.8472 23.6696C40.7737 24.186 41.5028 24.9303 42.0345 25.9024C42.5813 26.8594 42.8547 27.9758 42.8547 29.2517C42.8547 30.5276 42.5813 31.6517 42.0345 32.6238C41.5028 33.5959 40.7737 34.3478 39.8472 34.8794C38.9358 35.3959 37.9181 35.6541 36.7941 35.6541C35.1688 35.6541 33.9536 35.1756 33.1486 34.2187V35.449H29.0246V18.5431H33.3537V24.1708C34.1891 23.3202 35.3359 22.8949 36.7941 22.8949ZM35.8827 32.2137C36.6422 32.2137 37.265 31.9555 37.751 31.439C38.2371 30.9074 38.4801 30.1783 38.4801 29.2517C38.4801 28.3403 38.2371 27.6264 37.751 27.11C37.265 26.5936 36.6422 26.3353 35.8827 26.3353C35.1232 26.3353 34.5005 26.5936 34.0144 27.11C33.5283 27.6264 33.2853 28.3403 33.2853 29.2517C33.2853 30.1783 33.5283 30.9074 34.0144 31.439C34.5005 31.9555 35.1232 32.2137 35.8827 32.2137ZM57.4893 29.2973C57.4893 29.3277 57.4665 29.6846 57.4209 30.3681H48.4439C48.6262 31.0061 48.9756 31.4998 49.492 31.8491C50.0237 32.1833 50.6844 32.3504 51.4743 32.3504C52.0666 32.3504 52.5755 32.2668 53.0008 32.0998C53.4413 31.9327 53.8818 31.6593 54.3223 31.2795L56.6007 33.6491C55.4007 34.9858 53.6464 35.6541 51.3375 35.6541C49.8945 35.6541 48.6262 35.3807 47.5326 34.8339C46.4389 34.287 45.5883 33.5276 44.9807 32.5554C44.3884 31.5833 44.0922 30.4821 44.0922 29.2517C44.0922 28.0366 44.3808 26.9505 44.958 25.9936C45.5503 25.0214 46.363 24.262 47.3959 23.7151C48.4288 23.1683 49.5908 22.8949 50.8819 22.8949C52.1122 22.8949 53.2286 23.1531 54.2311 23.6696C55.2337 24.1708 56.0235 24.9075 56.6007 25.8796C57.1931 26.8366 57.4893 27.9758 57.4893 29.2973ZM50.9046 25.9708C50.2363 25.9708 49.6743 26.1607 49.2186 26.5404C48.7781 26.9201 48.4971 27.4366 48.3756 28.0897H53.4337C53.3122 27.4366 53.0236 26.9201 52.5679 26.5404C52.1274 26.1607 51.573 25.9708 50.9046 25.9708ZM63.6092 24.5809C64.0497 24.0189 64.6193 23.6012 65.318 23.3278C66.0319 23.0392 66.8445 22.8949 67.7559 22.8949V26.791C67.361 26.7455 67.0344 26.7227 66.7762 26.7227C65.8496 26.7227 65.1205 26.9733 64.5889 27.4745C64.0725 27.9758 63.8142 28.7429 63.8142 29.7758V35.449H59.4852V23.1H63.6092V24.5809ZM71.1871 35.6541C70.458 35.6541 69.8428 35.4111 69.3416 34.925C68.8403 34.4389 68.5897 33.8238 68.5897 33.0795C68.5897 32.32 68.8327 31.7048 69.3188 31.2339C69.82 30.7631 70.4428 30.5276 71.1871 30.5276C71.9466 30.5276 72.5693 30.7631 73.0554 31.2339C73.5415 31.7048 73.7845 32.32 73.7845 33.0795C73.7845 33.8238 73.5339 34.4389 73.0326 34.925C72.5465 35.4111 71.9314 35.6541 71.1871 35.6541ZM79.9409 24.5809C80.3814 24.0189 80.951 23.6012 81.6497 23.3278C82.3636 23.0392 83.1762 22.8949 84.0876 22.8949V26.791C83.6927 26.7455 83.3661 26.7227 83.1079 26.7227C82.1813 26.7227 81.4522 26.9733 80.9206 27.4745C80.4041 27.9758 80.1459 28.7429 80.1459 29.7758V35.449H75.8169V23.1H79.9409V24.5809ZM93.9169 22.8949C95.451 22.8949 96.6814 23.3506 97.6079 24.262C98.5497 25.1733 99.0205 26.548 99.0205 28.3859V35.449H94.6915V29.0922C94.6915 27.4062 94.0156 26.5632 92.6637 26.5632C91.9194 26.5632 91.3195 26.8062 90.8638 27.2923C90.4233 27.7783 90.203 28.5074 90.203 29.4796V35.449H85.874V18.5431H90.203V24.2392C90.6739 23.7987 91.2283 23.4645 91.8663 23.2367C92.5042 23.0088 93.1878 22.8949 93.9169 22.8949ZM101.738 23.1H106.067V35.449H101.738V23.1ZM103.903 21.7329C103.113 21.7329 102.475 21.5127 101.989 21.0722C101.503 20.6317 101.26 20.0849 101.26 19.4317C101.26 18.7786 101.503 18.2317 101.989 17.7912C102.475 17.3507 103.113 17.1305 103.903 17.1305C104.693 17.1305 105.331 17.3431 105.817 17.7685C106.303 18.1786 106.546 18.7102 106.546 19.3634C106.546 20.0469 106.303 20.6165 105.817 21.0722C105.331 21.5127 104.693 21.7329 103.903 21.7329ZM116.924 22.8949C118.458 22.8949 119.688 23.3506 120.615 24.262C121.556 25.1733 122.027 26.548 122.027 28.3859V35.449H117.698V29.0922C117.698 27.4062 117.022 26.5632 115.67 26.5632C114.926 26.5632 114.326 26.8062 113.871 27.2923C113.43 27.7783 113.21 28.5074 113.21 29.4796V35.449H108.881V23.1H113.005V24.4442C113.491 23.943 114.068 23.5632 114.736 23.305C115.405 23.0316 116.134 22.8949 116.924 22.8949ZM131.121 35.6541C129.799 35.6541 128.607 35.3807 127.543 34.8339C126.48 34.287 125.645 33.5276 125.037 32.5554C124.445 31.5833 124.149 30.4821 124.149 29.2517C124.149 28.0366 124.445 26.9429 125.037 25.9708C125.645 24.9987 126.473 24.2468 127.521 23.7151C128.584 23.1683 129.784 22.8949 131.121 22.8949C132.457 22.8949 133.657 23.1683 134.72 23.7151C135.784 24.2468 136.612 24.9987 137.204 25.9708C137.796 26.9277 138.093 28.0214 138.093 29.2517C138.093 30.4821 137.796 31.5833 137.204 32.5554C136.612 33.5276 135.784 34.287 134.72 34.8339C133.657 35.3807 132.457 35.6541 131.121 35.6541ZM131.121 32.2137C131.88 32.2137 132.503 31.9555 132.989 31.439C133.475 30.9074 133.718 30.1783 133.718 29.2517C133.718 28.3403 133.475 27.6264 132.989 27.11C132.503 26.5936 131.88 26.3353 131.121 26.3353C130.361 26.3353 129.738 26.5936 129.252 27.11C128.766 27.6264 128.523 28.3403 128.523 29.2517C128.523 30.1783 128.766 30.9074 129.252 31.439C129.738 31.9555 130.361 32.2137 131.121 32.2137Z" fill="url(#paint2_linear_77_86)"/>
<defs>
<linearGradient id="paint0_linear_77_86" x1="161.704" y1="3.79736" x2="161.704" y2="56.8024" gradientUnits="userSpaceOnUse">
<stop stop-color="#15BFE3"/>
<stop offset="1" stop-color="#1522EC"/>
</linearGradient>
<linearGradient id="paint1_linear_77_86" x1="164.472" y1="5.14228" x2="165.105" y2="48.2583" gradientUnits="userSpaceOnUse">
<stop stop-color="#15BFE3"/>
<stop offset="1" stop-color="#1522EC"/>
</linearGradient>
<linearGradient id="paint2_linear_77_86" x1="69.5" y1="13.449" x2="69.5" y2="41.449" gradientUnits="userSpaceOnUse">
<stop offset="0.28125" stop-color="#15BFE3"/>
<stop offset="1" stop-color="#1522EC"/>
</linearGradient>
</defs>
</svg>
