<svg width="36" height="52" viewBox="0 0 36 52" fill="none" xmlns="http://www.w3.org/2000/svg">
<path fill-rule="evenodd" clip-rule="evenodd" d="M10.0984 3.93391e-05C9.78705 3.93391e-05 9.52797 0.237662 9.48704 0.546349C9.25381 2.30556 8.75813 3.62129 8.33802 4.73642C7.54364 6.84504 7.01948 8.23637 9.05097 10.5524C8.95755 12.3538 9.1903 13.6291 9.34258 14.4635L9.34258 14.4635L9.34258 14.4636L9.34259 14.4636C9.44403 15.0194 9.50976 15.3796 9.41952 15.5691C9.4111 15.5868 9.42544 15.6033 9.4611 15.6187C9.4228 15.7238 9.39608 15.8334 9.38189 15.9456L9.36331 16.0913L9.12784 15.8286V16.4599C8.91323 16.0533 8.77438 15.7153 8.75962 15.6055L8.7642 15.5691C8.75836 15.573 8.75693 15.5855 8.75962 15.6055C8.60803 16.8184 8.64334 17.6132 8.98058 18.6635C8.78453 19.8056 8.5612 20.8787 8.30304 21.9019C5.71665 19.8213 4.45552 17.7279 2.90884 14.5311C0.724728 18.5528 0.0679391 21.2616 0.76809 26.662C1.29907 29.3852 2.38876 31.0912 3.70633 32.0561C2.90387 33.2504 1.99466 34.4785 0.961815 35.7832C0.602463 36.2371 0.523133 36.8593 0.778971 37.3786C1.19749 38.2282 1.59829 38.9534 2.0096 39.5732C2.22137 41.1131 2.43996 41.7802 3.09461 42.2636C3.3632 42.7889 4.25623 42.994 7.77752 43.0106C8.72767 43.1521 9.82313 43.2403 11.1082 43.3052L10.555 48.4912C19.505 52.7993 24.1389 52.3497 31.703 46.318C33.6684 44.4282 34.6029 43.2636 34.845 42.3097L34.914 42.296C35.5079 29.4137 34.0736 22.9188 31.0225 15.295C31.201 15.4929 31.4452 15.6147 31.7156 15.5758C33.5223 15.3163 35.1681 12.6753 35.206 8.62794C35.3542 4.64073 34.4791 2.79456 33.2944 2.3366C32.7876 2.1407 32.352 2.62192 32.2378 3.15312C31.893 4.75674 31.1655 5.87084 30.4963 6.89577C30.1857 7.37151 29.8876 7.82804 29.6462 8.3054C28.2215 7.62815 26.8977 7.08681 25.6324 6.68133L25.6376 6.68174L22.5886 4.9951C21.8398 4.70392 21.1966 4.73194 19.6046 5.15727L17.7452 5.96698C16.2443 6.19863 14.6909 6.63838 13.0044 7.28615L13.0017 7.26583C12.402 3.02569 11.8239 1.41375 10.4969 0.1551C10.3897 0.0534394 10.2462 3.93391e-05 10.0984 3.93391e-05Z" fill="url(#paint0_linear_608_54)"/>
<path d="M27.6061 25.1692L27.56 26.0739C27.5378 26.5094 27.3528 26.9254 27.0469 27.2361C26.8703 27.4155 26.6548 27.5566 26.4194 27.6457C26.0273 27.7939 25.5949 27.7959 25.2015 27.6511L25.0195 27.5842C24.6822 27.4601 24.3834 27.2496 24.153 26.9738C23.9266 26.7029 23.7739 26.3781 23.7097 26.0308L23.5425 25.1266C23.4875 24.8292 23.4675 24.5264 23.4829 24.2244L23.5759 22.3982C23.5886 22.1496 23.6368 21.9041 23.7191 21.6691L23.8826 21.2025C24.0297 20.7825 24.3525 20.4476 24.7667 20.285C25.1595 20.1309 25.5984 20.146 25.9796 20.3267L26.091 20.3795C26.4905 20.5689 26.807 20.8976 26.9812 21.3039L27.1777 21.7625C27.3064 22.0628 27.3873 22.3815 27.4175 22.7068L27.5945 24.6136C27.6116 24.7983 27.6155 24.9839 27.6061 25.1692Z" fill="white"/>
<path d="M25.6185 24.2474L28.3232 23.0741L28.479 24.9611L25.6185 24.2474Z" fill="url(#paint1_linear_608_54)"/>
<path d="M6.69336 33.195L5.68952 35.3135" stroke="white" stroke-width="0.674222"/>
<circle cx="5.52748" cy="35.6467" r="0.551405" fill="white"/>
<circle cx="15.1286" cy="24.0348" r="0.551405" fill="white"/>
<circle cx="13.7662" cy="33.1168" r="0.551405" fill="white"/>
<circle cx="16.0368" cy="29.6786" r="0.551405" fill="white"/>
<path d="M9.51709 32.5654L11.0416 34.4791L13.4742 33.2141" stroke="white" stroke-width="0.674222"/>
<path d="M12.793 27.3757L14.5445 26.954L15.1283 24.0673" stroke="white" stroke-width="0.674222"/>
<path d="M13.02 29.2245L15.8419 29.6786" stroke="white" stroke-width="0.674222"/>
<path d="M5.81945 32.6951L3.71114 32.0464L2.77051 32.8897L5.81945 33.1168L7.99263 33.506L10.4902 32.0464L7.99263 33.1168L5.81945 32.6951Z" fill="white"/>
<path d="M1.47314 38.6957L1.96364 39.5715C1.96364 39.5715 7.61653 39.5316 7.70897 39.5715C7.8014 39.6113 13.9516 39.1141 13.8787 39.0329C15.0267 38.7045 15.6136 38.5097 16.5557 38.1443C15.5608 38.3368 14.9949 38.4382 13.8787 38.5335C14.0247 38.5999 8.07944 38.9885 7.79808 38.9552C7.51672 38.9219 1.47314 38.6957 1.47314 38.6957Z" fill="white"/>
<path d="M8.58309 17.3503L8.49133 16.4052L8.259 17.3372L8.53476 18.5494L8.88056 19.6346L10.0471 20.4932L10.7231 20.6467L10.0575 20.2339L9.39911 19.6555L8.92367 18.5651L8.58309 17.3503Z" fill="white"/>
<path d="M12.7282 29.0947V26.4026L13.1823 29.3867L11.7227 30.8463L12.7282 29.0947Z" fill="white"/>
<path d="M29.6274 11.6119L30.6329 14.6284L31.379 13.0391L31.9628 11.6119L31.379 10.8335L32.1899 9.24413L32.6439 5.96814L31.8006 7.88184L30.6329 9.24413L29.6274 11.6119Z" fill="white"/>
<path d="M11.1387 8.62797L13.0524 7.26568L12.7605 5.51416L12.6631 6.94132L11.1387 8.62797Z" fill="white"/>
<path d="M16.8798 42.4258L11.1063 43.3015L9.84131 44.307L12.6632 45.0206L16.8798 42.4258Z" fill="white"/>
<path d="M9.61453 20.5318L10.1659 20.4669L8.80013 19.3317L8.28467 21.3418L10.4579 23.0942L9.32261 21.44L9.61453 20.5318Z" fill="white"/>
<path d="M25.3135 28.9649L23.335 28.5108L25.3135 29.419H26.9029L28.4922 28.1541L26.9029 28.9649H25.3135Z" fill="white"/>
<path d="M26.189 30.0353L25.1187 29.8407L26.189 30.3921L27.0324 29.8407L26.189 30.0353Z" fill="white"/>
<path d="M28.492 8.91984C28.428 8.37894 29.0434 7.71973 29.0434 7.71973L29.6597 8.27113L28.7515 10.347C28.7515 10.347 28.5468 9.38374 28.492 8.91984Z" fill="white"/>
<path d="M10.8795 23.4185L8.28467 21.894L8.44685 21.2129L8.99825 21.894L10.8795 23.4185Z" fill="white"/>
<defs>
<linearGradient id="paint0_linear_608_54" x1="17.8612" y1="4.04533" x2="17.8612" y2="60.5114" gradientUnits="userSpaceOnUse">
<stop stop-color="#15BFE3"/>
<stop offset="1" stop-color="#1522EC"/>
</linearGradient>
<linearGradient id="paint1_linear_608_54" x1="20.811" y1="5.4781" x2="21.4853" y2="51.4095" gradientUnits="userSpaceOnUse">
<stop stop-color="#15BFE3"/>
<stop offset="1" stop-color="#1522EC"/>
</linearGradient>
</defs>
</svg>
