<svg width="148" height="82" viewBox="0 0 148 82" fill="none" xmlns="http://www.w3.org/2000/svg">
<path fill-rule="evenodd" clip-rule="evenodd" d="M65.0984 0C64.787 0 64.528 0.237623 64.487 0.54631C64.2538 2.30552 63.7581 3.62126 63.338 4.73638C62.5436 6.845 62.0195 8.23633 64.051 10.5524C63.9576 12.3538 64.1903 13.6291 64.3426 14.4635L64.3426 14.4635L64.3426 14.4635L64.3426 14.4635C64.444 15.0194 64.5098 15.3795 64.4195 15.5691C64.4111 15.5868 64.4254 15.6033 64.4611 15.6187C64.4228 15.7237 64.3961 15.8334 64.3819 15.9456L64.3633 16.0912L64.1278 15.8286V16.4599C63.9132 16.0533 63.7744 15.7153 63.7596 15.6055L63.7642 15.5691C63.7584 15.573 63.7569 15.5854 63.7596 15.6055C63.608 16.8184 63.6433 17.6132 63.9806 18.6635C63.7845 19.8055 63.5612 20.8786 63.303 21.9019C60.7167 19.8213 59.4555 17.7279 57.9088 14.5311C55.7247 18.5528 55.0679 21.2616 55.7681 26.662C56.2991 29.3852 57.3888 31.0912 58.7063 32.0561C57.9039 33.2503 56.9947 34.4785 55.9618 35.7832C55.6025 36.2371 55.5231 36.8592 55.779 37.3786C56.1975 38.2282 56.5983 38.9534 57.0096 39.5732C57.2214 41.1131 57.44 41.7801 58.0946 42.2635C58.3632 42.7888 59.2562 42.994 62.7775 43.0105C63.7277 43.152 64.8231 43.2402 66.1082 43.3052L65.555 48.4911C74.505 52.7992 79.1389 52.3497 86.703 46.318C88.6684 44.4282 89.6029 43.2636 89.845 42.3097L89.914 42.296C90.5079 29.4136 89.0736 22.9187 86.0225 15.295C86.201 15.4929 86.4452 15.6146 86.7156 15.5758C88.5223 15.3162 90.1681 12.6753 90.206 8.6279C90.3542 4.64069 89.4791 2.79452 88.2944 2.33656C87.7876 2.14066 87.352 2.62188 87.2378 3.15308C86.893 4.7567 86.1655 5.8708 85.4963 6.89573C85.1857 7.37147 84.8876 7.828 84.6462 8.30536C83.2215 7.62811 81.8977 7.08677 80.6324 6.68129L80.6376 6.6817L77.5886 4.99506C76.8398 4.70388 76.1966 4.7319 74.6046 5.15723L72.7452 5.96694C71.2443 6.19859 69.6909 6.63834 68.0044 7.28611L68.0017 7.26579C67.402 3.02565 66.8239 1.41371 65.4969 0.15506C65.3897 0.0534 65.2462 0 65.0984 0Z" fill="url(#paint0_linear_608_53)"/>
<path d="M82.6061 25.1692L82.56 26.0739C82.5378 26.5094 82.3528 26.9254 82.0469 27.2361C81.8703 27.4155 81.6548 27.5566 81.4194 27.6457C81.0273 27.7939 80.5949 27.7959 80.2015 27.6511L80.0195 27.5842C79.6822 27.4601 79.3834 27.2496 79.153 26.9738C78.9266 26.7029 78.7739 26.3781 78.7097 26.0308L78.5425 25.1266C78.4875 24.8292 78.4675 24.5264 78.4829 24.2244L78.5759 22.3982C78.5886 22.1496 78.6368 21.9041 78.7191 21.6691L78.8826 21.2025C79.0297 20.7825 79.3525 20.4476 79.7667 20.285C80.1595 20.1309 80.5984 20.146 80.9796 20.3267L81.091 20.3795C81.4905 20.5689 81.807 20.8976 81.9812 21.3039L82.1777 21.7625C82.3064 22.0628 82.3873 22.3815 82.4175 22.7068L82.5945 24.6136C82.6116 24.7983 82.6155 24.9839 82.6061 25.1692Z" fill="white"/>
<path d="M80.6185 24.2474L83.3232 23.0741L83.479 24.9611L80.6185 24.2474Z" fill="url(#paint1_linear_608_53)"/>
<path d="M61.6934 33.195L60.6895 35.3135" stroke="white" stroke-width="0.674222"/>
<circle cx="60.5275" cy="35.6467" r="0.551405" fill="white"/>
<circle cx="70.1286" cy="24.0348" r="0.551405" fill="white"/>
<circle cx="68.7663" cy="33.1168" r="0.551405" fill="white"/>
<circle cx="71.0368" cy="29.6786" r="0.551405" fill="white"/>
<path d="M64.5171 32.5654L66.0416 34.4791L68.4742 33.2141" stroke="white" stroke-width="0.674222"/>
<path d="M67.793 27.3757L69.5445 26.954L70.1283 24.0673" stroke="white" stroke-width="0.674222"/>
<path d="M68.02 29.2245L70.8419 29.6786" stroke="white" stroke-width="0.674222"/>
<path d="M60.8195 32.6951L58.7111 32.0464L57.7705 32.8897L60.8195 33.1168L62.9926 33.506L65.4902 32.0464L62.9926 33.1168L60.8195 32.6951Z" fill="white"/>
<path d="M56.4731 38.6957L56.9636 39.5715C56.9636 39.5715 62.6165 39.5316 62.709 39.5715C62.8014 39.6113 68.9516 39.1141 68.8787 39.0329C70.0267 38.7045 70.6136 38.5097 71.5557 38.1443C70.5608 38.3368 69.9949 38.4382 68.8787 38.5335C69.0247 38.5999 63.0794 38.9885 62.7981 38.9552C62.5167 38.9219 56.4731 38.6957 56.4731 38.6957Z" fill="white"/>
<path d="M63.5831 17.3503L63.4913 16.4052L63.259 17.3372L63.5348 18.5494L63.8806 19.6346L65.0471 20.4932L65.7231 20.6467L65.0575 20.2339L64.3991 19.6555L63.9237 18.5651L63.5831 17.3503Z" fill="white"/>
<path d="M67.7282 29.0947V26.4026L68.1823 29.3867L66.7227 30.8463L67.7282 29.0947Z" fill="white"/>
<path d="M84.6274 11.6119L85.6329 14.6284L86.379 13.0391L86.9628 11.6119L86.379 10.8335L87.1899 9.24413L87.6439 5.96814L86.8006 7.88184L85.6329 9.24413L84.6274 11.6119Z" fill="white"/>
<path d="M66.1387 8.62797L68.0524 7.26568L67.7605 5.51416L67.6631 6.94132L66.1387 8.62797Z" fill="white"/>
<path d="M71.8798 42.4258L66.1063 43.3015L64.8413 44.307L67.6632 45.0206L71.8798 42.4258Z" fill="white"/>
<path d="M64.6145 20.5318L65.1659 20.4669L63.8001 19.3317L63.2847 21.3418L65.4579 23.0942L64.3226 21.44L64.6145 20.5318Z" fill="white"/>
<path d="M80.3135 28.9649L78.335 28.5108L80.3135 29.419H81.9029L83.4922 28.1541L81.9029 28.9649H80.3135Z" fill="white"/>
<path d="M81.189 30.0353L80.1187 29.8407L81.189 30.3921L82.0324 29.8407L81.189 30.0353Z" fill="white"/>
<path d="M83.492 8.91984C83.428 8.37894 84.0434 7.71973 84.0434 7.71973L84.6597 8.27113L83.7515 10.347C83.7515 10.347 83.5468 9.38374 83.492 8.91984Z" fill="white"/>
<path d="M65.8795 23.4185L63.2847 21.894L63.4468 21.2129L63.9983 21.894L65.8795 23.4185Z" fill="white"/>
<path d="M8.20394 75.5457C6.74762 75.5457 5.44502 75.2545 4.29614 74.6719C3.16345 74.0894 2.27348 73.2884 1.62622 72.269C0.978971 71.2334 0.655344 70.0522 0.655344 68.7253C0.655344 67.3984 0.978971 66.2253 1.62622 65.2058C2.27348 64.1864 3.16345 63.3935 4.29614 62.8272C5.44502 62.2447 6.74762 61.9534 8.20394 61.9534C9.69262 61.9534 10.979 62.2689 12.0632 62.9C13.1473 63.5311 13.9159 64.421 14.369 65.5699L10.801 67.3903C10.4936 66.7754 10.1133 66.3304 9.66026 66.0554C9.20718 65.7641 8.71365 65.6185 8.17967 65.6185C7.64568 65.6185 7.16024 65.7398 6.72335 65.9825C6.28645 66.2253 5.93855 66.5813 5.67965 67.0505C5.43693 67.5036 5.31557 68.0618 5.31557 68.7253C5.31557 69.4049 5.43693 69.9793 5.67965 70.4486C5.93855 70.9179 6.28645 71.2738 6.72335 71.5166C7.16024 71.7593 7.64568 71.8806 8.17967 71.8806C8.71365 71.8806 9.20718 71.7431 9.66026 71.468C10.1133 71.1768 10.4936 70.7237 10.801 70.1088L14.369 71.9292C13.9159 73.0781 13.1473 73.968 12.0632 74.5991C10.979 75.2302 9.69262 75.5457 8.20394 75.5457ZM18.1257 80.2545C17.4299 80.2545 16.726 80.1412 16.014 79.9147C15.3182 79.7043 14.7519 79.4211 14.315 79.0652L15.9169 75.837C16.192 76.0797 16.5076 76.2658 16.8635 76.3952C17.2357 76.5409 17.5998 76.6137 17.9558 76.6137C18.4574 76.6137 18.8538 76.5004 19.1451 76.2739C19.4364 76.0473 19.6872 75.6914 19.8975 75.2059L20.5043 73.6768L20.8684 73.2156L25.3345 62.1718H29.7277L24.0481 75.8613C23.595 76.9939 23.0691 77.8758 22.4704 78.5069C21.8879 79.1542 21.2325 79.6072 20.5043 79.8661C19.7924 80.125 18.9995 80.2545 18.1257 80.2545ZM19.9218 75.8855L14.1208 62.1718H18.8538L23.1257 72.803L19.9218 75.8855ZM39.1966 75.5457C38.0154 75.5457 37.0283 75.303 36.2355 74.8176C35.4587 74.3321 34.8762 73.5878 34.4879 72.5845C34.0995 71.5813 33.9053 70.2949 33.9053 68.7253C33.9053 67.1881 34.1076 65.9178 34.5121 64.9146C34.9329 63.9113 35.5397 63.167 36.3325 62.6816C37.1254 62.1961 38.0801 61.9534 39.1966 61.9534C40.3941 61.9534 41.4782 62.2285 42.4491 62.7786C43.4361 63.3288 44.2128 64.1136 44.7792 65.133C45.3617 66.1363 45.653 67.3337 45.653 68.7253C45.653 70.1331 45.3617 71.3467 44.7792 72.3661C44.2128 73.3693 43.4361 74.1541 42.4491 74.7205C41.4782 75.2706 40.3941 75.5457 39.1966 75.5457ZM30.9199 75.3273V57.3174H35.5316V64.3806L35.2888 68.7253L35.3131 73.07V75.3273H30.9199ZM38.2258 71.8806C38.7436 71.8806 39.2047 71.7593 39.6093 71.5166C40.03 71.2738 40.3617 70.9179 40.6044 70.4486C40.8633 69.9632 40.9928 69.3887 40.9928 68.7253C40.9928 68.0618 40.8633 67.5036 40.6044 67.0505C40.3617 66.5813 40.03 66.2253 39.6093 65.9825C39.2047 65.7398 38.7436 65.6185 38.2258 65.6185C37.708 65.6185 37.2387 65.7398 36.818 65.9825C36.4134 66.2253 36.0817 66.5813 35.8228 67.0505C35.5801 67.5036 35.4587 68.0618 35.4587 68.7253C35.4587 69.3887 35.5801 69.9632 35.8228 70.4486C36.0817 70.9179 36.4134 71.2738 36.818 71.5166C37.2387 71.7593 37.708 71.8806 38.2258 71.8806ZM54.6898 75.5457C53.1364 75.5457 51.7771 75.2545 50.6121 74.6719C49.4632 74.0732 48.5651 73.2641 47.9179 72.2447C47.2868 71.2091 46.9713 70.036 46.9713 68.7253C46.9713 67.4146 47.2787 66.2495 47.8936 65.2301C48.5247 64.1945 49.3904 63.3935 50.4907 62.8272C51.591 62.2447 52.8289 61.9534 54.2043 61.9534C55.4988 61.9534 56.6801 62.2204 57.748 62.7544C58.816 63.2722 59.6655 64.0408 60.2966 65.0602C60.9277 66.0796 61.2432 67.3175 61.2432 68.7738C61.2432 68.9356 61.2351 69.1217 61.2189 69.3321C61.2027 69.5424 61.1866 69.7366 61.1704 69.9146H50.7577V67.4874H58.7189L56.9713 68.167C56.9875 67.5683 56.8742 67.0505 56.6315 66.6136C56.405 66.1767 56.0814 65.8369 55.6606 65.5942C55.2561 65.3515 54.7788 65.2301 54.2286 65.2301C53.6784 65.2301 53.193 65.3515 52.7723 65.5942C52.3677 65.8369 52.0522 66.1848 51.8257 66.6379C51.5991 67.0748 51.4859 67.5926 51.4859 68.1913V68.8952C51.4859 69.5424 51.6153 70.1007 51.8742 70.57C52.1493 71.0392 52.5376 71.4033 53.0393 71.6622C53.5409 71.9049 54.1396 72.0263 54.8354 72.0263C55.4826 72.0263 56.0328 71.9373 56.4859 71.7593C56.9551 71.5651 57.4163 71.2738 57.8694 70.8855L60.2966 73.4098C59.6655 74.1056 58.8888 74.6396 57.9665 75.0117C57.0441 75.3677 55.9519 75.5457 54.6898 75.5457ZM63.3695 75.3273V62.1718H67.7627V66.0068L67.1074 64.9146C67.4957 63.9275 68.1268 63.1913 69.0006 62.7058C69.8744 62.2042 70.9342 61.9534 72.1802 61.9534V66.1039C71.9698 66.0715 71.7838 66.0554 71.6219 66.0554C71.4763 66.0392 71.3145 66.0311 71.1365 66.0311C70.198 66.0311 69.4375 66.29 68.8549 66.8078C68.2724 67.3094 67.9811 68.1347 67.9811 69.2835V75.3273H63.3695ZM75.8354 75.5457C75.0587 75.5457 74.4034 75.2868 73.8694 74.769C73.3354 74.2512 73.0684 73.5959 73.0684 72.803C73.0684 71.9777 73.3354 71.3224 73.8694 70.8369C74.4034 70.3353 75.0587 70.0845 75.8354 70.0845C76.6121 70.0845 77.2675 70.3353 77.8014 70.8369C78.3354 71.3224 78.6024 71.9777 78.6024 72.803C78.6024 73.5959 78.3354 74.2512 77.8014 74.769C77.2675 75.2868 76.6121 75.5457 75.8354 75.5457ZM80.7676 75.3273V62.1718H85.1608V66.0068L84.5055 64.9146C84.8938 63.9275 85.5249 63.1913 86.3987 62.7058C87.2725 62.2042 88.3323 61.9534 89.5783 61.9534V66.1039C89.3679 66.0715 89.1819 66.0554 89.02 66.0554C88.8744 66.0392 88.7126 66.0311 88.5346 66.0311C87.5961 66.0311 86.8356 66.29 86.253 66.8078C85.6705 67.3094 85.3792 68.1347 85.3792 69.2835V75.3273H80.7676ZM100.049 61.9534C101.069 61.9534 101.991 62.1638 102.816 62.5845C103.642 62.989 104.289 63.6201 104.758 64.4777C105.244 65.3353 105.486 66.4437 105.486 67.8029V75.3273H100.875V68.5554C100.875 67.6169 100.68 66.9372 100.292 66.5165C99.9199 66.0796 99.3941 65.8612 98.7144 65.8612C98.229 65.8612 97.784 65.9745 97.3795 66.201C96.9749 66.4114 96.6594 66.7431 96.4329 67.1961C96.2063 67.6492 96.0931 68.2398 96.0931 68.968V75.3273H91.4814V57.3174H96.0931V65.9097L95.0251 64.8175C95.5267 63.8628 96.2144 63.1508 97.0882 62.6816C97.962 62.1961 98.9491 61.9534 100.049 61.9534ZM108.382 75.3273V62.1718H112.993V75.3273H108.382ZM110.688 60.7155C109.846 60.7155 109.167 60.4809 108.649 60.0116C108.131 59.5424 107.872 58.9598 107.872 58.2641C107.872 57.5683 108.131 56.9857 108.649 56.5165C109.167 56.0472 109.846 55.8126 110.688 55.8126C111.529 55.8126 112.209 56.0391 112.726 56.4922C113.244 56.9291 113.503 57.4954 113.503 58.1912C113.503 58.9194 113.244 59.5262 112.726 60.0116C112.225 60.4809 111.545 60.7155 110.688 60.7155ZM124.558 61.9534C125.578 61.9534 126.5 62.1638 127.325 62.5845C128.151 62.989 128.798 63.6201 129.267 64.4777C129.753 65.3353 129.995 66.4437 129.995 67.8029V75.3273H125.384V68.5554C125.384 67.6169 125.19 66.9372 124.801 66.5165C124.429 66.0796 123.903 65.8612 123.223 65.8612C122.738 65.8612 122.293 65.9745 121.889 66.201C121.484 66.4114 121.168 66.7431 120.942 67.1961C120.715 67.6492 120.602 68.2398 120.602 68.968V75.3273H115.99V62.1718H120.384V65.9097L119.534 64.8175C120.036 63.8628 120.723 63.1508 121.597 62.6816C122.471 62.1961 123.458 61.9534 124.558 61.9534ZM139.659 75.5457C138.219 75.5457 136.94 75.2545 135.824 74.6719C134.707 74.0894 133.825 73.2884 133.178 72.269C132.547 71.2334 132.231 70.0522 132.231 68.7253C132.231 67.3984 132.547 66.2253 133.178 65.2058C133.825 64.1864 134.707 63.3935 135.824 62.8272C136.94 62.2447 138.219 61.9534 139.659 61.9534C141.099 61.9534 142.377 62.2447 143.494 62.8272C144.626 63.3935 145.508 64.1864 146.139 65.2058C146.77 66.2253 147.086 67.3984 147.086 68.7253C147.086 70.0522 146.77 71.2334 146.139 72.269C145.508 73.2884 144.626 74.0894 143.494 74.6719C142.377 75.2545 141.099 75.5457 139.659 75.5457ZM139.659 71.8806C140.193 71.8806 140.662 71.7593 141.066 71.5166C141.487 71.2738 141.819 70.9179 142.062 70.4486C142.304 69.9632 142.426 69.3887 142.426 68.7253C142.426 68.0618 142.304 67.5036 142.062 67.0505C141.819 66.5813 141.487 66.2253 141.066 65.9825C140.662 65.7398 140.193 65.6185 139.659 65.6185C139.141 65.6185 138.672 65.7398 138.251 65.9825C137.846 66.2253 137.515 66.5813 137.256 67.0505C137.013 67.5036 136.892 68.0618 136.892 68.7253C136.892 69.3887 137.013 69.9632 137.256 70.4486C137.515 70.9179 137.846 71.2738 138.251 71.5166C138.672 71.7593 139.141 71.8806 139.659 71.8806Z" fill="url(#paint2_linear_608_53)"/>
<defs>
<linearGradient id="paint0_linear_608_53" x1="72.8612" y1="4.04533" x2="72.8612" y2="60.5114" gradientUnits="userSpaceOnUse">
<stop stop-color="#15BFE3"/>
<stop offset="1" stop-color="#1522EC"/>
</linearGradient>
<linearGradient id="paint1_linear_608_53" x1="75.811" y1="5.4781" x2="76.4853" y2="51.4095" gradientUnits="userSpaceOnUse">
<stop stop-color="#15BFE3"/>
<stop offset="1" stop-color="#1522EC"/>
</linearGradient>
<linearGradient id="paint2_linear_608_53" x1="74" y1="51.3273" x2="74" y2="81.3273" gradientUnits="userSpaceOnUse">
<stop offset="0.28125" stop-color="#15BFE3"/>
<stop offset="1" stop-color="#1522EC"/>
</linearGradient>
</defs>
</svg>
