<svg width="691" height="187" viewBox="0 0 691 187" fill="none" xmlns="http://www.w3.org/2000/svg">
<path fill-rule="evenodd" clip-rule="evenodd" d="M599.094 0.0289459C597.96 0.0289459 597.017 0.893992 596.868 2.01774C596.019 8.42199 594.214 13.2118 592.685 17.2713C589.793 24.9476 587.885 30.0126 595.28 38.444C594.94 45.0018 595.788 49.6446 596.342 52.6821C596.711 54.7057 596.951 56.0167 596.622 56.7068C596.591 56.7712 596.644 56.8313 596.773 56.8872C596.634 57.2697 596.537 57.6689 596.485 58.0773C596.462 58.2547 596.44 58.4317 596.417 58.6082L595.559 57.6515V59.9508C594.778 58.47 594.272 57.239 594.218 56.8391L594.235 56.7068C594.214 56.721 594.209 56.7663 594.218 56.8391C593.666 61.2557 593.795 64.1493 595.024 67.9742C594.31 72.1309 593.497 76.0369 592.557 79.7614C583.142 72.187 578.55 64.5661 572.92 52.9283C564.969 67.5689 562.578 77.43 565.127 97.0898C567.06 107.004 571.027 113.214 575.823 116.727C572.902 121.074 569.592 125.545 565.832 130.294C564.524 131.947 564.235 134.212 565.167 136.102C566.69 139.195 568.15 141.835 569.647 144.092C570.418 149.698 571.214 152.126 573.597 153.886C574.575 155.798 577.826 156.545 590.645 156.605C594.104 157.12 598.091 157.441 602.769 157.678L600.755 176.557C633.337 192.24 650.206 190.603 677.742 168.645C684.897 161.766 688.299 157.526 689.181 154.054L689.432 154.004C691.594 107.107 686.373 83.4629 675.266 55.7095C675.916 56.4297 676.805 56.8724 677.789 56.7311C684.365 55.7863 690.357 46.1721 690.495 31.4379C691.035 16.9228 687.849 10.202 683.536 8.53484C681.691 7.82167 680.105 9.57352 679.689 11.5073C678.434 17.3451 675.786 21.4009 673.35 25.1321C672.219 26.8639 671.134 28.5258 670.255 30.2635C665.069 27.7984 660.251 25.8279 655.645 24.3518L655.662 24.3532L644.562 18.2131C641.836 17.1531 639.495 17.2551 633.699 18.8035L626.93 21.7511C621.466 22.5944 615.812 24.1953 609.672 26.5533L609.667 26.5128L609.663 26.4794C607.48 11.0436 605.375 5.17544 600.544 0.593429C600.154 0.223344 599.631 0.0289459 599.094 0.0289459Z" fill="url(#paint0_linear_110_2)"/>
<path d="M662.827 91.6552L662.66 94.9488C662.579 96.5341 661.905 98.0485 660.792 99.1797C660.149 99.8328 659.365 100.347 658.507 100.671C657.08 101.21 655.506 101.217 654.074 100.691L653.411 100.447C652.183 99.995 651.096 99.2289 650.257 98.2249C649.433 97.2384 648.877 96.056 648.643 94.792L648.034 91.5001C647.834 90.4176 647.761 89.3154 647.817 88.2159L648.156 81.5678C648.202 80.6627 648.378 79.7688 648.677 78.9135L649.273 77.2148C649.808 75.6861 650.983 74.4666 652.491 73.8749C653.921 73.314 655.519 73.3689 656.906 74.0266L657.312 74.2189C658.766 74.9081 659.919 76.1048 660.553 77.584L661.268 79.2535C661.737 80.3469 662.031 81.5068 662.141 82.6913L662.785 89.6328C662.848 90.305 662.862 90.9809 662.827 91.6552Z" fill="white"/>
<path d="M655.592 88.2994L665.438 84.0281L666.005 90.8976L655.592 88.2994Z" fill="url(#paint1_linear_110_2)"/>
<path d="M586.697 120.872L583.043 128.585" stroke="white" stroke-width="2.45445"/>
<circle cx="582.453" cy="129.798" r="2.00734" fill="white"/>
<circle cx="617.404" cy="87.5253" r="2.00734" fill="white"/>
<circle cx="612.445" cy="120.587" r="2.00734" fill="white"/>
<circle cx="620.71" cy="108.071" r="2.00734" fill="white"/>
<path d="M596.976 118.58L602.526 125.547L611.382 120.942" stroke="white" stroke-width="2.45445"/>
<path d="M608.902 99.6875L615.279 98.1525L617.404 87.6434" stroke="white" stroke-width="2.45445"/>
<path d="M609.729 106.418L620.002 108.071" stroke="white" stroke-width="2.45445"/>
<path d="M583.515 119.052L575.84 116.691L572.416 119.761L583.515 120.587L591.427 122.004L600.519 116.691L591.427 120.587L583.515 119.052Z" fill="white"/>
<path d="M567.693 140.897L569.478 144.085C569.478 144.085 590.057 143.94 590.394 144.085C590.73 144.23 613.119 142.42 612.854 142.124C617.034 140.929 619.17 140.22 622.6 138.89C618.978 139.59 616.918 139.96 612.854 140.307C613.386 140.548 591.743 141.963 590.718 141.842C589.694 141.72 567.693 140.897 567.693 140.897Z" fill="white"/>
<path d="M593.576 63.1907L593.242 59.7502L592.396 63.1432L593.4 67.5561L594.659 71.5066L598.906 74.6321L601.367 75.1912L598.944 73.6883L596.547 71.5827L594.816 67.6132L593.576 63.1907Z" fill="white"/>
<path d="M608.666 105.946V96.1451L610.319 107.008L605.006 112.322L608.666 105.946Z" fill="white"/>
<path d="M670.185 42.3011L673.846 53.2824L676.562 47.4966L678.687 42.3011L676.562 39.4672L679.514 33.6814L681.167 21.7554L678.097 28.7221L673.846 33.6814L670.185 42.3011Z" fill="white"/>
<path d="M602.88 31.4379L609.847 26.4786L608.784 20.1023L608.43 25.2978L602.88 31.4379Z" fill="white"/>
<path d="M623.78 154.476L602.762 157.664L598.157 161.325L608.43 163.922L623.78 154.476Z" fill="white"/>
<path d="M597.331 74.7728L599.338 74.5366L594.366 70.4039L592.49 77.7215L600.401 84.101L596.268 78.079L597.331 74.7728Z" fill="white"/>
<path d="M654.481 105.473L647.278 103.82L654.481 107.126H660.267L666.053 102.521L660.267 105.473H654.481Z" fill="white"/>
<path d="M657.669 109.37L653.772 108.661L657.669 110.669L660.739 108.661L657.669 109.37Z" fill="white"/>
<path d="M666.053 32.5006C665.82 30.5315 668.06 28.1317 668.06 28.1317L670.303 30.139L666.997 37.696C666.997 37.696 666.252 34.1893 666.053 32.5006Z" fill="white"/>
<path d="M601.936 85.2818L592.49 79.7321L593.08 77.2524L595.087 79.7321L601.936 85.2818Z" fill="white"/>
<path d="M30.1069 138.981C24.8053 138.981 20.0633 137.921 15.881 135.8C11.6986 133.68 8.42925 130.734 6.07298 126.964C3.77562 123.194 2.62693 118.923 2.62693 114.152C2.62693 109.381 3.77562 105.139 6.07298 101.428C8.42925 97.6581 11.6986 94.7422 15.881 92.6805C20.0633 90.5598 24.8053 89.4995 30.1069 89.4995C35.5264 89.4995 40.2094 90.6776 44.1562 93.0339C48.1029 95.3313 50.901 98.5417 52.5504 102.665L39.5615 109.292C37.3819 104.992 34.201 102.842 30.0186 102.842C27.0143 102.842 24.5108 103.843 22.508 105.846C20.564 107.849 19.5921 110.618 19.5921 114.152C19.5921 117.745 20.564 120.573 22.508 122.635C24.5108 124.637 27.0143 125.639 30.0186 125.639C34.201 125.639 37.3819 123.489 39.5615 119.189L52.5504 125.816C50.901 129.939 48.1029 133.179 44.1562 135.535C40.2094 137.833 35.5264 138.981 30.1069 138.981ZM108.462 90.2947L87.7861 140.13C85.3709 146.021 82.4256 150.144 78.9501 152.5C75.4746 154.915 71.2333 156.123 66.2262 156.123C63.6932 156.123 61.1308 155.711 58.5389 154.886C56.0059 154.12 53.9441 153.089 52.3537 151.793L58.1854 140.042C59.1279 140.925 60.2472 141.603 61.5431 142.074C62.898 142.604 64.2528 142.869 65.6077 142.869C67.1982 142.869 68.4941 142.545 69.4955 141.897C70.5559 141.249 71.4395 140.218 72.1463 138.804L51.6468 90.2947H68.877L80.6289 119.542L92.4692 90.2947H108.462ZM142.933 89.4995C147.292 89.4995 151.239 90.5009 154.773 92.5038C158.367 94.5066 161.194 97.393 163.256 101.163C165.377 104.874 166.437 109.204 166.437 114.152C166.437 119.1 165.377 123.459 163.256 127.229C161.194 130.999 158.367 133.915 154.773 135.977C151.239 137.98 147.292 138.981 142.933 138.981C136.63 138.981 131.918 137.126 128.796 133.414V138.186H112.802V72.6227H129.591V94.4477C132.831 91.1489 137.278 89.4995 142.933 89.4995ZM139.399 125.639C142.344 125.639 144.759 124.637 146.644 122.635C148.529 120.573 149.472 117.745 149.472 114.152C149.472 110.618 148.529 107.849 146.644 105.846C144.759 103.843 142.344 102.842 139.399 102.842C136.453 102.842 134.038 103.843 132.153 105.846C130.268 107.849 129.326 110.618 129.326 114.152C129.326 117.745 130.268 120.573 132.153 122.635C134.038 124.637 136.453 125.639 139.399 125.639ZM223.192 114.329C223.192 114.447 223.103 115.831 222.927 118.482H188.113C188.82 120.956 190.175 122.87 192.177 124.225C194.239 125.521 196.802 126.169 199.865 126.169C202.162 126.169 204.135 125.845 205.785 125.197C207.493 124.549 209.201 123.489 210.91 122.016L219.746 131.205C215.092 136.389 208.288 138.981 199.335 138.981C193.738 138.981 188.82 137.921 184.578 135.8C180.337 133.68 177.038 130.734 174.682 126.964C172.385 123.194 171.236 118.923 171.236 114.152C171.236 109.439 172.355 105.228 174.594 101.516C176.891 97.7465 180.043 94.8011 184.048 92.6805C188.054 90.5598 192.56 89.4995 197.567 89.4995C202.339 89.4995 206.668 90.5009 210.556 92.5038C214.444 94.4477 217.507 97.3047 219.746 101.075C222.043 104.786 223.192 109.204 223.192 114.329ZM197.656 101.428C195.064 101.428 192.884 102.164 191.117 103.637C189.409 105.11 188.319 107.113 187.848 109.646H207.464C206.992 107.113 205.873 105.11 204.106 103.637C202.398 102.164 200.248 101.428 197.656 101.428ZM246.925 96.0382C248.634 93.8586 250.843 92.2387 253.552 91.1784C256.321 90.0591 259.473 89.4995 263.007 89.4995V104.609C261.475 104.432 260.209 104.344 259.207 104.344C255.614 104.344 252.787 105.316 250.725 107.26C248.722 109.204 247.721 112.179 247.721 116.184V138.186H230.932V90.2947H246.925V96.0382ZM276.313 138.981C273.486 138.981 271.1 138.039 269.156 136.154C267.212 134.269 266.24 131.883 266.24 128.996C266.24 126.051 267.183 123.665 269.068 121.839C271.012 120.013 273.427 119.1 276.313 119.1C279.259 119.1 281.674 120.013 283.559 121.839C285.444 123.665 286.387 126.051 286.387 128.996C286.387 131.883 285.415 134.269 283.471 136.154C281.586 138.039 279.2 138.981 276.313 138.981ZM310.262 96.0382C311.97 93.8586 314.179 92.2387 316.889 91.1784C319.657 90.0591 322.809 89.4995 326.343 89.4995V104.609C324.812 104.432 323.545 104.344 322.544 104.344C318.95 104.344 316.123 105.316 314.061 107.26C312.058 109.204 311.057 112.179 311.057 116.184V138.186H294.269V90.2947H310.262V96.0382ZM364.462 89.4995C370.412 89.4995 375.183 91.2667 378.777 94.8011C382.429 98.3355 384.255 103.667 384.255 110.794V138.186H367.467V113.533C367.467 106.995 364.845 103.725 359.603 103.725C356.716 103.725 354.389 104.668 352.622 106.553C350.914 108.438 350.06 111.266 350.06 115.036V138.186H333.271V72.6227H350.06V94.7128C351.886 93.0045 354.036 91.7085 356.51 90.8249C358.984 89.9413 361.635 89.4995 364.462 89.4995ZM394.795 90.2947H411.584V138.186H394.795V90.2947ZM403.19 84.9931C400.126 84.9931 397.652 84.139 395.767 82.4307C393.882 80.7224 392.94 78.6018 392.94 76.0688C392.94 73.5358 393.882 71.4151 395.767 69.7068C397.652 67.9985 400.126 67.1444 403.19 67.1444C406.253 67.1444 408.727 67.9691 410.612 69.6185C412.497 71.209 413.439 73.2707 413.439 75.8037C413.439 78.4545 412.497 80.6635 410.612 82.4307C408.727 84.139 406.253 84.9931 403.19 84.9931ZM453.685 89.4995C459.635 89.4995 464.406 91.2667 468 94.8011C471.652 98.3355 473.478 103.667 473.478 110.794V138.186H456.69V113.533C456.69 106.995 454.068 103.725 448.826 103.725C445.939 103.725 443.612 104.668 441.845 106.553C440.137 108.438 439.283 111.266 439.283 115.036V138.186H422.494V90.2947H438.487V95.508C440.372 93.5641 442.611 92.0914 445.203 91.09C447.795 90.0297 450.622 89.4995 453.685 89.4995ZM508.743 138.981C503.618 138.981 498.994 137.921 494.87 135.8C490.747 133.68 487.507 130.734 485.151 126.964C482.853 123.194 481.705 118.923 481.705 114.152C481.705 109.439 482.853 105.198 485.151 101.428C487.507 97.6581 490.717 94.7422 494.782 92.6805C498.905 90.5598 503.559 89.4995 508.743 89.4995C513.927 89.4995 518.58 90.5598 522.704 92.6805C526.827 94.7422 530.038 97.6581 532.335 101.428C534.632 105.139 535.781 109.381 535.781 114.152C535.781 118.923 534.632 123.194 532.335 126.964C530.038 130.734 526.827 133.68 522.704 135.8C518.58 137.921 513.927 138.981 508.743 138.981ZM508.743 125.639C511.688 125.639 514.103 124.637 515.988 122.635C517.873 120.573 518.816 117.745 518.816 114.152C518.816 110.618 517.873 107.849 515.988 105.846C514.103 103.843 511.688 102.842 508.743 102.842C505.797 102.842 503.382 103.843 501.497 105.846C499.612 107.849 498.67 110.618 498.67 114.152C498.67 117.745 499.612 120.573 501.497 122.635C503.382 124.637 505.797 125.639 508.743 125.639Z" fill="url(#paint2_linear_110_2)"/>
<defs>
<linearGradient id="paint0_linear_110_2" x1="627.353" y1="14.7556" x2="627.353" y2="220.316" gradientUnits="userSpaceOnUse">
<stop stop-color="#15BFE3"/>
<stop offset="1" stop-color="#1522EC"/>
</linearGradient>
<linearGradient id="paint1_linear_110_2" x1="638.091" y1="19.9713" x2="640.545" y2="187.181" gradientUnits="userSpaceOnUse">
<stop stop-color="#15BFE3"/>
<stop offset="1" stop-color="#1522EC"/>
</linearGradient>
<linearGradient id="paint2_linear_110_2" x1="269.241" y1="52.1859" x2="269.241" y2="160.186" gradientUnits="userSpaceOnUse">
<stop offset="0.28125" stop-color="#15BFE3"/>
<stop offset="1" stop-color="#1522EC"/>
</linearGradient>
</defs>
</svg>
