<svg width="213" height="49" viewBox="0 0 213 49" fill="none" xmlns="http://www.w3.org/2000/svg">
<path fill-rule="evenodd" clip-rule="evenodd" d="M188.843 0.512826C188.882 0.22306 189.125 0 189.417 0C189.556 0 189.691 0.0501284 189.791 0.145557C191.037 1.32706 191.58 2.84019 192.142 6.82044L192.145 6.83964C193.728 6.2316 195.186 5.81879 196.595 5.60129L198.34 4.84114C199.835 4.44188 200.439 4.41557 201.142 4.6889L204.004 6.27216L204 6.27185C205.187 6.65241 206.43 7.16045 207.767 7.79601C207.993 7.348 208.273 6.91953 208.565 6.47302C209.193 5.51092 209.876 4.4651 210.199 2.95978C210.306 2.46114 210.715 2.00941 211.191 2.19331C212.303 2.6232 213.125 4.35621 212.986 8.09902C212.95 11.8983 211.405 14.3774 209.709 14.621C209.456 14.6574 209.227 14.5436 209.059 14.3583C211.923 21.5144 213.269 27.6112 212.712 39.7034L212.647 39.7164C212.419 40.6118 211.542 41.7051 209.697 43.4789C202.597 49.1409 198.247 49.5629 189.845 45.5189L190.365 40.6508C189.158 40.5898 188.13 40.507 187.238 40.3742C183.933 40.3587 183.095 40.1661 182.843 39.673C182.229 39.2194 182.023 38.5934 181.825 37.1488C181.438 36.5667 181.062 35.8855 180.669 35.0874C180.428 34.5999 180.503 34.0159 180.84 33.5898C181.81 32.3651 182.663 31.2122 183.417 30.0912C182.18 29.1854 181.157 27.584 180.658 25.0278C180.001 19.9584 180.618 17.4156 182.668 13.6404C184.12 16.6413 185.304 18.6064 187.731 20.5594C187.974 19.5992 188.183 18.5923 188.367 17.5207C188.05 16.5341 188.017 15.7879 188.16 14.6489C188.176 14.7745 188.366 15.2176 188.646 15.708C188.68 15.4648 188.713 15.2182 188.744 14.9682C188.758 14.8628 188.783 14.7597 188.819 14.661C188.786 14.6467 188.772 14.6313 188.78 14.6148C188.865 14.4368 188.803 14.0988 188.708 13.577L188.708 13.577C188.565 12.7938 188.347 11.5968 188.434 9.90605C186.527 7.73167 187.019 6.42558 187.765 4.44607L187.765 4.44606C188.159 3.39929 188.624 2.1642 188.843 0.512826ZM188.164 14.6148C188.158 14.6184 188.157 14.6301 188.16 14.6489L188.164 14.6148Z" fill="url(#paint0_linear_512_49)"/>
<path d="M205.851 23.6264L205.807 24.4757C205.787 24.8845 205.613 25.275 205.326 25.5667C205.16 25.7351 204.958 25.8676 204.737 25.9512C204.369 26.0903 203.963 26.0921 203.594 25.9563L203.423 25.8934C203.106 25.7769 202.826 25.5794 202.609 25.3205C202.397 25.0661 202.253 24.7612 202.193 24.4353L202.036 23.5865C201.985 23.3073 201.966 23.0231 201.98 22.7396L202.068 21.0254C202.08 20.792 202.125 20.5615 202.202 20.3409L202.356 19.9029C202.494 19.5087 202.797 19.1943 203.185 19.0417C203.554 18.8971 203.966 18.9112 204.324 19.0808L204.429 19.1304C204.804 19.3081 205.101 19.6167 205.264 19.9981L205.449 20.4286C205.569 20.7105 205.645 21.0096 205.674 21.3151L205.84 23.105C205.856 23.2783 205.86 23.4526 205.851 23.6264Z" fill="white"/>
<path d="M203.985 22.7612L206.524 21.6598L206.67 23.4311L203.985 22.7612Z" fill="url(#paint1_linear_512_49)"/>
<path d="M186.221 31.1603L185.279 33.149" stroke="white" stroke-width="0.632896"/>
<circle cx="185.127" cy="33.4617" r="0.517606" fill="white"/>
<circle cx="194.139" cy="22.5615" r="0.517606" fill="white"/>
<circle cx="192.86" cy="31.0868" r="0.517606" fill="white"/>
<circle cx="194.992" cy="27.8594" r="0.517606" fill="white"/>
<path d="M188.872 30.5692L190.303 32.3656L192.586 31.1782" stroke="white" stroke-width="0.632896"/>
<path d="M191.947 25.6976L193.591 25.3018L194.139 22.592" stroke="white" stroke-width="0.632896"/>
<path d="M192.16 27.4331L194.809 27.8594" stroke="white" stroke-width="0.632896"/>
<path d="M185.4 30.691L183.421 30.082L182.538 30.8737L185.4 31.0868L187.44 31.4522L189.785 30.082L187.44 31.0868L185.4 30.691Z" fill="white"/>
<path d="M181 36.5176L181.46 37.3397C181.46 37.3397 186.767 37.3023 186.854 37.3397C186.94 37.3771 192.714 36.9104 192.645 36.8341C193.723 36.5259 194.274 36.343 195.158 36C194.224 36.1807 193.693 36.2759 192.645 36.3654C192.782 36.4277 187.201 36.7924 186.937 36.7612C186.673 36.73 181 36.5176 181 36.5176Z" fill="white"/>
<path d="M187.995 16.2867L187.909 15.3995L187.691 16.2744L187.949 17.4123L188.274 18.431L189.369 19.2369L190.004 19.3811L189.379 18.9935L188.761 18.4506L188.314 17.427L187.995 16.2867Z" fill="white"/>
<path d="M191.886 27.3113V24.7842L192.312 27.5853L190.942 28.9555L191.886 27.3113Z" fill="white"/>
<path d="M207.749 10.9002L208.692 13.7318L209.393 12.2398L209.941 10.9002L209.393 10.1694L210.154 8.6775L210.58 5.60231L209.789 7.39871L208.692 8.6775L207.749 10.9002Z" fill="white"/>
<path d="M190.394 8.09899L192.19 6.8202L191.916 5.17604L191.825 6.51573L190.394 8.09899Z" fill="white"/>
<path d="M195.783 39.8252L190.363 40.6473L189.176 41.5911L191.825 42.261L195.783 39.8252Z" fill="white"/>
<path d="M188.963 19.2732L189.48 19.2123L188.198 18.1466L187.714 20.0335L189.754 21.6785L188.689 20.1257L188.963 19.2732Z" fill="white"/>
<path d="M203.7 27.1895L201.842 26.7633L203.7 27.6158H205.192L206.683 26.4283L205.192 27.1895H203.7Z" fill="white"/>
<path d="M204.521 28.1943L203.517 28.0116L204.521 28.5292L205.313 28.0116L204.521 28.1943Z" fill="white"/>
<path d="M206.683 8.37303C206.623 7.86528 207.201 7.24648 207.201 7.24648L207.779 7.76408L206.927 9.71272C206.927 9.71272 206.735 8.80849 206.683 8.37303Z" fill="white"/>
<path d="M190.15 21.983L187.714 20.552L187.867 19.9126L188.384 20.552L190.15 21.983Z" fill="white"/>
<path d="M42.7011 35.6541C41.334 35.6541 40.1113 35.3807 39.0328 34.8339C37.9695 34.287 37.1341 33.5352 36.5265 32.5782C35.919 31.6061 35.6152 30.4973 35.6152 29.2517C35.6152 28.0062 35.919 26.9049 36.5265 25.948C37.1341 24.9911 37.9695 24.2468 39.0328 23.7151C40.1113 23.1683 41.334 22.8949 42.7011 22.8949C44.0985 22.8949 45.3061 23.1911 46.3238 23.7835C47.3415 24.3759 48.063 25.2113 48.4883 26.2898L45.139 27.9986C44.8504 27.4214 44.4934 27.0037 44.0681 26.7455C43.6428 26.472 43.1795 26.3353 42.6783 26.3353C42.177 26.3353 41.7214 26.4493 41.3112 26.6771C40.9011 26.9049 40.5745 27.2391 40.3315 27.6796C40.1037 28.1049 39.9898 28.6289 39.9898 29.2517C39.9898 29.8897 40.1037 30.4289 40.3315 30.8694C40.5745 31.3099 40.9011 31.6441 41.3112 31.8719C41.7214 32.0998 42.177 32.2137 42.6783 32.2137C43.1795 32.2137 43.6428 32.0846 44.0681 31.8263C44.4934 31.5529 44.8504 31.1276 45.139 30.5504L48.4883 32.2592C48.063 33.3377 47.3415 34.1731 46.3238 34.7655C45.3061 35.3579 44.0985 35.6541 42.7011 35.6541ZM52.0147 40.0742C51.3615 40.0742 50.7008 39.9679 50.0324 39.7553C49.3793 39.5578 48.8477 39.292 48.4375 38.9578L49.9413 35.9275C50.1995 36.1553 50.4957 36.33 50.8299 36.4515C51.1793 36.5882 51.521 36.6566 51.8552 36.6566C52.3261 36.6566 52.6982 36.5503 52.9716 36.3376C53.245 36.125 53.4805 35.7908 53.6779 35.3351L54.2475 33.8997L54.5893 33.4668L58.7816 23.1H62.9055L57.574 35.9503C57.1487 37.0136 56.6551 37.8414 56.0931 38.4338C55.5462 39.0414 54.9311 39.4667 54.2475 39.7097C53.5792 39.9527 52.8349 40.0742 52.0147 40.0742ZM53.7007 35.9731L48.2553 23.1H52.6982L56.7082 33.0795L53.7007 35.9731ZM71.7941 35.6541C70.6852 35.6541 69.7587 35.4263 69.0144 34.9706C68.2853 34.5149 67.7385 33.8162 67.3739 32.8744C67.0094 31.9327 66.8271 30.7251 66.8271 29.2517C66.8271 27.8087 67.017 26.6163 67.3967 25.6746C67.7916 24.7328 68.3612 24.0341 69.1055 23.5784C69.8498 23.1228 70.746 22.8949 71.7941 22.8949C72.9181 22.8949 73.9358 23.1531 74.8472 23.6696C75.7737 24.186 76.5028 24.9227 77.0345 25.8796C77.5813 26.8214 77.8547 27.9454 77.8547 29.2517C77.8547 30.5732 77.5813 31.7124 77.0345 32.6694C76.5028 33.6111 75.7737 34.3478 74.8472 34.8794C73.9358 35.3959 72.9181 35.6541 71.7941 35.6541ZM64.0246 35.449V18.5431H68.3537V25.1733L68.1258 29.2517L68.1486 33.3301V35.449H64.0246ZM70.8827 32.2137C71.3688 32.2137 71.8017 32.0998 72.1814 31.8719C72.5763 31.6441 72.8877 31.3099 73.1156 30.8694C73.3586 30.4137 73.4801 29.8745 73.4801 29.2517C73.4801 28.6289 73.3586 28.1049 73.1156 27.6796C72.8877 27.2391 72.5763 26.9049 72.1814 26.6771C71.8017 26.4493 71.3688 26.3353 70.8827 26.3353C70.3966 26.3353 69.9561 26.4493 69.5612 26.6771C69.1815 26.9049 68.8701 27.2391 68.6271 27.6796C68.3992 28.1049 68.2853 28.6289 68.2853 29.2517C68.2853 29.8745 68.3992 30.4137 68.6271 30.8694C68.8701 31.3099 69.1815 31.6441 69.5612 31.8719C69.9561 32.0998 70.3966 32.2137 70.8827 32.2137ZM86.3375 35.6541C84.8794 35.6541 83.6034 35.3807 82.5098 34.8339C81.4313 34.2718 80.5883 33.5124 79.9807 32.5554C79.3884 31.5833 79.0922 30.4821 79.0922 29.2517C79.0922 28.0214 79.3808 26.9277 79.958 25.9708C80.5503 24.9987 81.363 24.2468 82.3959 23.7151C83.4288 23.1683 84.5908 22.8949 85.8819 22.8949C87.097 22.8949 88.2059 23.1455 89.2084 23.6468C90.2109 24.1329 91.0083 24.8544 91.6007 25.8113C92.1931 26.7682 92.4893 27.9302 92.4893 29.2973C92.4893 29.4492 92.4817 29.6239 92.4665 29.8213C92.4513 30.0188 92.4361 30.2011 92.4209 30.3681H82.6465V28.0897H90.1197L88.4793 28.7277C88.4945 28.1657 88.3881 27.6796 88.1603 27.2695C87.9476 26.8594 87.6438 26.5404 87.2489 26.3126C86.8692 26.0847 86.4211 25.9708 85.9046 25.9708C85.3882 25.9708 84.9325 26.0847 84.5376 26.3126C84.1579 26.5404 83.8617 26.867 83.649 27.2923C83.4364 27.7024 83.33 28.1885 83.33 28.7505V29.4112C83.33 30.0188 83.4515 30.5428 83.6946 30.9833C83.9528 31.4238 84.3173 31.7656 84.7882 32.0086C85.2591 32.2365 85.8211 32.3504 86.4743 32.3504C87.0818 32.3504 87.5983 32.2668 88.0236 32.0998C88.4641 31.9175 88.897 31.6441 89.3223 31.2795L91.6007 33.6491C91.0083 34.3022 90.2792 34.8035 89.4134 35.1528C88.5476 35.487 87.5223 35.6541 86.3375 35.6541ZM94.4852 35.449V23.1H98.6092V26.6999L97.994 25.6746C98.3586 24.748 98.9509 24.0569 99.7712 23.6012C100.591 23.1303 101.586 22.8949 102.756 22.8949V26.791C102.558 26.7606 102.384 26.7455 102.232 26.7455C102.095 26.7303 101.943 26.7227 101.776 26.7227C100.895 26.7227 100.181 26.9657 99.6345 27.4518C99.0877 27.9226 98.8142 28.6973 98.8142 29.7758V35.449H94.4852ZM106.187 35.6541C105.458 35.6541 104.843 35.4111 104.342 34.925C103.84 34.4389 103.59 33.8238 103.59 33.0795C103.59 32.3048 103.84 31.6896 104.342 31.2339C104.843 30.7631 105.458 30.5276 106.187 30.5276C106.916 30.5276 107.531 30.7631 108.033 31.2339C108.534 31.6896 108.784 32.3048 108.784 33.0795C108.784 33.8238 108.534 34.4389 108.033 34.925C107.531 35.4111 106.916 35.6541 106.187 35.6541ZM110.817 35.449V23.1H114.941V26.6999L114.326 25.6746C114.69 24.748 115.283 24.0569 116.103 23.6012C116.923 23.1303 117.918 22.8949 119.088 22.8949V26.791C118.89 26.7606 118.715 26.7455 118.564 26.7455C118.427 26.7303 118.275 26.7227 118.108 26.7227C117.227 26.7227 116.513 26.9657 115.966 27.4518C115.419 27.9226 115.146 28.6973 115.146 29.7758V35.449H110.817ZM128.917 22.8949C129.874 22.8949 130.74 23.0924 131.514 23.4873C132.289 23.867 132.897 24.4594 133.337 25.2645C133.793 26.0695 134.021 27.11 134.021 28.3859V35.449H129.692V29.0922C129.692 28.2112 129.509 27.5733 129.145 27.1784C128.795 26.7682 128.302 26.5632 127.664 26.5632C127.208 26.5632 126.79 26.6695 126.411 26.8822C126.031 27.0796 125.735 27.391 125.522 27.8163C125.309 28.2416 125.203 28.796 125.203 29.4796V35.449H120.874V18.5431H125.203V26.6087L124.201 25.5835C124.671 24.6873 125.317 24.0189 126.137 23.5784C126.957 23.1228 127.884 22.8949 128.917 22.8949ZM136.738 35.449V23.1H141.067V35.449H136.738ZM138.903 21.7329C138.113 21.7329 137.475 21.5127 136.989 21.0722C136.503 20.6317 136.26 20.0849 136.26 19.4317C136.26 18.7786 136.503 18.2317 136.989 17.7912C137.475 17.3507 138.113 17.1305 138.903 17.1305C139.693 17.1305 140.331 17.3431 140.817 17.7685C141.303 18.1786 141.546 18.7102 141.546 19.3634C141.546 20.0469 141.303 20.6165 140.817 21.0722C140.346 21.5127 139.708 21.7329 138.903 21.7329ZM151.924 22.8949C152.881 22.8949 153.746 23.0924 154.521 23.4873C155.296 23.867 155.903 24.4594 156.344 25.2645C156.799 26.0695 157.027 27.11 157.027 28.3859V35.449H152.698V29.0922C152.698 28.2112 152.516 27.5733 152.151 27.1784C151.802 26.7682 151.308 26.5632 150.67 26.5632C150.215 26.5632 149.797 26.6695 149.417 26.8822C149.038 27.0796 148.741 27.391 148.529 27.8163C148.316 28.2416 148.21 28.796 148.21 29.4796V35.449H143.881V23.1H148.005V26.6087L147.207 25.5835C147.678 24.6873 148.324 24.0189 149.144 23.5784C149.964 23.1228 150.891 22.8949 151.924 22.8949ZM166.098 35.6541C164.746 35.6541 163.546 35.3807 162.498 34.8339C161.45 34.287 160.622 33.5352 160.015 32.5782C159.422 31.6061 159.126 30.4973 159.126 29.2517C159.126 28.0062 159.422 26.9049 160.015 25.948C160.622 24.9911 161.45 24.2468 162.498 23.7151C163.546 23.1683 164.746 22.8949 166.098 22.8949C167.45 22.8949 168.65 23.1683 169.698 23.7151C170.761 24.2468 171.589 24.9911 172.182 25.948C172.774 26.9049 173.07 28.0062 173.07 29.2517C173.07 30.4973 172.774 31.6061 172.182 32.5782C171.589 33.5352 170.761 34.287 169.698 34.8339C168.65 35.3807 167.45 35.6541 166.098 35.6541ZM166.098 32.2137C166.6 32.2137 167.04 32.0998 167.42 31.8719C167.815 31.6441 168.126 31.3099 168.354 30.8694C168.582 30.4137 168.696 29.8745 168.696 29.2517C168.696 28.6289 168.582 28.1049 168.354 27.6796C168.126 27.2391 167.815 26.9049 167.42 26.6771C167.04 26.4493 166.6 26.3353 166.098 26.3353C165.612 26.3353 165.172 26.4493 164.777 26.6771C164.397 26.9049 164.086 27.2391 163.843 27.6796C163.615 28.1049 163.501 28.6289 163.501 29.2517C163.501 29.8745 163.615 30.4137 163.843 30.8694C164.086 31.3099 164.397 31.6441 164.777 31.8719C165.172 32.0998 165.612 32.2137 166.098 32.2137Z" fill="url(#paint2_linear_512_49)"/>
<path d="M20 30.5C20.8284 30.5 21.5 29.8284 21.5 29C21.5 28.1716 20.8284 27.5 20 27.5V30.5ZM0.93934 27.9393C0.353553 28.5251 0.353553 29.4749 0.93934 30.0607L10.4853 39.6066C11.0711 40.1924 12.0208 40.1924 12.6066 39.6066C13.1924 39.0208 13.1924 38.0711 12.6066 37.4853L4.12132 29L12.6066 20.5147C13.1924 19.9289 13.1924 18.9792 12.6066 18.3934C12.0208 17.8076 11.0711 17.8076 10.4853 18.3934L0.93934 27.9393ZM20 27.5H2V30.5H20V27.5Z" fill="url(#paint3_linear_512_49)"/>
<defs>
<linearGradient id="paint0_linear_512_49" x1="196.704" y1="3.79738" x2="196.704" y2="56.8024" gradientUnits="userSpaceOnUse">
<stop stop-color="#15BFE3"/>
<stop offset="1" stop-color="#1522EC"/>
</linearGradient>
<linearGradient id="paint1_linear_512_49" x1="199.472" y1="5.14228" x2="200.105" y2="48.2583" gradientUnits="userSpaceOnUse">
<stop stop-color="#15BFE3"/>
<stop offset="1" stop-color="#1522EC"/>
</linearGradient>
<linearGradient id="paint2_linear_512_49" x1="104.5" y1="13.449" x2="104.5" y2="41.449" gradientUnits="userSpaceOnUse">
<stop offset="0.28125" stop-color="#15BFE3"/>
<stop offset="1" stop-color="#1522EC"/>
</linearGradient>
<linearGradient id="paint3_linear_512_49" x1="11" y1="18" x2="11" y2="40" gradientUnits="userSpaceOnUse">
<stop stop-color="#15BFE3"/>
<stop offset="0.09375" stop-color="#15BFE3"/>
<stop offset="1" stop-color="#1523EC"/>
</linearGradient>
</defs>
</svg>
