<svg width="50" height="48" viewBox="0 0 50 48" fill="none" xmlns="http://www.w3.org/2000/svg">
<path d="M25 0C14.6077 0 14.5833 4.17391 14.5833 4.17391V12.5217H27.0833V14.6087H6.25C6.25 14.6087 0 13.6467 0 25.0435C0 36.4402 6.25 35.4783 6.25 35.4783H12.5V32.087C12.5 27.0571 16.5934 22.9565 21.6146 22.9565H28.3854C32.2591 22.9565 35.4167 21.8804 35.4167 18V4.17391C35.4167 4.17391 35.3923 0 25 0ZM18.75 4.17391C19.8975 4.17391 20.8333 5.11141 20.8333 6.26087C20.8333 7.41033 19.8975 8.34783 18.75 8.34783C17.6025 8.34783 16.6667 7.41033 16.6667 6.26087C16.6667 5.11141 17.6025 4.17391 18.75 4.17391ZM37.5 12.5217V18C37.5 23.0299 33.4066 25.0435 28.3854 25.0435H21.6146C17.7409 25.0435 14.5833 28.2065 14.5833 32.087V43.8261C14.5833 43.8261 14.7135 48 25 48C35.2865 48 35.4167 43.8261 35.4167 43.8261V35.4783H22.9167V33.3913H43.75C43.75 33.3913 50 34.4429 50 22.9565C50 11.4701 43.75 12.5217 43.75 12.5217H37.5ZM31.25 39.6522C32.3975 39.6522 33.3333 40.5897 33.3333 41.7391C33.3333 42.8886 32.3975 43.8261 31.25 43.8261C30.1025 43.8261 29.1667 42.8886 29.1667 41.7391C29.1667 40.5897 30.1025 39.6522 31.25 39.6522Z" fill="#1523EC"/>
</svg>
