<svg width="465" height="492" viewBox="0 0 465 492" fill="none" xmlns="http://www.w3.org/2000/svg">
<g filter="url(#filter0_d_595_168)">
<g filter="url(#filter1_d_595_168)">
<path d="M185.559 246.38L178.95 263.564H179.823C184.861 263.564 189.849 264.566 194.497 266.512L217.981 276.342C221.92 277.991 225.256 280.812 227.536 284.422C231.659 290.95 231.827 299.225 227.971 305.915L210.395 336.416C207.069 342.187 205.319 348.73 205.319 355.39V406.109C205.319 408.611 205.566 411.107 206.057 413.561L209.338 429.964C209.482 430.686 210.001 431.268 210.706 431.48C232.535 438.051 267.59 446.462 294.265 448.675C297.336 448.93 300.418 448.712 303.447 448.141L353.263 438.755C356.132 438.215 358.929 437.346 361.598 436.165L400.572 418.926C401.321 418.595 401.792 417.84 401.761 417.022L398.171 322.246C397.837 313.427 404.896 306.095 413.722 306.095C418.447 303.47 421.377 298.49 421.377 293.085V276.749C421.377 273.642 420.996 270.546 420.243 267.532L414.891 246.125C414.114 243.019 412.949 240.025 411.422 237.212L403.265 222.187C399.551 215.345 393.826 209.809 386.863 206.328L380.338 203.066C377.092 201.442 373.63 200.293 370.057 199.651L347.488 195.601C344.026 194.979 340.494 194.841 336.993 195.191L248.701 204.021L232.299 205.717C226.853 206.281 221.592 208.015 216.878 210.801L211.842 213.776C207.536 216.321 203.774 219.69 200.773 223.692L190.626 237.221C188.523 240.026 186.818 243.108 185.559 246.38Z" fill="url(#paint0_linear_595_168)"/>
</g>
<path d="M180.443 264.33L180.651 263.564L184.548 264.051C186.484 264.293 188.399 264.684 190.274 265.22L193.411 266.116L209.573 272.07L216.705 275.824C222.679 278.969 228.357 281.568 230.22 288.057C232.178 294.877 229.103 303.372 225.746 309.623L209.973 338.993C207.466 343.662 204.009 347.756 199.825 351.01L199.593 351.19C193.892 355.624 187.031 358.316 179.836 358.942C174.214 359.431 168.555 358.644 163.28 356.639L133.322 345.255C130.296 344.105 127.428 342.573 124.79 340.695L84.5311 312.05L77.6207 306.202C74.8696 303.875 71.8013 301.95 68.5081 300.486L65.8174 299.29L53.7923 291.971C48.9617 289.03 45.484 284.305 44.1125 278.819C42.7576 273.4 43.5651 267.666 46.364 262.831L51.3568 254.207L51.8466 253.228C53.1712 250.579 53.4348 247.524 52.5837 244.687C51.7917 242.047 51.9634 239.211 53.0682 236.686L54.7934 232.742C56.4426 228.973 59.0587 225.706 62.3767 223.273L66.8495 219.993C68.9422 218.458 71.4697 217.631 74.0649 217.631C77.9685 217.631 81.6364 215.763 83.9324 212.606L84.4963 211.83C86.1807 209.515 88.531 207.767 91.2339 206.821L94.3433 205.733C100.438 203.6 107.195 204.644 112.361 208.519C115.824 211.116 118.317 214.798 119.442 218.977L121.015 224.821C122.746 231.249 126.183 237.09 130.962 241.724L151.73 261.863L171.295 280.577L172.183 279.577C176.075 275.199 178.902 269.981 180.443 264.33Z" fill="url(#paint1_linear_595_168)"/>
<g filter="url(#filter2_d_595_168)">
<path d="M344.821 332.465L348.224 307.797H378.846L407.767 305.245H415.423L417.558 335.144C417.834 339.006 417.518 342.887 416.622 346.653L410.236 373.475C409.725 375.619 409.029 377.715 408.155 379.738L398.103 403.016C395.109 409.95 388.829 414.915 381.391 416.227C379.7 416.526 377.98 416.629 376.266 416.536L337.685 414.431C333.957 414.228 330.278 413.476 326.769 412.2L303.991 403.917L267.414 393.71L249.126 385.784C244.356 383.718 239.214 382.651 234.016 382.651H229.349C225.264 382.651 221.207 381.993 217.332 380.701L212.815 379.196C207.919 377.564 203.59 374.57 200.336 370.564L198.965 368.876C195.922 365.131 194.261 360.453 194.261 355.628V349.462C194.261 347.838 194.906 346.28 196.055 345.132C198.379 342.807 198.454 339.063 196.224 336.647L192.96 333.111C191.062 331.055 190.008 328.359 190.008 325.56V323.044C190.008 318.704 191.614 314.518 194.518 311.292L195.383 310.33C196.888 308.658 198.714 307.306 200.752 306.355L208.425 302.775C209.644 302.206 210.423 300.983 210.423 299.637C210.423 298.862 210.683 298.108 211.163 297.498L217.35 289.624C218.935 287.606 221.077 286.099 223.511 285.287C228.895 283.493 234.822 285.367 238.195 289.931L245.923 300.386C246.64 301.355 247.283 302.377 247.847 303.443C252.035 311.355 260.254 316.303 269.206 316.303H279.053C281.496 316.303 283.933 316.538 286.33 317.006L317.601 323.108L344.821 332.465Z" fill="url(#paint2_linear_595_168)"/>
</g>
<path d="M136.419 247.403L137.595 247.207C142.928 246.318 148.197 249.105 150.463 254.015L150.872 254.9C151.44 256.131 151.8 257.453 151.911 258.805C153.222 274.891 151.23 283.415 144.075 296.739" stroke="black" stroke-width="0.5"/>
<path d="M148.328 258.461C150.266 256.546 151.931 256.064 154.363 256.57C156.572 257.029 158.316 258.662 159.477 260.597V260.597C159.981 261.437 160.363 262.349 160.593 263.3C165.032 281.63 162.963 291.55 152.581 307.797" stroke="black" stroke-width="0.5"/>
<g filter="url(#filter3_d_595_168)">
<path d="M233.755 194.209L232.433 180.966L227.156 176.269C220.276 170.145 215.855 161.731 214.714 152.592L214.243 148.815C213.965 146.592 213.885 144.35 214.002 142.113L214.712 128.616L227.613 134.696C229.037 135.366 230.591 135.714 232.165 135.714C233.223 135.714 234.02 134.75 233.82 133.71L230.849 118.239C230.14 114.548 230.186 110.751 230.983 107.078L232.541 99.9011C233.579 95.1239 232.118 90.1471 228.664 86.688C225.971 83.9916 224.458 80.3367 224.458 76.526V70.0551V62.5771C224.458 60.4833 224.857 58.4087 225.634 56.4643L227.895 50.8038C229.03 47.9621 231.782 46.0983 234.842 46.0983C237.226 46.0983 239.468 47.2352 240.877 49.159L247.156 57.7327C247.972 58.8478 248.707 60.021 249.353 61.2429L256.357 74.4915L268.432 71.3095C271.592 70.4767 274.847 70.0551 278.115 70.0551H295.344V65.7699C295.344 58.0301 299.607 50.9196 306.434 47.2734L307.812 46.5377C308.358 46.2458 308.869 45.8901 309.331 45.4781C313.071 42.1496 318.929 43.1302 321.381 47.4949L324.103 52.3399C324.423 52.9101 324.697 53.5049 324.923 54.1187L326.911 59.5228C329.441 66.3975 329.929 73.8568 328.318 81.0026L327.224 85.8518C325.506 93.4723 326.178 101.437 329.149 108.662L329.571 109.69C330.38 111.656 331.022 113.687 331.491 115.761L340.075 153.726C340.965 157.664 341.222 161.719 340.836 165.738L338.131 193.919C337.387 201.66 334.287 208.986 329.248 214.909L319.69 226.145C317.644 228.55 315.306 230.691 312.731 232.518L305.22 237.845C298.795 242.403 291.112 244.851 283.235 244.851H280.398C275.636 244.851 270.917 243.956 266.486 242.213L251.306 236.241C249.413 235.496 247.828 234.132 246.81 232.37L239.187 219.186C238.892 218.675 239.101 218.02 239.639 217.775L248.382 213.796V199.712C248.382 199.159 247.935 198.712 247.382 198.712H238.731C236.162 198.712 234.011 196.765 233.755 194.209Z" fill="url(#paint3_linear_595_168)"/>
</g>
<path d="M301 365.321C308.102 358.196 313.281 345.457 315.054 340.689C315.515 339.452 315.72 338.151 315.672 336.832C315.568 333.983 315.257 328.519 314.333 323.415C313.902 321.033 312.236 319.1 310.033 318.098V318.098C307.21 316.815 303.903 317.261 301.522 319.246L301 319.681" stroke="black" stroke-width="0.5"/>
<path d="M319.303 376.697C327.656 368.318 333.707 353.216 335.649 347.948C336.106 346.71 336.312 345.407 336.268 344.088C336.159 340.895 335.812 334.362 334.71 328.274C334.212 325.521 332.287 323.287 329.741 322.13V322.13C326.48 320.648 322.658 321.163 319.906 323.456L319.303 323.958" stroke="black" stroke-width="0.5"/>
<path d="M309.946 374.145C318.595 365.469 324.169 347.762 325.687 342.486C325.977 341.482 326.105 340.446 326.073 339.401C325.982 336.42 325.661 329.67 324.536 323.355C324.037 320.557 321.844 318.427 319.086 317.737V317.737C315.693 316.889 312.149 318.401 310.414 321.438L309.946 322.257" stroke="black" stroke-width="0.5"/>
<path d="M240.195 218.481C247.889 207.126 245.608 203.006 243.598 198.917C264.507 200.239 297.719 188.048 308.245 185.307C301.676 195.02 297.355 200.28 287.83 209.124L271.668 218.481C259.377 220.423 252.486 219.966 240.195 218.481Z" fill="white"/>
<g filter="url(#filter4_d_595_168)">
<path d="M214.676 128.315L225.011 133.211C228.833 135.021 233.052 135.833 237.273 135.569L238.222 135.509C242.31 135.254 246.398 136.007 250.127 137.702L250.235 137.751C252.6 138.826 254.784 140.263 256.707 142.011L257.847 143.048C261.302 146.189 263.68 150.339 264.642 154.909C265.871 160.75 264.698 166.84 261.387 171.807L261.089 172.254C258.032 176.84 253.459 180.205 248.172 181.76L245.601 182.516C243.165 183.233 240.595 183.369 238.096 182.915C234.497 182.261 231.223 180.413 228.802 177.669L223.032 171.129C220.885 168.696 219.232 165.867 218.165 162.802L214.732 152.931C213.574 149.601 213.133 146.064 213.438 142.552L214.676 128.315Z" fill="white"/>
</g>
<path d="M233.39 113.855L238.809 117.896C239.887 118.701 241.215 119.097 242.558 119.016C243.463 118.961 244.368 119.123 245.198 119.489L245.385 119.571C245.999 119.842 246.568 120.205 247.071 120.649L247.37 120.912C248.226 121.666 248.819 122.675 249.061 123.79C249.374 125.233 249.077 126.741 248.241 127.958L248.137 128.109C247.376 129.215 246.253 130.022 244.962 130.39L244.221 130.601C243.606 130.776 242.96 130.81 242.33 130.699C241.41 130.536 240.569 130.074 239.94 129.382L238.866 128.202C238.077 127.335 237.466 126.321 237.07 125.217L235.942 122.073L233.39 113.855Z" fill="white"/>
<path d="M311.186 137.507C311.136 141.925 310.3 145.908 308.838 148.703C307.375 151.497 305.387 152.91 303.249 152.675C301.11 152.439 298.969 150.572 297.231 147.425C295.492 144.278 294.276 140.07 293.812 135.595C293.348 131.119 293.668 126.688 294.712 123.136C295.756 119.584 297.452 117.158 299.479 116.317C301.506 115.476 303.724 116.277 305.713 118.569C307.703 120.861 309.328 124.486 310.279 128.759L302.397 134.346L311.186 137.507Z" fill="black"/>
</g>
<defs>
<filter id="filter0_d_595_168" x="0.470215" y="0.49292" width="463.907" height="491.288" filterUnits="userSpaceOnUse" color-interpolation-filters="sRGB">
<feFlood flood-opacity="0" result="BackgroundImageFix"/>
<feColorMatrix in="SourceAlpha" type="matrix" values="0 0 0 0 0 0 0 0 0 0 0 0 0 0 0 0 0 0 127 0" result="hardAlpha"/>
<feOffset/>
<feGaussianBlur stdDeviation="21.5"/>
<feComposite in2="hardAlpha" operator="out"/>
<feColorMatrix type="matrix" values="0 0 0 0 0 0 0 0 0 0 0 0 0 0 0 0 0 0 0.3 0"/>
<feBlend mode="normal" in2="BackgroundImageFix" result="effect1_dropShadow_595_168"/>
<feBlend mode="normal" in="SourceGraphic" in2="effect1_dropShadow_595_168" result="shape"/>
</filter>
<filter id="filter1_d_595_168" x="174.95" y="193.003" width="250.427" height="261.778" filterUnits="userSpaceOnUse" color-interpolation-filters="sRGB">
<feFlood flood-opacity="0" result="BackgroundImageFix"/>
<feColorMatrix in="SourceAlpha" type="matrix" values="0 0 0 0 0 0 0 0 0 0 0 0 0 0 0 0 0 0 127 0" result="hardAlpha"/>
<feOffset dy="2"/>
<feGaussianBlur stdDeviation="2"/>
<feComposite in2="hardAlpha" operator="out"/>
<feColorMatrix type="matrix" values="0 0 0 0 0 0 0 0 0 0 0 0 0 0 0 0 0 0 0.25 0"/>
<feBlend mode="normal" in2="BackgroundImageFix" result="effect1_dropShadow_595_168"/>
<feBlend mode="normal" in="SourceGraphic" in2="effect1_dropShadow_595_168" result="shape"/>
</filter>
<filter id="filter2_d_595_168" x="184.008" y="278.614" width="239.647" height="143.955" filterUnits="userSpaceOnUse" color-interpolation-filters="sRGB">
<feFlood flood-opacity="0" result="BackgroundImageFix"/>
<feColorMatrix in="SourceAlpha" type="matrix" values="0 0 0 0 0 0 0 0 0 0 0 0 0 0 0 0 0 0 127 0" result="hardAlpha"/>
<feOffset/>
<feGaussianBlur stdDeviation="3"/>
<feComposite in2="hardAlpha" operator="out"/>
<feColorMatrix type="matrix" values="0 0 0 0 0 0 0 0 0 0 0 0 0 0 0 0 0 0 0.25 0"/>
<feBlend mode="normal" in2="BackgroundImageFix" result="effect1_dropShadow_595_168"/>
<feBlend mode="normal" in="SourceGraphic" in2="effect1_dropShadow_595_168" result="shape"/>
</filter>
<filter id="filter3_d_595_168" x="209.95" y="43.4929" width="135.06" height="209.358" filterUnits="userSpaceOnUse" color-interpolation-filters="sRGB">
<feFlood flood-opacity="0" result="BackgroundImageFix"/>
<feColorMatrix in="SourceAlpha" type="matrix" values="0 0 0 0 0 0 0 0 0 0 0 0 0 0 0 0 0 0 127 0" result="hardAlpha"/>
<feOffset dy="4"/>
<feGaussianBlur stdDeviation="2"/>
<feComposite in2="hardAlpha" operator="out"/>
<feColorMatrix type="matrix" values="0 0 0 0 0 0 0 0 0 0 0 0 0 0 0 0 0 0 0.25 0"/>
<feBlend mode="normal" in2="BackgroundImageFix" result="effect1_dropShadow_595_168"/>
<feBlend mode="normal" in="SourceGraphic" in2="effect1_dropShadow_595_168" result="shape"/>
</filter>
<filter id="filter4_d_595_168" x="206.344" y="122.315" width="65.7739" height="68.8621" filterUnits="userSpaceOnUse" color-interpolation-filters="sRGB">
<feFlood flood-opacity="0" result="BackgroundImageFix"/>
<feColorMatrix in="SourceAlpha" type="matrix" values="0 0 0 0 0 0 0 0 0 0 0 0 0 0 0 0 0 0 127 0" result="hardAlpha"/>
<feOffset dy="1"/>
<feGaussianBlur stdDeviation="3.5"/>
<feComposite in2="hardAlpha" operator="out"/>
<feColorMatrix type="matrix" values="0 0 0 0 0 0 0 0 0 0 0 0 0 0 0 0 0 0 0.25 0"/>
<feBlend mode="normal" in2="BackgroundImageFix" result="effect1_dropShadow_595_168"/>
<feBlend mode="normal" in="SourceGraphic" in2="effect1_dropShadow_595_168" result="shape"/>
</filter>
<linearGradient id="paint0_linear_595_168" x1="300.163" y1="194.664" x2="300.163" y2="449" gradientUnits="userSpaceOnUse">
<stop stop-color="#295AD6"/>
<stop offset="1" stop-color="#2045A2"/>
</linearGradient>
<linearGradient id="paint1_linear_595_168" x1="136.522" y1="202.319" x2="136.522" y2="359.685" gradientUnits="userSpaceOnUse">
<stop stop-color="#D9D9D9"/>
<stop offset="1" stop-color="#C2C2C2"/>
</linearGradient>
<linearGradient id="paint2_linear_595_168" x1="303.991" y1="282.278" x2="303.991" y2="416.676" gradientUnits="userSpaceOnUse">
<stop stop-color="#D9D9D9"/>
<stop offset="1" stop-color="#C2C2C2"/>
</linearGradient>
<linearGradient id="paint3_linear_595_168" x1="277.622" y1="39" x2="277.622" y2="244.851" gradientUnits="userSpaceOnUse">
<stop stop-color="#D9D9D9"/>
<stop offset="1" stop-color="#C2C2C2"/>
</linearGradient>
</defs>
</svg>
