<svg width="57" height="48" viewBox="0 0 57 48" fill="none" xmlns="http://www.w3.org/2000/svg">
<path d="M24.1154 0C10.8225 0 0 10.7707 0 24C0 37.2293 10.8225 48 24.1154 48C25.6158 48 27.0817 47.8442 28.5086 47.5824C29.9304 47.8435 31.3883 48 32.8846 48C46.1772 48 57 37.229 57 24C57 10.771 46.1772 0 32.8846 0C31.3883 0 29.9304 0.156496 28.5086 0.417614C27.0817 0.155776 25.6158 0 24.1154 0ZM32.8846 4.36364C39.7452 4.36364 45.7678 7.82524 49.3012 13.0909H16.468C20.0015 7.82524 26.024 4.36364 32.8846 4.36364ZM17.547 5.4929C12.189 9.89927 8.76923 16.562 8.76923 24C8.76923 31.438 12.189 38.1007 17.547 42.5071C9.87203 39.8204 4.38462 32.5745 4.38462 24C4.38462 15.4255 9.87203 8.17956 17.547 5.4929ZM14.2928 17.4545H51.4764C51.9686 18.845 52.3195 20.3025 52.4869 21.8182H13.2823C13.4498 20.3025 13.8006 18.845 14.2928 17.4545ZM13.2823 26.1818H52.4869C52.3195 27.6975 51.9686 29.155 51.4764 30.5455H14.2928C13.8006 29.155 13.4498 27.6975 13.2823 26.1818ZM16.468 34.9091H49.3012C45.7678 40.1748 39.7452 43.6364 32.8846 43.6364C26.024 43.6364 20.0015 40.1748 16.468 34.9091Z" fill="#1523EC"/>
</svg>
