<svg width="48" height="48" viewBox="0 0 48 48" fill="none" xmlns="http://www.w3.org/2000/svg">
<path d="M0 0V2V48H48V0H0ZM4 4H44V44H4V4ZM12.6484 20V23.7461H17.7578V40.0312H21.9609V23.7461H27.1758V20H12.6484ZM33.4062 20.3242C30.4902 20.537 27.5742 21.7579 27.5742 25.7969C27.5742 31.7389 35.5781 31.7419 35.5781 34.4219C35.5781 34.6759 35.6893 36.5234 32.8633 36.5234C30.0373 36.5234 27.6836 34.7461 27.6836 34.7461V39.0547C27.6836 39.0547 40 43.0387 40 34.0547C40 28.2227 31.9219 28.5152 31.9219 25.6172C31.9219 24.4932 32.7197 23.4414 34.9297 23.4414C37.1397 23.4414 39.0938 24.7461 39.0938 24.7461L39.2383 20.9062C39.2383 20.9062 36.3223 20.1115 33.4062 20.3242Z" fill="#1522EC"/>
</svg>
